<?xml version="1.0" standalone="no"?>
<!DOCTYPE svg PUBLIC "-//W3C//DTD SVG 20010904//EN"
 "http://www.w3.org/TR/2001/REC-SVG-20010904/DTD/svg10.dtd">
<svg version="1.0" xmlns="http://www.w3.org/2000/svg"
 width="816.000000pt" height="816.000000pt" viewBox="0 0 816.000000 816.000000"
 preserveAspectRatio="xMidYMid meet">
<metadata>
Created by potrace 1.14, written by Peter Selinger 2001-2017
</metadata>
<g transform="translate(0.000000,816.000000) scale(0.100000,-0.100000)"
fill="#000000" stroke="none">
<path d="M3745 8154 c-218 -33 -412 -79 -580 -140 -144 -52 -185 -64 -215 -64
-50 0 -224 -50 -298 -85 -41 -19 -140 -75 -221 -124 -80 -50 -189 -110 -241
-135 -81 -38 -109 -59 -192 -139 -108 -106 -179 -157 -216 -157 -27 0 -90 -60
-246 -234 -44 -49 -105 -104 -135 -124 -130 -81 -194 -175 -349 -511 l-53
-114 -198 -196 c-108 -108 -209 -217 -224 -242 -50 -85 -101 -259 -158 -543
-37 -179 -69 -278 -137 -417 l-50 -104 -17 -215 c-16 -216 -32 -403 -61 -735
-8 -99 -18 -236 -21 -305 -5 -117 -4 -130 21 -205 15 -44 60 -138 101 -210
159 -278 193 -402 199 -718 2 -131 4 -146 29 -194 42 -82 179 -281 251 -366
68 -79 158 -157 181 -157 7 0 76 -62 153 -138 159 -155 197 -209 300 -422 141
-292 362 -603 466 -657 16 -8 43 -13 60 -10 20 3 71 -9 145 -35 134 -46 144
-51 257 -124 175 -114 423 -213 626 -249 167 -30 339 -11 419 46 26 18 28 18
115 -6 129 -36 382 -91 507 -110 82 -13 152 -16 285 -13 168 4 182 6 275 38
59 19 145 60 215 101 260 153 316 168 490 134 80 -15 92 -15 125 -2 20 9 47
32 61 54 48 72 116 92 352 102 158 7 175 9 227 35 79 38 152 108 213 202 29
44 69 94 91 111 59 46 277 173 336 195 70 27 186 26 294 -1 106 -27 203 -28
259 -1 59 29 144 121 144 157 0 34 40 122 64 142 9 8 29 35 44 60 22 38 26 56
25 116 l-2 71 82 40 c71 34 82 43 85 67 3 24 -6 37 -47 75 -27 26 -53 59 -57
74 -8 34 19 89 82 166 55 67 84 122 84 158 0 15 5 43 12 61 10 28 9 44 -10
107 -36 122 -37 143 -9 221 14 39 34 95 45 125 11 30 30 100 41 155 12 55 40
186 63 291 l40 192 -32 83 c-33 84 -49 192 -36 242 3 14 30 60 58 103 l53 78
0 80 c0 45 4 87 8 94 5 7 28 22 51 33 24 11 48 31 55 45 15 34 14 186 -4 356
-8 79 -22 217 -30 308 -20 203 -30 254 -56 305 -12 22 -29 56 -39 75 -10 19
-28 86 -41 149 -22 114 -23 115 -105 235 -46 67 -100 148 -121 181 l-37 60 -1
125 c0 138 -4 150 -87 273 -58 86 -69 126 -66 242 2 94 0 105 -29 165 -99 211
-349 556 -548 756 -105 106 -162 144 -218 144 -52 0 -124 42 -258 152 -240
198 -295 240 -354 275 -75 44 -156 73 -207 73 -38 0 -110 -29 -123 -50 -21
-34 -292 18 -730 140 -83 23 -197 55 -255 71 -386 108 -402 111 -700 114 -135
2 -258 1 -275 -1z m335 -525 l125 -42 175 -2 c242 -4 326 -23 630 -143 l165
-65 190 -9 c128 -6 200 -14 220 -24 17 -8 92 -60 168 -115 l139 -101 100 67
c55 36 101 65 103 63 2 -2 10 -35 19 -74 27 -133 100 -235 203 -288 55 -27
180 -56 245 -56 l43 0 22 -57 c12 -32 34 -107 48 -167 30 -122 27 -158 -19
-213 -32 -39 -37 -75 -20 -173 35 -207 159 -490 375 -855 61 -104 133 -235
160 -290 50 -105 140 -357 184 -513 14 -51 36 -117 50 -147 37 -84 45 -171 28
-300 -24 -186 -31 -432 -18 -618 9 -118 0 -169 -62 -362 -24 -77 -64 -237 -88
-355 -37 -180 -65 -279 -174 -610 -72 -217 -138 -422 -148 -454 -21 -74 -66
-134 -123 -166 -39 -22 -58 -25 -151 -26 -129 -2 -179 -17 -274 -84 -147 -105
-422 -284 -720 -470 -170 -106 -317 -200 -326 -209 -9 -9 -21 -35 -28 -59 -7
-24 -19 -46 -26 -49 -8 -3 -35 7 -60 21 -40 22 -66 27 -194 37 -179 13 -252 4
-366 -45 -182 -79 -377 -117 -600 -118 -164 0 -268 10 -580 58 -320 48 -326
49 -555 104 -210 50 -377 80 -452 80 -103 0 -141 29 -227 168 -57 93 -115 166
-285 357 -72 81 -118 141 -122 160 -10 49 -45 103 -83 128 -51 33 -155 73
-229 87 -70 14 -112 41 -112 73 0 11 10 41 22 66 13 26 17 46 11 48 -5 2 -45
26 -89 52 -185 115 -303 284 -378 545 -15 49 -26 96 -26 105 0 10 -28 60 -61
111 -267 410 -386 863 -350 1333 22 281 64 462 219 932 189 571 317 849 500
1085 37 47 186 207 332 355 307 312 325 333 455 520 200 286 215 296 509 356
83 16 205 48 271 69 141 46 837 283 910 310 80 30 174 21 325 -31z"/>
<path d="M2693 6232 c-60 -48 -117 -111 -139 -154 -15 -28 -16 -53 -10 -188 3
-85 11 -211 16 -280 78 -985 78 -978 57 -1043 -10 -30 -27 -67 -38 -81 -31
-39 -171 -106 -539 -258 -250 -103 -339 -150 -399 -211 l-53 -55 15 -73 c9
-41 21 -103 26 -139 25 -153 77 -196 274 -224 147 -22 317 -65 412 -104 91
-38 307 -154 367 -198 53 -39 111 -120 127 -179 16 -60 13 -179 -8 -306 -11
-63 -27 -172 -35 -244 -66 -558 -66 -559 -33 -628 52 -106 152 -140 302 -102
77 19 366 164 450 226 36 26 96 59 134 74 62 23 83 39 188 143 65 64 147 152
183 195 93 114 141 132 216 81 47 -32 283 -216 524 -408 207 -165 251 -188
370 -194 113 -5 183 20 255 92 61 61 81 116 79 221 -2 84 -15 137 -59 231 -58
124 -60 136 -61 429 -1 163 -6 286 -12 310 -15 51 -15 146 -1 182 23 63 91
113 199 148 93 30 248 90 410 160 178 77 345 143 442 174 72 24 138 66 163
104 14 23 14 30 -11 98 -54 152 -122 233 -244 291 -54 26 -82 33 -170 39 -58
4 -134 16 -170 26 -36 11 -139 43 -229 72 -91 28 -183 51 -205 51 -63 0 -121
34 -145 84 -26 52 -28 159 -6 232 8 27 24 146 35 264 11 118 27 280 35 360 8
80 15 183 15 230 -1 140 -55 337 -115 416 -69 91 -176 86 -273 -13 -26 -27
-99 -92 -162 -144 -182 -152 -230 -212 -276 -339 -58 -164 -121 -260 -202
-307 -42 -25 -57 -28 -137 -28 -113 0 -148 12 -375 125 -465 232 -708 425
-894 712 -59 91 -96 127 -159 153 -55 23 -81 19 -134 -23z"/>
</g>
</svg>
