<?xml version="1.0" encoding="UTF-8" standalone="no"?>
<!-- Created with Inkscape (http://www.inkscape.org/) -->

<svg
   version="1.1"
   id="svg198"
   width="49.149097"
   height="50.703903"
   viewBox="0 0 49.149097 50.703903"
   sodipodi:docname="paletti_icon.svg"
   inkscape:version="1.2.2 (732a01da63, 2022-12-09, custom)"
   xmlns:inkscape="http://www.inkscape.org/namespaces/inkscape"
   xmlns:sodipodi="http://sodipodi.sourceforge.net/DTD/sodipodi-0.dtd"
   xmlns="http://www.w3.org/2000/svg"
   xmlns:svg="http://www.w3.org/2000/svg">
  <defs
     id="defs202" />
  <sodipodi:namedview
     id="namedview200"
     pagecolor="#ffffff"
     bordercolor="#000000"
     borderopacity="0.25"
     inkscape:showpageshadow="2"
     inkscape:pageopacity="0.0"
     inkscape:pagecheckerboard="0"
     inkscape:deskcolor="#d1d1d1"
     showgrid="false"
     inkscape:zoom="5.9797059"
     inkscape:cx="0.91977768"
     inkscape:cy="32.359451"
     inkscape:window-width="1850"
     inkscape:window-height="1016"
     inkscape:window-x="0"
     inkscape:window-y="0"
     inkscape:window-maximized="1"
     inkscape:current-layer="g206">
    <inkscape:page
       x="0"
       y="0"
       id="page204"
       width="49.149097"
       height="50.703903" />
  </sodipodi:namedview>
  <g
     id="g206"
     inkscape:groupmode="layer"
     inkscape:label="Page 1"
     transform="matrix(1.3333333,0,0,-1.3333333,-453.15735,690.68489)">
    <ellipse
       style="fill:#ffffff;fill-opacity:1;stroke-width:0.740794"
       id="path754"
       cx="358.62802"
       cy="-498.94382"
       transform="scale(1,-1)"
       rx="17.022665"
       ry="17.583399" />
    <path
       d="m 366.72,513.227 c -0.413,0.304 -0.923,0.7 -1.459,1.056 -0.119,0.081 -0.334,0.01 -0.503,0.027 -0.574,0.056 -1.204,-0.009 -1.711,0.209 -1.192,0.513 -2.351,0.957 -3.701,0.831 -0.536,-0.05 -1.103,0.274 -1.663,0.401 -0.221,0.051 -0.482,0.098 -0.686,0.031 -1.591,-0.526 -3.165,-1.097 -4.759,-1.614 -0.57,-0.185 -1.185,-0.226 -1.762,-0.397 -0.316,-0.093 -0.669,-0.252 -0.872,-0.494 -0.543,-0.652 -0.958,-1.412 -1.521,-2.042 -0.934,-1.042 -2.022,-1.953 -2.892,-3.041 -0.628,-0.786 -1.082,-1.739 -1.477,-2.676 -0.486,-1.154 -0.836,-2.365 -1.229,-3.557 -1.137,-3.438 -0.919,-6.71 1.214,-9.742 0.055,-0.077 0.054,-0.193 0.076,-0.291 0.325,-1.357 0.893,-2.538 2.342,-3.181 -0.643,-0.884 0.306,-0.807 0.664,-0.942 0.531,-0.201 1.023,-0.317 1.109,-0.989 0.016,-0.124 0.177,-0.23 0.271,-0.344 0.583,-0.701 1.283,-1.339 1.702,-2.128 0.234,-0.44 0.489,-0.645 0.861,-0.652 1.33,-0.027 2.567,-0.548 3.83,-0.714 0.997,-0.131 2.011,-0.34 3.028,-0.411 1.268,-0.087 2.466,0.073 3.662,0.624 0.607,0.279 1.435,0.113 2.16,0.085 0.57771,-0.3099 0.60994,-0.39376 0.746,0.274 1.514,0.952 2.956,1.813 4.344,2.753 0.582,0.395 1.015,0.905 1.862,0.807 0.555,-0.065 1.113,0.197 1.311,0.961 0.332,1.276 0.847,2.503 1.218,3.771 0.267,0.913 0.337,1.891 0.663,2.778 0.287,0.783 0.463,1.507 0.219,2.322 -0.059,0.203 0.113,0.468 0.074,0.686 -0.176,1 0.451,2.004 -0.053,3.008 -0.195,0.389 -0.251,0.847 -0.401,1.261 -0.258,0.712 -0.46,1.46 -0.828,2.113 -0.881,1.561 -1.917,3.045 -2.319,4.83 -0.069,0.304 -0.139,0.773 0.022,0.933 0.475,0.47 0.113,0.903 0.062,1.339 -0.033,0.274 -0.183,0.534 -0.278,0.801 -1.356,-0.099 -2.277,0.628 -2.324,1.992 -0.331,-0.224 -0.593,-0.401 -1.002,-0.678 m -26.33391,-10.67473 c 0.93283,1.5668 0.77306,2.50108 1.21203,3.87933 0.45899,1.62076 0.67513,1.16711 2.38603,3.11722 1.60531,3.58719 1.42008,2.09691 2.56482,3.49694 1.5805,1.93297 0.40284,-0.0231 2.47243,2.15795 1.93006,0.78368 2.23996,1.66702 4.27696,1.83702 2.26408,0.9138 4.48704,1.26849 6.88604,0.69555 3.09145,-0.88004 4.62187,-1.31875 5.61687,-1.35075 1.1455,1.3264 3.56011,-2.20035 4.50711,-2.04135 0.7,0.118 3.74909,-4.00409 3.62309,-4.69609 -0.276,-1.527 0.98144,-1.38742 0.66844,-2.90642 -0.102,-0.488 1.13068,-1.6936 1.20668,-2.2196 0.276,-1.862 0.49837,-0.64913 0.66137,-2.52713 0.029,-0.357 0.25557,-2.53359 0.26157,-2.89059 0.018,-1.051 -0.74155,-0.2528 -0.59955,-1.2858 0.116,-0.857 -1.14537,-0.67292 -0.20676,-2.66936 -0.14305,-0.73138 -0.57331,-2.74028 -0.63931,-2.92528 -0.405,-1.14 -0.46746,-0.77099 -0.11841,-1.98398 0.064,-0.219 -0.10526,-0.12813 -0.0783,-0.36313 0.082,-0.73 -1.35132,-1.3596 -0.55732,-1.9586 0.759,-0.573 -0.239,-0.614 -0.54,-0.867 0.226,-1.233 -0.52878,-0.82242 -0.62108,-1.96088 -1.27263,-1.64596 -2.03078,0.40712 -3.86171,-0.89369 -1.76533,-0.93968 -0.96259,-0.9962 -1.95841,-1.80276 -0.99076,-0.77196 -1.61397,-0.0204 -2.95849,-0.67403 -0.65058,-1.23517 -1.12285,0.44618 -2.96956,-0.90018 -1.42181,-0.84507 -2.42689,-1.30298 -6.67132,-0.11114 -1.02047,-0.85998 -3.59461,-0.10445 -5.14243,0.95576 -0.4623,0.35285 -1.06068,0.47953 -1.60569,0.68249 -0.687,-0.627 -2.77605,3.45489 -2.44405,2.81189 -0.79178,1.99516 -1.66531,2.229 -2.15159,2.88688 -0.2,-0.168 -1.33982,1.00595 -2.20618,2.65911 0.15971,3.66445 -1.23329,3.59453 -1.53135,5.55532"
       style="display:inline;fill:#231f20;fill-opacity:1;fill-rule:evenodd;stroke:none"
       id="path208"
       sodipodi:nodetypes="ccccscccccccccccccccccsccccccccccccsccccccccccsccccccccccccccccccccccccccccc" />
    <path
       d="m 364.919,500.994 c 1.449,-0.388 2.319,-0.8 2.745,-0.724 0.417,0.076 0.993,-0.257 1.244,-0.456 0.379,-0.299 0.588,-0.862 0.748,-1.353 0.036,-0.113 -0.39,-0.49 -0.654,-0.566 -1.34,-0.383 -2.712,-1.163 -4.043,-1.567 -0.686,-0.209 -1.268,-0.514 -1.033,-1.54 0.197,-0.871 0.01,-1.322 0.052,-2.235 0.018,-0.423 0.087,-0.892 0.294,-1.247 0.403,-0.693 0.423,-1.705 -0.073,-2.141 -0.637,-0.56 -1.58,-0.533 -2.268,0.026 -0.982,0.797 -1.977,1.575 -2.978,2.346 -0.361,0.28 -0.657,0.248 -0.976,-0.161 -0.434,-0.558 -0.948,-1.059 -1.465,-1.544 -0.182,-0.17 -0.487,-0.2 -0.713,-0.331 -0.259,-0.148 -0.475,-0.373 -0.74,-0.5 -0.661,-0.314 -1.32,-0.763 -2.012,-0.836 -0.684,-0.071 -1.243,0.372 -1.12,1.26 0.168,1.208 0.232,2.435 0.465,3.631 0.202,1.035 -0.068,1.758 -1.08,2.268 -0.508,0.256 -0.998,0.57 -1.534,0.745 -0.63,0.207 -1.296,0.341 -1.957,0.42 -1.192,0.141 -0.833,1.216 -1.126,1.876 -0.049,0.113 0.452,0.581 0.772,0.729 1.207,0.557 2.465,1.011 3.656,1.6 0.254,0.126 0.449,0.663 0.43,0.996 -0.122,2.114 -0.362,4.222 -0.433,6.337 -0.012,0.384 0.521,0.865 0.914,1.139 0.147,0.101 0.77,-0.179 0.915,-0.434 1.126,-1.972 2.991,-2.999 4.924,-3.927 1.567,-0.753 2.345,-0.299 2.896,1.482 0.223,0.716 1.673,1.686 1.831,1.888 0.492,0.634 1.16,0.706 1.493,0 0.303,-0.64 0.479,-1.443 0.396,-2.137 -0.111,-0.939 -0.276,-3.171 -0.34,-3.365 -0.414,-1.273 0.157,-1.79 0.77,-1.679"
       style="fill:#231f20;fill-opacity:1;fill-rule:evenodd;stroke:none"
       id="path232" />
  </g>
</svg>
