<svg viewBox="0 0 570 570" version="1.2" xmlns="http://www.w3.org/2000/svg"><path style="fill:#231f20;stroke:none" d="m150 243 28-10 34 45-62 18zm-216 49 88-20 1 59-80 19z"/><path style="fill:none;stroke:#231f20;stroke-width:5.85354;stroke-opacity:.896877" d="m42-4 89 136 22 33m125 174 23 31c3 3 36-14 47 6 7 13 6 50-35 65m-182 79C22 566 31 559-8 575"/><text x="219" y="175" transform="rotate(-20)"><tspan style="font-weight:700;font-size:28px;font-family:'Open Sans';fill:#231f20;fill-opacity:.897757;stroke:none" x="219" y="175">Freyastraße</tspan></text><text x="-76" y="537" transform="rotate(-23)"><tspan style="font-weight:700;font-size:28px;font-family:'Open Sans';fill:#231f20;fill-opacity:.897757;stroke:none" x="-76" y="537">Mitgaustraße</tspan></text><path style="fill:none;stroke:#231f20;stroke-width:5.85354;stroke-opacity:.896877" d="M582-33 423 25M258 84l-126 45m248 231-30 10"/><text x="261" y="465" transform="rotate(-17)"><tspan style="font-weight:700;font-size:28px;font-family:'Open Sans';fill:#231f20;fill-opacity:.897757;stroke:none" x="261" y="465">Wodanstraße</tspan></text><text x="234" y="-22" transform="rotate(55)"><tspan style="font-weight:700;font-size:28px;font-family:'Open Sans';fill:#231f20;fill-opacity:.897757;stroke:none" x="234" y="-22">Spargelstraße</tspan></text><g id="logo"><path style="fill:#fff" d="M21 188h130v160H21z"/><use href="#paletti-logo" x="26" y="178" width="120" height="183.2"/></g></svg>