<?xml version="1.0" encoding="UTF-8" standalone="no"?>
<svg
   width="570pt"
   height="570pt"
   viewBox="0 0 570 570"
   version="1.2"
   id="svg3361"
   sodipodi:docname="map.svg"
   inkscape:version="1.2.2 (732a01da63, 2022-12-09, custom)"
   xml:space="preserve"
   xmlns:inkscape="http://www.inkscape.org/namespaces/inkscape"
   xmlns:sodipodi="http://sodipodi.sourceforge.net/DTD/sodipodi-0.dtd"
   xmlns="http://www.w3.org/2000/svg"
   xmlns:svg="http://www.w3.org/2000/svg"><sodipodi:namedview
     id="namedview3363"
     pagecolor="#ffffff"
     bordercolor="#000000"
     borderopacity="0.25"
     inkscape:showpageshadow="2"
     inkscape:pageopacity="0.0"
     inkscape:pagecheckerboard="0"
     inkscape:deskcolor="#d1d1d1"
     inkscape:document-units="pt"
     showgrid="false"
     inkscape:zoom="1.2227477"
     inkscape:cx="221.22307"
     inkscape:cy="451.85119"
     inkscape:window-width="1850"
     inkscape:window-height="1016"
     inkscape:window-x="0"
     inkscape:window-y="0"
     inkscape:window-maximized="1"
     inkscape:current-layer="svg3361"><inkscape:grid
       type="xygrid"
       id="grid4199"
       originx="-475.45965"
       originy="0.7906884" /></sodipodi:namedview><defs
     id="defs986" /><path
     style="fill:#231f20;fill-opacity:1;stroke:none;stroke-width:5.85354;stroke-dasharray:23.4142, 5.85354;stroke-dashoffset:0;stroke-opacity:0.556863"
     d="m 149.76561,243.18502 28.58043,-9.92322 33.24577,44.98281 -61.6907,17.66609 z"
     id="path8264"
     sodipodi:nodetypes="ccccc" /><path
     style="fill:#231f20;fill-opacity:1;stroke:none;stroke-width:5.85354;stroke-dasharray:23.4142, 5.85354;stroke-dashoffset:0;stroke-opacity:0.556863"
     d="m -65.785636,292.3275 87.644003,-19.99091 0.917984,58.40805 -79.359004,19.46272 z"
     id="path8262"
     sodipodi:nodetypes="ccccc" /><path
     style="fill:none;stroke:#231f20;stroke-width:5.85354;stroke-dasharray:none;stroke-dashoffset:0;stroke-opacity:0.896877"
     d="M 41.521037,-4.044108 130.91291,131.93294 152.86537,164.591 m 125.42794,173.96401 c 0,0 19.74413,27.23759 22.58973,30.95921 2.8456,3.72162 36.30244,-13.38476 46.86192,6.565 7.05793,13.33437 6.076,49.75886 -34.61247,65.41884 M 130.93375,519.86327 C 21.69472,565.88115 30.861766,558.67982 -8.377714,574.90278"
     id="path3574"
     sodipodi:nodetypes="cccczsccc" /><text
     xml:space="preserve"
     style="font-weight:bold;font-size:28px;font-family:Rubik;-inkscape-font-specification:'Rubik Bold';fill:#231f20;fill-opacity:0.897757;stroke:#000000;stroke-width:5.85354;stroke-dasharray:23.4142, 5.85354;stroke-dashoffset:0;stroke-opacity:1"
     x="219.16971"
     y="174.58878"
     id="text4259-3"
     transform="rotate(-19.819283)"><tspan
       sodipodi:role="line"
       id="tspan4257-6"
       style="font-style:normal;font-variant:normal;font-weight:bold;font-stretch:normal;font-size:28px;font-family:'Open Sans';-inkscape-font-specification:'Open Sans Bold';fill:#231f20;fill-opacity:0.897757;stroke:none;stroke-width:5.85354;stroke-opacity:1"
       x="219.16971"
       y="174.58878">Freyastraße</tspan></text><text
     xml:space="preserve"
     style="font-weight:bold;font-size:28px;font-family:Rubik;-inkscape-font-specification:'Rubik Bold';fill:#231f20;fill-opacity:0.897757;stroke:#000000;stroke-width:5.85354;stroke-dasharray:23.4142, 5.85354;stroke-dashoffset:0;stroke-opacity:1"
     x="-75.78083"
     y="536.71362"
     id="text4259-3-3"
     transform="rotate(-23.316324)"><tspan
       sodipodi:role="line"
       id="tspan4257-6-5"
       style="font-style:normal;font-variant:normal;font-weight:bold;font-stretch:normal;font-size:28px;font-family:'Open Sans';-inkscape-font-specification:'Open Sans Bold';fill:#231f20;fill-opacity:0.897757;stroke:none;stroke-width:5.85354;stroke-opacity:1"
       x="-75.78083"
       y="536.71362">Mitgaustraße</tspan></text><path
     style="fill:none;stroke:#231f20;stroke-width:5.85354;stroke-dasharray:none;stroke-dashoffset:0;stroke-opacity:0.896877"
     d="M 581.51419,-33.160142 423.25689,24.968471 M 257.57992,83.98322 131.89708,129.47545"
     id="path4193"
     sodipodi:nodetypes="cccc" /><path
     style="fill:none;stroke:#231f20;stroke-width:5.85354;stroke-dasharray:none;stroke-dashoffset:0;stroke-opacity:0.896877"
     d="m 379.65785,360.35895 -29.5253,9.8465"
     id="path4203"
     sodipodi:nodetypes="cc" /><text
     xml:space="preserve"
     style="font-weight:bold;font-size:28px;font-family:Rubik;-inkscape-font-specification:'Rubik Bold';fill:#231f20;fill-opacity:0.897757;stroke:#000000;stroke-width:5.85354;stroke-dasharray:23.4142, 5.85354;stroke-dashoffset:0;stroke-opacity:1"
     x="261.19543"
     y="464.58319"
     id="text4259"
     transform="rotate(-16.978613)"><tspan
       sodipodi:role="line"
       id="tspan4257"
       style="font-style:normal;font-variant:normal;font-weight:bold;font-stretch:normal;font-size:28px;font-family:'Open Sans';-inkscape-font-specification:'Open Sans Bold';fill:#231f20;fill-opacity:0.897757;stroke:none;stroke-width:5.85354;stroke-opacity:1"
       x="261.19543"
       y="464.58319">Wodanstraße</tspan></text><text
     xml:space="preserve"
     style="font-weight:bold;font-size:28px;font-family:Rubik;-inkscape-font-specification:'Rubik Bold';fill:#231f20;fill-opacity:0.897757;stroke:#000000;stroke-width:5.85354;stroke-dasharray:23.4142, 5.85354;stroke-dashoffset:0;stroke-opacity:1"
     x="234.32639"
     y="-22.345478"
     id="text4259-7"
     transform="rotate(54.86619)"
     inkscape:transform-center-x="-17.103898"
     inkscape:transform-center-y="-0.59648926"><tspan
       sodipodi:role="line"
       id="tspan4257-5"
       style="font-style:normal;font-variant:normal;font-weight:bold;font-stretch:normal;font-size:28px;font-family:'Open Sans';-inkscape-font-specification:'Open Sans Bold';fill:#231f20;fill-opacity:0.897757;stroke:none;stroke-width:5.85354;stroke-opacity:1"
       x="234.32639"
       y="-22.345478">Spargelstraße</tspan></text><g
     style="clip-rule:evenodd;fill-rule:evenodd;stroke-linejoin:round;stroke-miterlimit:2"
     id="g4602"
     transform="matrix(0.12988865,0,0,0.14160121,24.535506,192.25648)"
     inkscape:label="logo"><rect
       style="clip-rule:evenodd;fill-rule:evenodd;stroke-linejoin:round;stroke-miterlimit:2;fill:#ffffff;fill-opacity:0.89775693;stroke:none;stroke-width:20.5131;stroke-dasharray:82.0522, 20.5131;stroke-dashoffset:0;stroke-opacity:0.896877"
       id="rect22871"
       width="130.03993"
       height="183.21709"
       x="20.484884"
       y="187.63977"
       ry="0"
       transform="matrix(7.6989019,0,0,7.0620864,-188.89646,-1357.7319)" /><path
       d="m 0,-263.6 0.6,-1.1 -1.3,0.2 0.7,0.9 m 116.5,-6.1 1.4,-0.8 c -1.2,-0.3 -1.3,-0.3 -1.4,0.8 m 57,60.2 -0.3,-0.2 -0.7,1 0.4,0.3 0.6,-1 M 99,-254 l 1.4,-0.2 c -0.5,-0.4 -1,-1 -1.4,0.2 m -122,161.3 0.8,1.5 0.4,-0.9 -1.2,-0.6 m 46.4,-136 -1.2,0.2 -0.2,0.3 0.8,0.6 0.6,-1.1 m 143,-34.9 0.4,0.4 0.7,-0.7 -0.3,-0.4 -0.7,0.7 M -13.2,-55.4 h -1.2 l 1.4,1 -0.2,-1 m 127.2,-154 0.2,-0.3 -1.4,-0.8 c 0.2,0.6 0.4,1.2 1.2,1 m 58.2,-62.3 0.2,0.3 c 0.4,0 1,0.4 1.1,-0.8 l -1.3,0.5 m -85.7,73 0.1,0.4 1.6,-0.3 v -0.4 l -1.7,0.2 m 22.3,5 0.2,-0.2 c -0.2,-0.2 -0.4,-0.4 -0.6,-0.4 l -0.8,0.3 v 0.3 h 1.2 M -16.4,-84.4 v -0.5 c -0.5,0 -0.9,0.2 -1.3,0.3 v 0.4 l 1.3,-0.2 M 161.4,-191 c -0.7,0 -0.7,0.6 0,2 v -2 m -180.5,100 -0.2,0.3 c 0.2,0.7 1.1,0 1.5,0.7 l 0.1,-0.4 -1.4,-0.6 m 202.3,-158.3 0.2,-0.2 -1.3,-0.8 c 0,1 0.5,1.2 1.1,1 m -196,106.7 v -0.3 h -1.8 v 0.5 l 1.8,-0.2 m 123.6,-67.7 0.3,0.4 0.7,-0.6 -0.4,-0.6 -0.6,0.8 m 63.7,3.6 v 0.5 l 1,0.2 0.3,-0.6 h -1.3 m -57.3,7.2 -0.2,-0.2 c -1.3,0.5 -1.3,0.5 -1.3,1.2 l 1.5,-1 m -4,-6.3 0.2,-0.4 -0.7,-0.7 c -0.1,0.3 -0.4,0.6 -0.3,0.7 l 0.8,0.4 m 50.2,202.8 0.3,-0.1 -0.5,-1 -1,0.2 c 0.6,0.4 1,0.7 1.2,1 m -82,-265 h 1 v -1 h -0.3 l -0.7,1 m 34.5,89 h -0.6 c 0,0.3 0,0.7 -0.2,1.1 h 0.6 l 0.2,-1 m 27.7,-46 0.3,0.4 0.9,-0.4 -0.4,-0.6 -0.8,0.6 m -5.5,-2 v 0.4 l 0.8,0.4 h 0.3 l -0.2,-1 -0.9,0.2 M -9.1,-42.2 c -0.2,-0.5 -0.2,-0.9 -0.4,-1.1 -0.1,-0.2 -0.5,-0.2 -0.7,-0.2 v 0.5 l 1.1,0.8 m 186.3,-217.4 1.5,0.6 c -0.7,-1 -1,-1.2 -1.5,-0.6 M 8,-49.4 c 1,0.7 1.4,0.7 1.8,0 H 7.9 m 154.6,-150.8 v -0.3 c -0.3,0 -0.6,-0.2 -1,-0.1 l -0.3,0.7 0.2,0.2 1.1,-0.5 m -178.6,21 c -1,-0.4 -1.6,0 -1.5,0.8 l 1.5,-0.9 m 127.4,-24.3 v 0.3 l 1.5,-0.4 v -0.3 c -0.7,-0.4 -1.1,0 -1.5,0.4 M -11.5,-133 c 1.5,0.6 1.5,0.6 1.8,-0.1 h -1.8 m 192,-73.7 v 0.2 l 0.6,0.4 0.7,0.3 0.2,-0.3 a 2,2 0 0 0 -0.6,-0.5 l -0.8,-0.1 M 85.4,-251 v 0.3 c 1,0.4 1.1,0.3 1.5,-0.3 h -1.5 m 100.8,22.1 -0.5,-0.6 -1.3,0.3 v 0.3 h 1.8 m -9.4,36.6 -0.3,0.3 1.4,0.9 0.3,-0.4 -1.4,-0.8 m -198.5,91.3 -1,1 1,0.6 v -1.6 m 177.1,-80 1,1.5 0.3,-1 -1.3,-0.4 m -103,23.9 -0.6,-1.3 h -0.3 l -0.1,1.2 1,0.1 m 122.3,-112.4 -0.2,-0.2 -1,0.7 0.9,0.5 0.3,-1 M 153,-9 l 0.2,0.1 0.5,-1 -0.7,-0.4 -0.8,1 1,-0.4 -0.2,0.7 m 14.5,-172.8 c -0.2,-0.5 -0.3,-1 -0.6,-1.3 l -1,0.3 1.6,1 m 0.3,-78.2 -0.3,0.2 c 0.3,0.2 0.5,0.6 0.8,0.7 0.1,0.1 0.5,-0.1 1,-0.3 l -1.6,-0.6 m -165.2,9.5 -1.2,1.6 c 1.4,-0.5 1.6,-0.8 1.2,-1.6 m 102.8,20.1 0.1,-0.2 -0.8,-0.8 0.2,0.4 -0.9,0.7 -0.2,-0.1 h 1.6 m 78.8,11.8 c -0.4,1 -0.2,2 0.6,2.2 l -0.6,-2.2 m -85,2.9 0.2,-0.3 c -0.2,-0.2 -0.5,-0.5 -0.7,-0.5 -0.3,0 -0.6,0.3 -0.9,0.5 l 0.1,0.3 z m 61,1 -1.1,-0.6 c -0.2,0 -0.5,0 -0.7,0.2 v 0.3 l 0.5,0.2 h 1.3 M -18.8,-82 l 0.5,-0.7 c 0,-0.3 -0.3,-0.5 -0.4,-0.7 -0.2,0.2 -0.5,0.3 -0.5,0.5 l 0.3,1 m 3.2,-58 -1,0.5 0.5,1.3 0.5,-1.7 m 131,136.2 c 0.2,-0.4 0.5,-0.6 0.4,-0.7 l -0.6,-0.8 -0.4,0.4 c 0,0.3 0.3,0.6 0.5,1 m 60,-269.6 -0.1,-0.2 -1.1,0.7 v 0.6 l 0.6,-0.2 0.5,-0.9 m -35,260.4 -1.4,-1.3 -0.2,0.2 c 0.4,0.4 0.3,1.6 1.6,1 m -148,-122.5 0.8,-0.6 -0.6,-1.1 c -0.7,0.4 -0.2,1 -0.3,1.7 M 165,-8 l 1.6,0.8 c 0.1,-1 -0.4,-1.2 -1.7,-0.8 M -24,-32.6 l -0.1,-0.3 h -1 v 1.3 l 1,-1 m 6.2,-92.6 -1.4,-1.1 c -0.3,1 -0.2,1 1.4,1.1 m 205.6,-33.5 c 1,0.7 1.4,0.5 1.6,-0.6 l -1.6,0.6 m -17.2,-39.6 v -0.3 c -1,-0.5 -1.2,-0.4 -1.8,0.6 l 1.8,-0.3 M -13.3,-0.7 c 1,-1 1.5,0.8 2.5,0.2 -1.5,-0.9 -2,-1 -2.5,-0.2 m 193.8,-188.3 2.3,0.5 c -1,-1 -1.4,-1.1 -2.3,-0.5 m -89.1,-71.1 -0.1,-0.6 v -0.1 l 0.9,-0.1 v -0.3 h -2 v 0.3 l 1.2,0.8 m 95.8,-9.8 -1.7,0.2 1.3,1 0.4,-1.2 m -204.1,172.1 0.7,1 1,-1.4 -1.7,0.4 m 127.1,-171.7 0.1,-0.1 c -0.3,-0.2 -0.5,-0.6 -0.8,-0.6 -0.3,0 -0.5,0.3 -0.8,0.5 v 0.2 h 1.5 m -5.3,12.9 0.3,0.6 0.3,-0.2 -0.4,-1.2 -1.4,0.2 v 0.2 l 1.2,0.4 m 51.8,61.9 0.5,-1.3 h -1 c 0,0 -0.3,0.4 -0.2,0.5 0,0.3 0.4,0.5 0.7,0.8 m 29.2,-11.7 -0.1,-0.2 c -0.4,0 -0.9,0 -1,0.3 -0.2,0.3 0,0.7 0,1 l 0.3,0.2 0.8,-1.3 m -41.8,-7.3 c -0.8,-0.7 -1.6,-0.5 -2.6,0.3 l 2.6,-0.3 M 96.8,-254 c -0.1,1.7 0.2,2 1.2,1.6 l -0.9,-0.3 0.3,-1 -0.6,-0.3 M -19,-98.3 c 0.8,0.5 1.2,0.3 1.4,-0.2 l -0.4,-0.8 -1,1 m 182,-87.8 c -0.7,0 -1.2,0.1 -1.6,0 -0.8,-0.4 -0.8,0 -0.9,0.4 h 1.5 l 0.1,0.8 0.9,-1.2 m -9.2,70.6 0.2,0.1 0.9,-1 -0.2,-0.7 -0.6,0.5 -0.3,1.1 m -5.5,-109.1 c -1.3,0 -2.1,0.5 -2.3,1.4 l 2.3,-1.4 M 78.4,-205 c 0.2,0 0.6,0 0.7,-0.2 l 0.7,-1.1 -0.6,-0.3 -0.8,1.6 m -103,82.5 c 0.4,1 1,0.2 1.4,0.3 l 0.4,-0.4 -0.1,-0.2 -1.8,0.3 m 208.4,-124 -0.4,0.6 v 0.1 l 1.2,-0.7 v -0.2 l -1.8,-0.3 -0.1,0.3 1,0.2 M -24.2,-12.9 c 0,0.6 -0.2,1 -0.3,1.5 l 1.4,-0.5 v -0.3 l -1,-0.7 m 207.8,-174.5 c 0.7,0 1.3,0.7 2,-0.3 l -2,-0.4 v 0.7 M 2.4,-255.7 2,-254.5 v 0.4 h 0.6 c 0.2,-0.1 0.5,-0.4 0.4,-0.5 0,-0.4 -0.3,-0.7 -0.6,-1.1 m 123.3,0 0.7,-2.3 c -1,0.1 -0.7,1 -1.2,1.4 l 0.5,0.9 m 62.1,-19.3 -1.5,-0.8 c 0,0.2 -0.3,0.4 -0.3,0.7 l 0.3,0.3 1.5,-0.2 m -52.8,70.3 c -1.2,-0.5 -1.3,-0.5 -2.7,0.8 l 2.7,-0.8 m 48.5,13.6 2.9,0.2 c -1.1,-1 -1.5,-1 -2.9,-0.2 m -205.9,92.8 0.1,0.4 c 0.7,-0.5 1.8,-0.2 2.3,-1.4 l -2.4,1 m 206.5,-123 -2,-0.3 v 0.2 c 0.4,0.4 1,0.7 1.5,1 l 0.5,-1 M -24,-69.3 l 0.4,0.2 0.7,-1 c -0.3,-0.1 -0.7,-0.3 -0.8,-0.2 l -0.4,1 m 2.2,63 c -1,-0.7 -1.3,-0.7 -2,0.2 0.3,0.1 0.4,0.3 0.5,0.4 l 1.5,-0.6 m 184.9,-206 c 0.5,0.5 0.8,1 1.2,1 0.4,0.1 0.8,-0.3 1.3,-0.5 l -2.5,-0.5 m -185.3,121.9 -1.3,1.5 c 1.4,0 1.5,-0.2 1.3,-1.5 m 200.5,-181.8 -1,-1.4 -0.6,1.6 1.6,-0.2 m 5.6,43.4 -0.1,-0.5 -1.9,0.3 -0.3,0.4 0.2,0.3 2,-0.5 m 3.7,45.2 c 0,1.2 1.1,2.4 1.9,2.2 l -1.9,-2.2 m -53,-11.3 1,-1.8 -0.2,-0.2 -1.4,0.7 0.6,1.3 m -151.9,171.4 -0.2,0.5 1.2,0.7 0.4,-0.7 -1.4,-0.5 m 167.2,-244.4 c -0.5,-1.2 -1.3,-1.3 -2.2,-0.5 l 2.2,0.5 m -54.1,69.2 c -1.9,0 -1.9,0 -1.9,0.8 1.2,0 1.6,-0.1 1.9,-0.8 m -114.1,198 -0.1,0.5 2.3,0.6 0.2,-0.5 -2.4,-0.6 m 1.6,-142 v -1 l 0.6,0.3 0.2,-0.2 c -0.2,-0.2 -0.3,-0.4 -0.5,-0.4 -0.6,0 -1.2,0.2 -1.9,0.4 l 1.6,0.9 m 152.7,-39.6 0.4,-0.2 -0.3,-1.8 -1,1.3 1,0.7 m -147.6,104.5 1,0.7 0.6,-1 h -0.8 v -0.6 l -0.2,-0.1 -0.6,1 M -22.2,-9 c 0.3,-1.2 0.3,-1.2 -1.6,-1 0,1.4 0.7,0.1 1,0.2 l 0.6,0.8 m 134,-218.2 c -0.8,-0.8 -1.2,-0.3 -1.6,0.2 l 0.6,1.1 c 0.4,-0.5 0.6,-1 1,-1.3 m -0.5,19.6 -1.7,1 c 1.3,0.9 1.5,0.8 1.7,-1 M 122,-5.4 121.4,-6.7 h -0.5 l -0.2,1.4 h 1.3 m 8.5,-256.8 c 1,-0.6 -0.3,-2.2 1.3,-2.3 -0.5,0 -1.2,0.1 -1.3,0.5 -0.3,0.5 0,1.1 0,1.8 m -19.5,84.2 -1,0.5 -0.2,1 0.4,0.2 0.6,-0.8 0.5,-0.1 -0.3,-0.8 m 2.2,-5.2 v -2.4 c -1,0.6 -1,0.7 0,2.4 m -24.2,-77 -0.1,-0.4 -1.9,-0.1 0.7,1.3 1.3,-0.8 m 12.1,12 0.3,-0.2 -0.5,-1.3 v -0.5 h -0.1 l -0.8,1 1.1,1 m 69.7,-8.7 -1.3,-1.4 -0.7,-0.4 c 0.9,1.8 1.2,2 2,1.8 M 1.5,-235.6 c -0.7,-0.6 -1.4,-0.2 -2.1,0 0.5,0.9 0.9,0.9 2.1,0 m -18.7,103.4 0.3,-0.1 0.3,-1.1 -1.4,-0.3 -0.2,0.3 1,1.2 m -7.3,-37.2 c -0.4,0.7 -0.3,1.2 0.3,1.4 0.3,0 0.7,-0.2 1.1,-0.4 v -0.3 l -1.4,-0.7 M 166,-212.8 c 0.3,-0.2 0.3,-0.6 -0.1,-1 -0.6,-0.6 -1.2,-0.3 -1.9,0 l 2,1 m -75,-1 c -1,-0.7 -1.8,-0.3 -2.3,1 l 2.4,-1 m 92.3,47 -0.9,-0.4 c -0.2,-0.1 -0.5,-0.3 -0.6,-0.2 -0.8,0.7 0.8,0.8 0.3,1.4 h 0.6 l 0.6,-0.7 m -69,-33 0.1,0.2 0.7,-0.7 c -0.3,-0.4 -0.6,-0.9 -1,-1.2 l -1,0.3 0.1,0.3 c 1,-0.1 1.4,0.1 1,1.1 m -19.7,20.1 c -1,0 -1.1,-0.5 -1,-1 l -1.6,-0.2 c 1.3,1.5 2,1.9 2.6,1.2 m 19.6,-19.2 c 0.1,1.3 -1.3,0.7 -1.5,1.4 0.7,0.6 0.9,0 1.1,-0.4 l 0.1,0.3 1.2,-0.4 -0.9,-1 M 169,-186 h 2.4 l -0.7,-0.8 c -0.5,-0.5 -1.8,0.3 -1.7,0.8 M 6.3,-22.7 6,-22.4 l 0.2,2 0.7,-0.4 0.2,-0.1 c -0.8,-0.6 -0.8,-0.6 -0.3,-1.2 l 0.6,0.3 0.1,-0.3 -1.2,-0.6 m 123.5,-138 -0.3,-0.2 c -0.6,0 -1.2,0 -1.3,0.8 0,0.2 0.4,0.5 0.6,0.7 l 1,-1.3 m -40.2,-100.8 0.2,-0.2 c -1.6,-1.2 0.3,-1.2 0.6,-1.8 -1.1,0 -1.6,0.8 -2.4,1.5 l 1.6,0.5 m 6,68.7 1,1.5 1,-1.7 -2,0.2 m 29.6,184.1 -0.4,0.2 0.7,1.7 -0.4,0.2 1.5,0.5 -1.4,-2.6 m 51.4,-196 c 0.2,0 0.8,-0.1 0.8,-0.3 0.1,-0.4 0,-0.9 -0.2,-1.4 l -1.1,0.4 0.5,1.4 m -2.4,14.5 -0.3,0.4 1,1.4 c 0.2,-0.3 0.6,-0.9 0.5,-1 l -1.2,-0.8 m 0.9,5 0.4,-1.1 -0.4,-1 -0.6,-0.3 -0.2,0.4 c 0,0.2 0,0.4 0.2,0.5 l 0.5,0.3 c -1.1,0.5 -0.1,0.8 0,1.1 m -98,-10.2 -1.6,-0.4 -0.7,0.4 c 0,0.2 0.2,0.5 0.3,0.5 h 1.7 l 0.4,-0.5 m -98,136.5 c -0.9,0 -1.8,-0.9 -2.3,0.4 0.8,0.5 1.6,0.8 2.2,-0.4 m 131.5,-207.9 c 0.2,-1.6 -0.2,-2.1 -1.2,-1.8 0.5,0.5 -0.2,1.8 1.2,1.8 m 38,55 1.1,0.6 0.3,-1 v -1.2 l -1.4,1.6 M 120.8,2.3 c -0.3,-0.6 -0.5,-1.2 -0.9,-1.7 0,-0.1 -0.5,0 -0.8,0 0,1 0.3,1.7 1.7,1.7 m -8.2,-197.2 v -0.2 l -2,0.4 -0.7,0.2 v 0.5 c 0.3,0 0.7,0.3 1,0.2 l 1.7,-1 m -133.8,100.5 -0.6,0.2 -0.8,-1.1 -0.3,0.6 c 0,0.1 0.3,0.5 0.6,0.5 l 1.1,-0.2 m 9,-44.7 -0.2,-0.3 -2.8,1.2 v 0.3 c 0.4,0 0.9,0 1,-0.2 0.5,-0.6 1.1,-0.4 1.7,-0.1 l 0.3,-0.9 m 172.6,-43.8 -0.2,3.1 0.5,0.3 v -2.4 l 1,-0.3 -1.3,-0.7 M 81,-206 c 0.8,0.2 0.8,0.2 1.3,-0.9 0,-0.2 0.1,-0.5 0,-0.8 0,0 -0.5,-0.2 -0.6,0 -0.2,0 -0.3,0.4 -0.4,0.6 0,0.4 -0.2,0.7 -0.3,1.1 M 117.1,-7 117,-8.5 c 0,-0.2 -0.2,-0.4 -0.4,-0.6 -0.1,0.2 -0.4,0.3 -0.4,0.5 L 116,-7 117,-7.2 M 78.3,-207.5 c -0.2,-0.3 -0.3,-0.8 -0.6,-1.1 -0.2,-0.2 -0.6,-0.2 -1,-0.2 0,0.2 -0.2,0.6 0,0.7 0.4,0.4 0.7,1 1.6,0.6 m 84.9,196 c 1,0.8 0.5,1.1 0,1.6 l 2.8,-1.3 -2.8,-0.2 m 8,-173.4 c 1,0 1,-0.1 1.5,-1.5 1.1,0.3 1.1,0.3 1.5,-0.2 -1.3,-0.6 -2.6,0.2 -3,1.7 m -55.2,-83 -0.5,-0.7 c 0,-0.2 -0.2,-0.3 -0.3,-0.5 l -0.5,0.4 -0.6,1.4 0.2,0.2 1.7,-0.8 M 122.3,6.2 122,6 121.2,6.8 h -0.6 V 7 l 0.7,0.4 h -0.1 c 0,0.4 0.2,0.8 0.4,1.1 h 0.3 l 0.4,-2.3 m -146.5,-16 -0.4,1.6 c 0,0.2 0.3,0.5 0.4,0.5 l 1.9,-0.3 v -0.4 c -0.3,0 -0.6,-0.2 -0.8,-0.1 -0.6,0.2 -0.9,0 -1,-0.6 l -0.1,-0.7 m 193,11.5 v 2.8 l 0.8,-0.3 c 0.2,-0.2 0.4,-1.4 0.5,-1.7 0,-0.2 0,-0.6 -0.2,-0.6 -0.3,-0.2 -0.7,-0.2 -1.2,-0.2 m -15.8,-269.8 c 0.3,0.2 0.5,0.5 0.8,0.6 l 1.1,0.2 c 0.5,-0.1 0.6,-0.5 0.1,-0.8 -0.6,-0.4 -1.3,-0.9 -2,0 M -24,-103.7 c -0.8,-0.2 -0.8,0.5 -1,1 -0.2,0.2 -0.2,0.6 0,0.7 l 0.8,0.2 0.3,-0.7 v -1.2 m 203.8,-44.6 c -0.8,-1.8 -0.8,-1.8 -2,-1.2 0.7,1.3 0.8,1.3 2,1.2 m -19,-64.6 1.5,1 0.6,-2.2 -2.2,1.2 m -87.5,11.7 1,0.5 c 0.4,-0.2 0.6,-0.4 0.9,-0.4 h 1.6 v -0.4 c -1.1,0.2 -2.3,-0.8 -3.5,0.3 m 14.2,-66.3 0.6,1 c 0.7,-1.1 0.8,-1.1 2.2,-0.3 -0.3,-0.5 -0.6,-1.3 -1,-1.3 -0.5,-0.1 -1.1,0.4 -1.8,0.6 m 9.1,70 c -0.8,-0.7 -2.4,0 -2.8,1 l 0.1,0.4 h 0.5 l 2.2,-1.4 m 44.4,-27 c -0.3,0.4 -0.8,1 0,1.3 0.6,0.2 1.4,0 1.9,0 -0.2,-0.3 -0.2,-0.8 -0.5,-1 -0.3,-0.2 -0.8,-0.2 -1.3,-0.3 H 141 m 34.3,41.6 -1,0.4 0.2,0.2 c 0.5,-0.5 2,0.2 1.6,-1.5 l 1.1,0.5 h 0.3 l -0.7,-1.5 h -0.3 l -1.2,2 m -40.7,-77.2 -0.3,-0.7 c -0.4,-0.4 -1,-0.6 -1,-1 -0.2,-0.2 0.4,-0.6 0.6,-1 -1.2,0.3 -1.4,0.6 -1.2,1.4 0.1,0.8 1,1.4 1.9,1.3 m 24.2,-7.3 v 0.4 c 0.5,-0.1 1.3,0 1.5,-0.3 0.6,-1 1.6,-1 2.4,-1.5 -1.7,-0.6 -2.6,1.1 -4,1.4 m -63.5,-1.9 1.1,-1.3 c -1.7,-0.5 -1.7,-0.5 -2.1,0.2 0.7,0.6 1.1,1.7 2.3,1.6 l 0.1,-0.2 -1.4,-0.3 m -1,74.3 -0.1,1.5 c 0.5,0 1.2,0.4 1.6,0.1 0.5,-0.2 0.6,-1 0.9,-1.5 h -0.2 c -0.2,0.2 -0.5,0.5 -0.6,0.8 l -1.6,-0.9 M 94,-223.5 c 0,-0.7 -0.3,-1.2 0,-1.6 0.1,-0.4 0.6,-0.7 1,-1 v -0.2 l -2,0.7 0.4,1.3 h -1.2 v 0.3 l 1.8,0.5 m 37.5,28.9 h 1 c 0.3,0 0.6,0.2 1,0.4 -0.9,-1.8 -1.4,-2 -2.4,-1.5 l 0.4,1 m 53.1,17.8 c -0.1,-1 -0.4,-1.4 -1.3,-1 -0.6,0.2 -1.3,0.2 -1.9,0.3 l -0.2,0.3 0.3,0.3 h 3.1 m -15.5,-41 c 1,0 1.1,-0.5 1,-1.2 -0.1,-0.6 -0.8,-1.2 -1.4,-1 -0.3,0.1 -0.4,0.6 -0.6,1 l 1,0.1 v 1.1 m -185.6,100.8 c 0.6,0.9 0.7,0.9 1.4,0.2 1.2,0.2 1.2,1.2 1.5,2.1 v -3.1 l -1,0.8 v -0.2 l -1.9,0.2 M 132.2,-212 c -0.4,1.8 -0.4,1.8 1,2.5 v -2.1 l -0.1,-0.1 -0.9,-0.3 m 10.4,-6.6 1.4,0.3 c 0.5,0 0.8,0 0.6,-0.5 v -1 l -1.1,-0.2 -0.2,1 -0.8,-0.8 v -0.5 l -0.4,0.1 0.5,1.6 m -62.5,23.5 1.3,-2.3 c -0.8,0.6 -1.8,-0.7 -2.2,0.7 l 0.9,1.6 m 31.6,-74 0.3,-1 -1.3,0.6 1.4,0.9 1.1,2.2 c 0.8,-1 -1,-1.7 0.3,-2.5 l -0.2,-0.1 h -1.6 m 29,53.8 0.4,-0.8 c -0.5,-1 0,-1.5 0.8,-1.9 -0.3,-0.6 -1,-0.8 -1.4,-0.4 -0.4,0.6 -0.4,2.3 0.1,3.1 m -28.6,5.5 c -1.2,0 -1.2,1.8 -2.5,1.1 v 0.9 l 0.1,0.4 0.4,-0.1 c 0.4,-1 1,-0.6 1.7,-0.3 l 0.3,-2 m 48.5,33.4 c 0.6,-0.6 1.2,-1.1 0.7,-2 l -1.4,0.5 -0.5,-1.2 H 159 v 1.7 c 0.8,0 0.8,0 1.5,1 m -8.1,-91 -0.5,-0.1 H 151 v 1.9 c -0.2,0.6 0.1,0.8 0.7,0.7 l 0.7,-2.5 m 35.6,-4.4 -1.2,-0.8 c 0,1 -0.6,1.2 -1.6,0.9 -0.2,0.9 0.7,1.4 2.5,1.2 l -0.5,-0.5 h -0.6 v -0.2 l 1.4,-0.6 m -186.3,18 -0.2,0.2 0.5,1.7 c 0,0.5 0.2,0.7 0.7,0.5 l 0.8,-0.1 v -1 l -1.8,-1.4 m 98.7,41.8 -0.7,-1 c -0.2,-0.6 0,-1.2 -0.2,-1.7 0,-0.2 -0.3,-0.4 -0.5,-0.6 -0.1,0.2 -0.4,0.4 -0.4,0.7 0,0.6 0,1.1 0.2,1.7 0.1,0.8 0.8,1.1 1.6,1 m -122.2,78.2 c 0.1,-0.2 0.5,-0.7 0.4,-0.8 -0.4,-0.4 -0.8,-0.8 -1.3,-1 -0.4,0 -1,0 -1,0.7 -0.1,0.6 0.6,1 2,1 m -1.7,8.5 1.2,-1 -0.5,-1 c -0.5,0.5 -0.7,1.5 -1.7,1.1 l -0.6,0.9 -0.7,1 1,0.1 c 0.4,-0.5 0.5,-1 0.7,-1.6 l 0.6,0.5 m 121.5,-76 v 0.2 l 0.6,0.2 c -0.9,0.4 -0.7,1 -0.5,1.6 0,0.1 0.5,0.3 0.6,0.2 l 2,-1.3 -0.6,-0.2 -0.8,0.1 0.2,-1 -1.5,0.3 M -12,-139.8 c 0.3,0.5 0.6,1 0.7,1.6 0.3,1 0.7,0.7 1,0.4 l 0.1,-2.2 c -0.6,0.2 -1.4,-1.2 -1.8,0.2 M 185.5,-215 h -0.8 c -0.2,0.9 -0.1,1.6 1,1.7 l 0.2,0.5 c -0.6,-0.2 -1.1,-0.4 -1.7,-0.4 l -0.4,0.6 c 0.1,0.1 0.3,0.4 0.5,0.4 l 1.5,-0.2 c 0.3,0 0.5,-0.3 0.8,-0.5 l -0.6,-0.7 c -0.5,-0.3 -0.8,-0.7 -0.5,-1.4 M 0.3,-7 0.5,-8 1.2,-7.6 1.4,-8.5 c -0.9,-0.7 -1.8,-0.8 -2.7,-0.2 0,1.4 0.2,1.5 1.6,1.8 m 166,-255.9 -0.1,0.3 c 2.2,2.5 2.2,2.5 2.8,1.7 l -0.7,-0.6 0.1,-0.3 1,0.4 0.6,-0.2 c -0.1,-0.2 -0.1,-0.5 -0.3,-0.6 l -1.4,-0.3 -0.6,1 -0.2,-0.1 v -1 l -1.3,-0.3 m 2.7,78 -1.1,1.4 h 0.9 v 0.5 l 1.7,0.3 v -0.2 l -0.6,-0.3 v -0.1 l 2.2,0.2 -0.3,-0.5 c -0.3,-0.6 -0.3,-1.2 -1.3,-0.6 -1,0.6 -1.6,0.3 -1.5,-0.7 m -75,-70.8 c -0.6,1 -2.3,0.5 -2.8,1.9 0.5,0.3 0.9,0.8 1.5,0.2 h 0.3 l 1,-0.2 c -0.1,-0.6 1.1,-1.2 0,-2 m -118.4,185.5 0.2,-0.4 c -1.2,-1 0,-1.7 0,-2.6 l 0.1,-0.3 -0.3,-0.6 h -1.2 c 0,0.2 -0.1,0.5 0,0.8 0.3,1 0.4,2 -0.3,3 l 1.5,0.1 m 140.3,76 -1.5,-1.3 -0.6,0.7 1,0.6 h -1.5 l 1,1.8 1,-1.1 c 0.1,-0.2 0.4,0 0.6,0 0.3,0 0.6,-0.1 0.8,-0.3 0.3,-0.3 -0.1,-1.4 -0.6,-1.3 l -0.2,1 M -14.8,-124.8 c 0.5,1 0.8,1 1.3,0.5 l 1.2,-1.3 -1,-0.4 0.8,-0.6 -0.1,-0.2 -1.8,0.2 0.6,1.4 -0.9,-0.5 c -0.4,0 -0.8,0.1 -1,0.3 -0.4,0.5 0,0.8 1,0.6 m 128.5,-130.7 h 1.1 c 0.9,0 1.8,0.5 2.6,-0.1 0.1,-0.1 0.5,0.1 0.7,0.1 h 0.6 l -1,-1.2 c -1.2,1 -1.9,1 -2.7,0.5 l 0.7,-1 -1,0.2 v -0.3 l -1.2,-0.8 -0.1,0.2 0.5,1 -0.8,0.5 0.6,0.9 m -1.4,74.5 -0.2,-0.2 0.7,-0.6 -0.3,-1 -1.3,0.8 -0.2,-0.8 -3,-0.2 0.3,1.3 h 0.3 l 0.3,-0.6 c 1.8,-0.3 1.8,1.6 3,2.2 l 2,-1 -0.2,-0.3 -1.4,0.4 m -135,44.8 2.6,0.8 c 0.4,0.5 0.9,0.6 1.6,-0.2 l 0.1,0.3 h 0.2 c 0,-0.5 0,-1 -0.2,-1.7 l -1.1,0.9 -1,-1.5 c -0.4,-0.2 -0.9,0 -1.3,-0.1 -1,0 -1.1,0.1 -0.8,1 v 0.5 m 156.7,-76.4 c 0.3,-0.8 0.3,-0.8 1.2,-1 0.7,-0.2 1,-0.9 1,-1.5 0,-0.5 -0.4,-1 -1.2,-1 l -0.7,-0.4 -1.2,0.7 c -0.5,0.3 -0.5,0.6 0,1 0.7,0.3 1,0 1.3,-0.7 l 0.7,1.1 c -1.8,0 -2.3,0.9 -1.7,2.4 0,0.2 0.5,0.5 0.8,0.6 0.2,0 0.4,-0.4 0.8,-0.6 l -1,-0.6 m -152,89.7 v 0.2 l -1.3,0.6 c -0.4,0 -0.8,0 -0.7,0.6 0,0.4 0,1 0.8,1 0.6,-0.1 1.1,0 1.7,0.1 0.5,0.1 0.8,0 0.9,-0.7 l -1,-0.2 c 0.4,-0.3 0.5,-0.7 0.8,-0.8 1,-0.4 1.3,-1 0.8,-2 -0.3,0.1 -0.5,0 -0.9,0.2 -0.5,0.5 -0.3,0.6 0,1 h -1.1 m 133,-143.9 -0.3,1.4 c 0,0.3 0.1,0.8 0.3,0.8 0.9,0 1.8,0.6 2.8,0 0.5,-0.4 0.8,-0.6 0.7,-1.3 0,-0.7 -0.2,-1.2 -1,-1.3 -0.3,0.5 -0.3,0.5 -2.6,0.4 m 61.5,55.8 -1,-0.2 c -0.4,0 -0.9,0.2 -1,0.5 -0.4,0.6 0.2,1.8 0.9,2.2 l 2.1,1.3 c 0.8,-1.2 2,-1.5 3.2,-2 l 2,-0.6 v -0.2 l -1.4,-0.7 c -0.6,0.4 -1,1 -1.5,1.4 -1,0.5 -2.3,1 -3.5,0.4 -0.5,-0.3 -1,-0.7 -1.2,-1.2 -0.1,-0.6 0.7,-0.5 1.1,-0.7 l 0.3,-0.2 m -14.1,56 v -0.3 l -0.2,-0.2 -0.4,-1.3 c 0.4,0 0.8,0 1.1,0.3 0.8,0.4 1.6,1 2.3,1.5 h 0.6 v -0.5 c -0.5,-0.4 -1,-0.8 -1.5,-1 -0.7,-0.3 -1,-0.6 -1.1,-1.3 l -0.3,-0.9 c -1.3,1 -1.4,-0.5 -2,-1 -0.7,0.6 -0.6,1.2 -0.2,1.8 0.1,0.2 0.4,0.7 0.3,0.8 -1,1 0.4,1.3 0.6,2 h 0.8 m -62.9,-27.3 -0.8,1.2 h 1 c 0.3,-1.1 1,-1.3 1.9,-0.7 0.8,0.7 1.8,0.3 2,-0.8 v -2 l -1,-0.1 -0.6,-0.2 -0.1,0.6 v 1.2 l -0.9,-0.8 -1,-0.5 -0.6,-0.6 -0.2,0.2 0.3,0.7 c -0.8,1 -0.8,1.3 0,1.8 m 12.4,-11.9 -0.3,0.2 c 0.7,0.5 0.8,1 0.1,1.3 -0.4,0.2 -1,0.4 -1.4,-0.2 -0.1,-0.2 -0.5,-0.2 -0.7,-0.2 l -0.3,0.2 0.6,0.6 h 0.6 l 0.7,0.2 v 0.2 c -0.5,0.3 -1.1,0.5 -1.6,0.6 v 1.1 c 0.4,0 1.4,0.7 1,-0.7 l 0.3,-0.3 c 0.1,0 0.3,0 0.3,0.2 l 0.7,1.7 -3.2,-0.2 0.4,0.5 c 0.8,0.1 1.7,0.2 2.6,0.1 0.7,0 1.5,0.3 1.8,1 0,0.3 0.4,0.5 0.6,0.7 0.2,-0.8 -0.7,-1.5 0.2,-1.9 0.6,-0.3 1.3,-0.1 2,-0.2 l -0.6,-0.6 c -0.7,0.8 -1.2,0.2 -1.7,-0.1 -0.5,-0.3 -1.4,0 -1.2,-1 l -0.2,-0.1 -0.5,-1 0.7,-0.5 1.6,-0.9 v -0.1 l -1.5,0.2 -1,-0.8 M -19.2,-85 l 0.3,-0.2 c -0.2,-0.4 -0.2,-0.9 -0.5,-1.2 -0.3,-0.6 -0.7,-0.4 -1.2,-0.2 -0.5,0.3 -0.8,0 -0.9,-0.5 0,-0.7 -0.5,-1 -1.2,-1 l -1,0.4 -0.4,-1 -0.2,0.3 -1,-0.4 c -0.7,0.7 -0.8,1.5 -0.2,2.4 v 0.7 c -0.2,0.7 0.3,1.3 1,1.1 0.8,-0.2 1.6,-0.4 2.2,-0.8 1.2,-0.8 2.1,-0.7 3,0.4 m 128.3,-174.4 0.1,-0.3 c 0.3,-0.9 0.5,-1 1.3,-0.4 0.1,0.2 0.4,0.1 0.5,0.1 l 0.2,-1.1 c -0.3,0 -0.8,0.3 -1,0.2 -0.8,-0.6 -1.6,-0.3 -2.4,0.3 -0.2,-0.4 -0.4,-0.8 -0.3,-1 0,-0.4 0.5,-0.6 0.8,-1 l -4.2,1.6 c 0.4,0.9 0.1,1.6 -0.4,2.2 -0.3,0.3 -0.2,0.8 -0.2,1.2 h 0.5 c 0,-0.3 0.2,-0.6 0.4,-1 l 0.6,-0.6 v 1.4 c 0.1,0.2 0.7,0.3 1,0.2 0.3,-0.2 0.4,-0.6 0.6,-1 0.2,-0.6 0.6,-0.7 1,-0.5 a 428.8,428.8 0 0 1 0.6,1.7 l 0.3,1 1,-0.6 c 0.4,0.2 0.9,0.7 1.3,0.6 0.5,0 1,-0.6 1.4,-1 0.4,-0.4 0.7,-0.9 0.3,-1.2 l -2,-0.3 -0.2,1 -1.3,-1.4 m -131.4,238 -0.5,1.3 3,0.6 V -20 l 2.1,0.4 c 0.4,-0.5 0.4,-0.5 -0.5,-1 l -1.7,0.2 1.2,-0.9 -0.6,-0.6 1,-1.2 c -0.4,-0.3 -1.3,-1.8 -1.1,-2.7 H -21 c -0.8,0.2 -1.5,0.2 -2,-1 v 0.8 l -1.6,-0.5 a 6603.5,6603.5 0 0 0 -0.2,2 c -0.1,0.4 -0.4,0.8 -0.4,1.2 v 1 l 0.3,0.7 2.5,0.2 m 0.1,-108.4 1.3,-0.2 v 1 c 0.1,0.5 1.1,2 1.7,2 0.4,0 0.7,-0.5 1,-0.8 0.2,0 0.2,-0.2 0.4,-0.4 0.3,1.5 0.5,1.6 1.6,1.3 l 0.4,1 0.4,-1.4 c -1.4,-0.6 0.3,-1.2 0.2,-2 l 0.7,-0.4 0.2,0.2 -0.2,0.8 c 1,0.5 1.2,-0.7 2,-0.8 l -0.7,-1.2 c 0.4,-0.3 1.2,-0.5 0.3,-1 l -0.4,0.4 -0.2,-2 -0.3,-0.2 c -0.2,0.2 -0.5,0.4 -0.6,0.7 -0.2,0.3 -0.2,1 -0.5,1 -0.8,0.3 -0.7,1 -0.8,1.6 -0.2,0.4 -0.2,0.9 -0.2,1.4 -0.9,-0.3 -2.1,0.3 -2.2,-1.3 l -1,0.8 -0.2,-2.4 -0.2,-1.1 c -0.3,0 -0.6,0.2 -0.8,0.3 -0.5,0.1 -0.9,0.5 -1.3,0 h -0.6 c -0.4,0.5 -0.7,0.5 -1,0 -0.1,-0.2 -0.5,-0.1 -0.7,-0.1 0,0.2 0,0.5 0.2,0.6 0.3,0.3 0.7,0.3 1.1,0.5 l 0.3,0.3 -0.8,0.2 v 0.6 l 1.4,-0.2 v 0.2 c 0,0.2 -0.2,0.3 -0.5,0.6 m 204.8,-135.8 c -0.6,1.2 0.4,1.3 0.9,1.8 -1,0 -1.2,0.5 -1.3,1.7 l 1,0.5 -1,0.3 c 0.1,0.7 0.6,1 1.1,0.8 0.6,-0.2 1.2,-0.3 1.2,-1.1 l 0.2,-1.2 1.2,0.3 1,-1 -1.2,-0.4 c -0.3,-0.1 -0.5,-0.2 -0.6,-0.4 l -0.4,-1.7 c 0,-0.3 0.4,-0.6 0.5,-0.9 l 0.7,0.5 1,1.2 -0.7,0.2 v 0.2 l 1.4,0.2 0.3,-1.2 v -0.5 h -0.5 l -0.8,0.3 -0.1,-2 c -0.4,0.2 -0.7,0.4 -1,0.4 h -2.8 l 0.3,-0.9 -1.7,-0.4 c 0.2,-0.7 -0.2,-0.8 -0.8,-0.7 h -0.7 c -0.2,0 -0.4,-0.2 -0.5,-0.3 0,-0.1 0.1,-0.4 0.3,-0.5 l 1.5,-0.8 1.9,-1.9 -0.3,-0.7 c -0.5,1 -1,1.6 -2,1.3 l -0.6,0.3 c -0.3,0.8 -0.7,1.2 -1.5,1.3 -0.6,0.1 -1.5,0 -1.6,1 -1.8,-0.4 -1.4,1 -1.6,1.8 l -0.6,-0.2 c -0.1,0.3 -0.2,0.7 -0.4,0.9 -0.6,0.4 -0.5,1 -0.2,1.4 0.1,0.1 0.7,-0.1 1.1,-0.2 h 0.7 l 0.3,0.5 -0.6,0.4 -0.6,0.1 -0.2,0.3 0.8,0.4 -1.6,1.6 1.4,1 0.5,-1 h 0.2 c 0,0.4 0,0.8 -0.2,1.1 -0.2,0.4 0,1.5 0.5,1.6 0.3,0 0.5,-0.5 0.8,-0.8 l 0.1,-0.3 -0.8,-0.1 v -0.3 l 1,-0.3 -0.5,-0.7 0.2,-0.2 c 0.3,0 0.5,-0.2 0.7,-0.4 l -0.1,-0.3 -0.7,0.2 h -0.5 l 0.1,-0.8 -0.8,-0.6 2.1,0.3 c -1.4,-0.9 -1.4,-0.9 -0.6,-1.9 l -2,-0.4 v -0.3 l 1.1,-0.5 c 0.2,0 0.5,0 0.5,-0.2 v -0.7 c 0,-0.2 0,-0.5 -0.2,-0.7 l 0.8,0.1 c 0.7,0.8 1.5,0.7 2.4,0.7 0.4,0 0.7,0 1,0.2 0.3,0 0.5,0.4 0.6,0.6 l 0.5,1.5 c 0.2,0.4 0.8,0.5 0.8,0 0.1,-0.7 0.7,-0.6 1.2,-1 v 2.4 l -1.7,-0.9 m -58.3,7.2 c 0.2,-0.4 0.3,-0.8 0.6,-1 0.3,-0.2 0.8,-0.2 1.2,-0.3 l -0.8,-1.8 0.3,-0.2 2.8,1.2 0.1,-0.5 -0.7,-0.4 v -0.3 l 0.8,-0.2 c 0.3,0 0.5,0.2 1,0.4 -0.6,-1 -0.6,-1.5 0,-2 l 0.6,-0.4 0.1,-0.6 -0.4,-0.2 -0.6,-0.2 0.3,-0.7 0.7,-1 c -1,-0.7 -1.6,-0.5 -2,0.3 l -0.6,0.3 v -0.6 l 0.2,-0.4 c -0.4,-0.7 -1.8,-0.8 -2.2,-0.4 l 1.2,1.5 -0.6,-0.1 c -0.5,-0.5 -0.9,-1 -1.5,0 h -1 l -0.5,-0.2 0.2,0.9 h -0.6 c -0.2,-0.1 -0.3,-0.4 -0.3,-0.7 v -0.8 c -1,0.3 -1.4,1 -1,1.6 l 0.7,1 -1.1,0.5 c 0,0 -0.1,0 0,0 l -1.3,-1.4 -0.2,0.2 c 0.5,0.6 0.1,1.6 1.1,2 v 0.6 l -2.3,-0.4 a 1220,1220 0 0 0 1.2,-1.1 c -0.3,0 -0.5,-0.1 -0.8,0 -0.5,0 -1.1,0.3 -1.7,0.5 l -0.8,0.2 -1,0.1 -0.1,-0.2 -0.5,0.6 c 0.7,1 0.6,1.2 -0.6,1.4 -0.3,0 -0.7,0.4 -0.8,0.6 -0.2,0.3 -0.2,0.7 -0.2,1.2 h 1 c 0.5,0 1,-0.3 1.3,0.4 0,0.2 0.4,0.3 0.5,0.4 0.1,-0.1 0.3,-0.3 0.3,-0.5 l -0.4,-0.7 v -1 c 1,0.4 1.7,0.9 2.5,1.1 0.8,0.3 1.6,1 2.7,0.4 l -1.7,-0.4 0.8,-0.9 -1.3,0.1 0.2,-0.5 2.7,-0.3 v 0.3 l -1,0.6 2.7,2.2 -0.3,0.9 c -0.3,-0.3 -0.3,-0.5 -0.4,-0.8 l -0.4,-0.4 c 0,0 -0.3,0 -0.4,0.2 l 0.1,0.4 1,1.2 c 0.6,0.7 1.6,1.2 1.3,2.5 l 0.5,-0.7 -1.2,-2 c 1,-0.8 1,-0.8 0.6,-1.5 m 46.4,7 -1.4,-1 h -0.5 c -0.6,0 -1.2,0 -1.7,-0.2 -1.2,-0.6 -2.4,-1 -3.7,-0.9 -0.6,0 -1.1,-0.3 -1.7,-0.4 h -0.7 l -4.7,1.6 -1.8,0.4 c -0.3,0 -0.7,0.3 -0.9,0.5 l -1.5,2 -2.9,3 c -0.6,0.9 -1,1.8 -1.5,2.8 -0.5,1.1 -0.8,2.3 -1.2,3.5 -1.1,3.4 -1,6.7 1.2,9.8 v 0.2 c 0.4,1.4 1,2.6 2.4,3.2 -0.6,1 0.3,0.8 0.7,1 0.5,0.2 1,0.3 1.1,1 l 0.3,0.3 c 0.6,0.7 1.3,1.3 1.7,2.1 0.2,0.5 0.5,0.7 0.8,0.7 1.4,0 2.6,0.5 3.9,0.7 l 3,0.4 c 1.3,0 2.5,0 3.7,-0.6 0.6,-0.3 1.4,-0.1 2.1,-0.1 l 0.6,0.3 0.2,-0.6 4.3,-2.7 c 0.6,-0.4 1,-1 1.9,-0.8 0.5,0 1,-0.2 1.3,-1 0.3,-1.3 0.8,-2.5 1.2,-3.8 0.3,-0.9 0.3,-1.9 0.7,-2.7 0.3,-0.8 0.4,-1.6 0.2,-2.4 v -0.7 c -0.1,-1 0.5,-2 0,-3 l -0.4,-1.2 -0.8,-2.1 c -1,-1.6 -2,-3 -2.3,-4.9 -0.1,-0.3 -0.2,-0.7 0,-0.9 0.5,-0.5 0,-0.9 0,-1.3 l -0.2,-0.8 c -1.4,0 -2.3,-0.7 -2.4,-2 l -1,0.6 m -2.5,230 c 0.3,-0.7 0.7,-1.2 0.8,-1.7 0.3,-1.5 1,-3 0.6,-4.5 v -0.5 l 0.3,-2.7 c 0,-1.9 -0.2,-3.8 -0.3,-5.6 l -0.1,-2.7 c -0.1,-0.5 -0.2,-0.9 0.2,-1.3 0.2,-0.3 0.2,-0.7 0.2,-1.1 l -0.2,-1.2 c 0,-0.3 0.1,-0.5 0,-0.8 l -0.1,-2.2 0.1,-3.4 c 0,-1 -0.3,-2.2 0,-3.2 0.6,-1.5 -0.7,-3 0.1,-4.5 v -0.4 l -0.6,-3 v -6.3 c 0,-0.8 -0.3,-1.5 -0.3,-2.3 l 0.2,-2.4 -0.1,-2.4 v -0.7 c 0.5,-0.6 0.3,-1.3 0.2,-2 l -0.1,-3 c 0,-0.7 0.2,-1.3 0.3,-1.9 l -0.1,-0.7 -0.2,-1 0.1,-2.7 0.5,-6 V -92 c -0.7,-1 -0.2,-2.2 -0.2,-3.3 -0.1,-1.2 0,-2.4 0.1,-3.6 v -1.6 c 0,-1.4 -0.3,-2.7 -0.3,-4.1 0,-1.2 0.3,-2.3 0.4,-3.5 v -1 c -0.2,-1.3 -0.6,-2.6 0,-3.8 l 0.1,-0.8 -0.2,-5.8 -0.1,-5.3 v -0.4 c 0.5,-0.3 0.4,-0.7 0.3,-1.2 l -0.1,-1.4 0.2,-4.9 c 0,-1.2 -0.3,-2.3 -0.3,-3.5 l 0.2,-5.9 c 0,-1.8 -0.8,-2.7 -2.7,-2.6 a 5,5 0 0 1 -0.8,0 l -4.9,-0.6 v 4.5 l -0.2,3.3 v 6 c 0,1.7 0,3.4 -0.2,5.2 -0.3,2.2 0.3,4.3 0,6.5 -0.2,1.8 0,3.6 -0.3,5.4 -0.2,1 0,2.2 0,3.3 l 0.1,3 v 4.3 c 0,1.6 -0.4,3.2 0,4.9 0.2,1.2 -0.1,2.5 -0.2,3.8 0,0.4 -0.2,0.8 -0.1,1.2 0.2,1 0.9,2 0.2,3 v 4.5 l 0.8,4.9 -0.1,0.8 -0.4,2.5 0.1,0.6 c 0.6,0.7 0.3,1.3 0,1.6 0.2,0.8 0.5,1.4 0.5,2 0,0.9 -0.3,1.8 -0.4,2.6 v 1.2 l 0.3,2.2 c 0,1.6 0.4,3.2 -0.3,4.7 v 0.2 l 0.2,2.6 -0.4,6.6 c 0,0.7 0.4,1.7 0,2.1 -0.6,1 0,2 -0.2,2.9 l 0.2,1.2 c -0.5,2.4 -0.5,4.7 -0.4,7 l 0.3,2.5 c 0,1.6 0,3.2 0.2,4.7 0.2,1.7 0,3.4 0.1,5.1 v 5.8 c 0,0.3 0.2,0.7 0.3,0.7 l 3.4,0.2 c 1,0 2.2,-1 3.3,0.2 m -70.3,-76.4 2.9,-3 2.3,-2.3 c 0.3,-0.4 0.4,-1.2 0.8,-1.5 1.6,-1.2 1.7,-3.3 2.6,-4.9 0.3,-0.5 0,-1.3 0.7,-1.6 l 0.1,-0.4 a 3,3 0 0 1 1,-2.6 c 0.2,-0.1 0.2,-0.4 0.3,-0.6 l 0.4,-3.5 c 0.1,-1 0.5,-1.8 0.7,-2.7 v -0.5 c 0,-1.4 -0.5,-2.7 0.2,-4 v -0.6 l -0.4,-4.6 c 0,-0.2 -0.2,-0.6 0,-0.8 0.5,-0.9 0,-1.6 -0.4,-2.3 l -0.2,-1.2 c -0.1,-0.6 -0.1,-1.3 -0.4,-1.8 a 71.2,71.2 0 0 0 -3.2,-6.3 l -2.9,-4 c -0.5,-0.6 -1,-1.4 -1.6,-1.8 l -3.8,-2 c -0.6,-0.2 -1.3,-0.4 -1.7,-0.8 -0.8,-0.7 -1.8,-0.7 -2.6,-0.6 -1.7,0.3 -3.4,-0.3 -5.1,0.5 -1.3,0.6 -2.8,0.8 -4.2,1.1 -2,0.4 -3.7,1.3 -5,2.9 -0.3,0.3 -0.8,0.5 -1.2,0.7 0,0.6 -0.3,1.2 -0.6,1.8 l -0.7,1 -2.3,5.4 c -0.3,0.7 -0.7,1.4 -0.1,2.2 0.2,0.2 0.2,0.6 0.1,1 l -0.1,2.7 -0.2,3 c 0,1.2 0,2.4 -0.2,3.5 l -0.2,2.7 c 0,0.7 -0.2,1.4 0,2.1 0.1,1.4 0.2,2.7 -0.6,4 0.7,0.5 0.7,1.2 0.7,2 v 4.7 c 0,1.9 0.2,3.7 0.3,5.6 v 7.6 l 0.2,4.5 0.2,4 c 0,0.5 0.2,1 0.1,1.4 0,1 -0.3,2.1 -0.4,3.2 l 0.1,3.5 c 0,1 0.5,2 0.2,3 -0.5,2 0,4 0,6 -0.2,2 0.3,4 0.3,6 0,1.2 0.7,2.4 0.2,3.6 v 0.2 l 0.2,2.4 v 1.8 l 0.8,3 c 0.2,0.9 0.2,1.7 0.5,2.6 0.5,1.5 1,3 1,4.7 l 0.2,0.5 0.4,0.6 1.5,3 1.9,2.8 c 0.8,1 1.4,2.2 2.7,2.7 0.4,0.2 0.9,0.6 1.4,0.7 0.7,0.2 1.6,0 2,1 h 0.5 c 1,0.3 2,0.4 3,0.8 1.2,0.6 1.6,0.6 2.8,-0.4 0.4,-0.2 1,-0.2 1.4,-0.3 H 95 l 2.9,-1 c 1.3,-0.4 2.8,-0.7 3.8,-2 0,-0.2 0.4,-0.2 0.7,-0.3 1,-0.5 2.3,-0.7 2.9,-1.5 1,-1.5 2.8,-2.1 4,-3.5 0.8,-1.1 0.7,-1.8 -0.6,-2.4 -0.6,-0.3 -1.2,-0.8 -1.7,-1.2 l -2.5,-2.2 c -0.2,-0.2 -0.6,-0.4 -0.8,-0.3 -0.7,0.3 -1.6,0.5 -2.2,1 -1.1,0.8 -2,2 -3.4,2.4 -0.2,0 -0.4,0.3 -0.6,0.4 -0.3,0.3 -0.7,0.9 -1.2,1 -1.7,0.1 -3.5,0.4 -5.2,0.3 -1.1,0 -2.2,-0.6 -3.3,-1 -0.6,-0.3 -1.3,-0.6 -1,-1.5 l -0.2,-0.4 -2.3,-5.7 c -0.3,-1 -0.5,-2.1 -0.5,-3.2 0,-0.5 0,-1 -0.2,-1.5 -0.4,-1 -1.4,-1.7 -1,-3 0.1,-0.5 0,-1 -0.1,-1.6 l -0.7,-2.7 -0.2,-1.1 0.1,-2.5 c 0,-1.1 -0.8,-2.2 0.2,-3.2 v -0.3 l -0.3,-3.3 v -3.6 l -0.2,-3 0.2,-2.9 c 0,-0.6 -0.5,-1.3 -0.3,-1.7 0.7,-1.8 0,-3.5 0.2,-5.2 0,-0.8 0,-1.7 0.2,-2.5 0,-0.3 0.3,-0.6 0.4,-0.6 1,-0.1 2,-0.3 3,-0.2 1.3,0 2.6,0.1 3.8,0.3 1.5,0.2 3.3,0.7 4.7,-0.6 0,0 0.2,-0.1 0.4,0 0.9,0.1 1.4,-0.5 1.9,-1 0.6,-0.9 0.8,-1 1.8,-0.1 m -34,-34.9 c -0.8,-0.7 -0.9,-1.1 -0.5,-2 l 0.1,-0.5 v -4.7 l 0.1,-4 c 0,-1.4 0.3,-2.7 0.3,-4.1 0,-1.4 -0.4,-2.8 -0.1,-4.3 v -3.6 l 0.1,-2.6 -0.1,-2.8 c -0.3,-1.4 -0.2,-3 -0.3,-4.4 v -0.3 l 0.3,-1.6 v -2.1 l -0.2,-1.5 -0.1,-0.4 c 0.6,-1 0.2,-2.1 0.2,-3.2 l -0.1,-1.5 c 0,-0.6 -0.4,-1.4 -0.2,-1.9 0.4,-0.6 0.1,-1 0,-1.4 l -0.2,-0.7 -0.3,-7.2 c 0,-1 -0.4,-2 0,-3 0.3,-1 0.1,-2 0.2,-3 0,-2.6 0.3,-5.2 0.4,-7.8 0,-1.4 0.6,-2.8 0.1,-4.2 0,-0.3 -0.2,-0.6 -0.1,-1 0.4,-2.2 -0.4,-4.5 0,-6.9 0.3,-1.1 0,-2.4 0,-3.6 v -2.7 l 0.3,-5.6 c 0,-0.5 0.3,-1 0.2,-1.6 l -0.6,-3.6 v -0.3 l 0.1,-1 v -1.5 c 0.2,-0.9 -0.7,-1.8 0,-2.7 l -0.1,-0.3 v -0.8 c 0.3,-0.8 0.4,-1.6 -0.2,-2.4 -0.1,-0.2 0,-0.5 0,-0.8 v -4.7 c 0,-1.3 -1,-2.4 -0.3,-3.6 l -0.1,-0.2 -0.4,-0.8 c -0.2,-0.6 0.8,-1.3 0.4,-1.8 -0.5,-0.6 -3.6,-0.4 -4,0.2 -0.5,0.8 -2.1,-0.5 -2.9,-0.4 -0.4,0.1 0.3,2.2 0,2.6 v 0.4 c -0.7,0.8 -0.5,1.7 -0.4,2.6 v 1 c -0.4,0.9 -0.8,1.8 -0.2,2.7 v 3.1 c -0.6,1.1 0.5,2.5 -0.5,3.5 v 0.2 c 1,1.6 -0.3,3.4 0.6,5 0.1,0.3 -0.2,0.8 -0.2,1.1 l -0.2,4.2 v 0.1 c 0.6,1.1 0.5,2.3 0.3,3.4 -0.1,1.2 -0.6,2.4 0,3.5 v 1 l -0.2,0.7 0.2,3.3 v 5.6 c 0.1,1.2 0.5,2.5 0.2,3.6 -0.4,1.6 0,3.2 -0.1,4.8 l -0.1,0.5 c -0.6,0.6 -0.6,1.1 -0.3,1.8 v 0.8 c 0,2.2 -1,4.3 -0.6,6.6 -0.7,1.4 -0.2,2.9 -0.1,4.3 v 0.2 l -0.5,4 v 0.4 c 0.4,0.7 -0.3,1.5 0.3,2.2 v 0.3 l -0.2,1.7 c 0,1 0.2,1.8 0.3,2.7 v 3.4 c 0,1 0.3,2 0.2,2.9 0,0.9 -0.2,1.8 0.3,2.6 v 10.9 c 0,0.6 -0.2,1.2 0,1.7 0.3,1.2 0.3,2.5 0.1,3.7 v 1.1 l 0.1,3.3 -0.2,2.8 c 0.2,2.1 -0.4,4.2 0,6.3 0.3,1.3 0.1,2.6 0.1,3.9 v 6 l 0.1,9 c 0,1 -0.2,2.1 -0.1,3.1 0,1.4 0.3,2.7 0.4,4 v 3.4 l 0.2,2.7 0.2,1.4 0.1,2.6 c 0,0.8 0.5,1.7 0.3,2.4 -0.4,1.5 0.3,2.8 0.2,4.2 l 0.2,3.7 c 0,1.4 -0.1,2.8 0.1,4.2 0.3,1.4 0.7,2.8 0.2,4.1 -0.3,1 -0.4,2 -0.1,3.1 a 6,6 0 0 1 0,1.7 c -0.2,1.8 -0.6,3.5 0.2,5.3 0.1,0.2 0,0.5 0,0.8 -0.2,1 -0.5,2.1 -0.5,3.2 0,2.7 -0.5,5.3 -0.3,8 0.2,1.7 -0.3,3.3 0.1,5 0.2,0.5 0.1,1 0,1.6 0,1 -0.2,2.2 -0.4,3.3 l 0.1,0.6 c 0.2,1.1 0.6,2.3 0.4,3.3 -0.2,1.5 0.2,2.8 0.2,4.2 0,2 0.7,4 1,6.1 0,0.9 -0.3,1.8 0,2.6 0.3,1.4 0,2.7 -0.3,4 v 0.9 c 0.5,1 0.4,2 0.2,3.1 -0.3,2 1.3,3.2 2.5,3.3 l 7,0.3 c 1.6,0.1 3.2,0.7 4.8,0.1 h 0.2 l 8.6,-0.1 3.4,-0.1 h 3 l 3.9,-0.2 h 0.2 c 0.8,0.4 1.6,0.4 2.5,0.2 h 1 l 5.5,0.2 h 3.5 c 0.7,0.1 1.5,0.2 2.3,0 0.8,-0.2 1.8,-0.4 2.1,-1 0.5,-0.8 0.5,-1.9 0.7,-2.9 l 0.5,-3.2 c 0.1,-1 -0.3,-1.5 -1.3,-1.6 -0.7,0 -1.4,0 -2.1,-0.2 -0.7,-0.3 -1.5,0 -2.2,0 -0.1,0 -0.3,0.2 -0.5,0.1 -1.5,-0.4 -3,0.3 -4.6,-0.3 -0.8,-0.3 -1.9,0 -2.8,0 h -7.8 c -1.3,-0.1 -2.4,-0.3 -3.6,0.3 -0.2,0.1 -0.6,0.2 -0.8,0 -1,-0.7 -2,0 -3,-0.2 -1.5,-0.3 -3,-0.1 -4.5,-0.2 h -1 l -3.4,0.2 -0.4,-0.2 -0.8,-0.2 h -3.5 c -0.2,0 -0.6,-0.3 -0.7,-0.6 -0.2,-1.4 -0.3,-2.9 -0.6,-4.3 0,-0.7 -0.4,-1.3 -0.4,-2 0,-2.1 0,-4.3 -0.4,-6.4 0,-0.8 0.2,-1.7 0,-2.5 l 0.2,-1.6 c 0,-1 -0.5,-2.2 0,-3.3 v -0.5 c -0.1,-0.8 -0.3,-1.7 -0.2,-2.5 l 0.3,-2.7 -0.2,-0.4 c -0.2,-0.6 0,-1.7 0.6,-2.1 -0.6,-0.4 -1,-1.9 -0.8,-2.6 l 0.2,-0.7 c -0.1,-1 -0.4,-2 -0.3,-3 0.1,-1.7 0.5,-3.5 0.7,-5.2 0,-0.3 0.2,-0.6 0,-0.7 -0.6,-1 -0.2,-2 -0.2,-3 v -3 l 0.1,-1.5 c 0.2,-0.8 0.2,-1.5 -0.2,-2.3 l 0.1,-0.6 0.2,-0.7 c -0.2,-2.2 -0.5,-4.4 -0.4,-6.6 0.1,-2.1 -0.5,-4.3 0,-6.4 V -95 c -0.6,-1.2 0,-2.5 -0.2,-3.8 l -0.3,-3 v -1.3 l 0.3,-1.4 H 65 c -0.9,-0.6 -0.8,-1.5 -0.7,-2.3 0.1,-1 0.3,-2 0,-2.8 -0.3,-1 -0.3,-2 -0.1,-3 v -0.5 c -0.2,-1 -0.8,-2 -0.1,-3 v -0.2 l -0.3,-5 v -3.7 l -0.1,-0.4 -0.2,-1.2 v -3 l -0.2,-2.3 0.3,-0.9 m -70.8,-81.8 c 1,0.3 1.1,1 1.1,1.9 v 10.9 c 0,1 0,2 0.3,3 0.3,1 -0.2,2.2 0,3.3 l -0.3,5.1 0.2,3.8 v 7.2 l 0.1,0.6 0.2,3.8 v 1.6 l -0.1,1.6 0.2,1 v 4.2 c 0,1 0.1,1.9 0.3,2.8 v 3.3 l -0.2,1 0.2,2.7 0.4,6.1 0.4,3.4 -0.1,0.7 c -0.2,1.1 -0.5,2.2 -0.5,3.3 -0.1,1 0.2,2 0,2.8 -0.3,1.1 -0.2,2.2 -0.2,3.3 0,0.8 0.3,1.7 0,2.4 -0.2,0.9 0,1.6 0,2.4 l -0.1,2.9 0.1,1.7 c 0,0.5 -1.2,4.7 -0.6,6.3 v 0.3 l -0.2,1.7 c 0,1.2 0.3,2.4 0.2,3.6 0,1.7 -0.4,3.5 -0.6,5.2 v 1.7 l 0.3,2.2 v 4.6 a 38.5,38.5 0 0 1 -0.3,9 l 0.4,3.8 v 2 c 0,0.7 0,1.4 0.3,2 0.2,0.5 0.4,1 0,1.5 a 1,1 0 0 0 -0.1,0.6 c 0.3,2 -0.2,4 0.2,6.1 0.3,1.2 0.3,6.3 0.3,6.5 0,1 0.2,2 -0.2,3 -0.4,1 -0.1,2 -0.3,3.1 v 1.4 c 0.7,0.8 -0.1,5.2 -0.1,5.6 v 2.6 c 0,0.7 0.3,1.4 0.2,2.2 0,1.4 -0.2,2.8 -0.4,4.2 l 0.4,3.4 v 3 c -0.1,0.6 -0.4,1.4 -0.3,2 0,1.4 0.2,2.7 -0.3,4 v 0.5 c 0.6,1.3 -0.2,2.5 0,3.8 0,0.8 -0.2,1.7 0,2.5 0.1,0.7 0.2,1.3 0.1,2 A 15,15 0 0 0 -6,-23 c 0.2,1 -0.2,3 0.4,3.6 1.2,0.9 3.4,0.4 4.8,1 0.2,0.2 2.4,0.1 2.5,0 0.7,-0.8 -0.4,-1.6 0.2,-2.4 v -0.4 c 0,-0.8 -0.2,-1.7 0.1,-2.4 0.7,-1.4 -0.2,-2.8 0.2,-4.2 l 0.1,-1 0.2,-1 0.3,-6.4 c 0,-1.6 0.1,-3.2 -0.1,-4.8 l 0.1,-0.5 0.3,-0.6 C 2.7,-43.7 3.4,-45.3 3,-46.9 v -2.3 l -0.2,-2 c 0,-0.5 0.4,-1.2 0.2,-1.6 -0.5,-1.3 -0.5,-5.3 -0.4,-5.6 0.2,-1 0.3,-1.9 0,-2.8 a 4,4 0 0 1 0,-2.4 c 0.5,-1.5 -0.6,-3 0.2,-4.6 0,0 0,-0.3 -0.2,-0.5 -0.3,-0.9 -0.4,-1.7 0.1,-2.5 0.4,-0.6 0.4,-1.4 0.2,-2.2 -0.1,-0.6 0.2,-2.8 0,-3.3 0,-0.4 0,-1 0.2,-1.5 0.2,-1 -0.6,-2.1 0,-3.3 C 3.3,-82.1 3,-82.9 3,-83.7 l -0.1,-5.8 -0.1,-7.7 -0.1,-3 v -5.4 l 0.1,-3 v -0.6 c -0.5,-0.9 -0.3,-1.7 0.1,-2.6 l 0.3,-1.2 c -0.3,-2.3 -0.1,-4.6 0.3,-7 v -1.3 c -0.2,-1 -0.7,-1.8 0,-2.7 l 0.1,-0.5 c -0.3,-1.6 0.2,-3.2 -0.2,-4.9 -0.3,-1 0,-2.2 0,-3.4 0.1,-0.5 0.2,-1.2 0.6,-1.6 0.4,-0.5 1.1,-1.3 1.7,-1.2 1.3,0.2 2.3,-0.4 3.2,-1.2 0,-0.2 0.5,-0.3 0.6,-0.2 0.8,0.7 1.4,0 2,-0.2 1,-0.4 1.8,-1 2.7,-1.1 1.3,-0.1 1.9,-1 2.6,-1.7 l 2.5,-2.4 0.5,-1 c 0.1,-0.8 0.3,-1.5 1,-2 0.4,-0.2 0.7,-0.7 1,-1.2 l 0.9,-2.4 c 0.3,-0.8 1,-1.5 1.2,-2.3 l 1.8,-5.4 0.3,-1 c 0.1,-1.4 -0.1,-2.8 0.6,-4.2 0.5,-0.9 1.7,-4.4 1.3,-5.3 l 0.3,-0.7 c 0,-0.3 0.3,-0.6 0.3,-0.8 -0.5,-1.4 0.3,-2.7 -0.2,-4.1 -0.5,-1.4 0.4,-2.8 0.1,-4.3 -0.3,-1.5 0,-3.2 -0.1,-4.7 l -0.2,-0.5 v -1.7 l -0.1,-2 v -0.6 l -0.2,-3.4 v -2.5 l -0.2,-1.4 c 0,-0.9 0.2,-1.8 0,-2.6 -0.3,-1.4 -0.8,-2.7 -1.2,-4 -0.5,-2 -0.8,-4 -1.8,-6 -0.2,-0.4 -1.1,-4 -2,-5.1 -0.8,-0.8 -1,-1.9 -1.6,-2.8 l -1.2,-2 a 16.2,16.2 0 0 0 -7.4,-6.5 c -1.6,-0.6 -2.8,-1.8 -4.6,-2.1 -1,-0.2 -2,-0.5 -3.1,-0.4 -0.7,0.1 -1.4,0 -2.1,-0.1 l -4.6,-0.9 c -1.3,-0.2 -2.4,0.7 -2.9,2 -0.2,0.6 -0.1,1.2 -0.3,1.7 -0.7,1.7 -0.2,3.5 -1,5 v 2 c 0.2,0.8 0,1.1 -1,1.1 m 51.6,-16.6 -0.4,-2.7 c -0.2,-1 -0.7,-1.9 -1.4,-2.8 -0.7,-1 -1.2,-2.3 -2,-3.4 -1.3,-1.7 -3,-3.3 -4,-5.3 l -0.2,-0.2 -4.3,-3 c -1,-0.6 -1.7,-1.4 -3,-1.4 -0.5,0 -1.1,0.1 -1.5,-0.1 -0.8,-0.7 -1.7,-0.5 -2.5,-0.7 l -0.6,-0.1 c -1.2,-0.2 -2.3,-0.7 -3.4,-0.5 -2,0.3 -3.9,1 -5.8,1.5 l -2.1,0.7 c -0.7,0.2 -1.5,0.2 -2.1,0.6 -1.4,1 -3,1.6 -3.9,3.2 0,0.2 -0.2,0.2 -0.3,0.3 l -1,0.7 c -0.5,0.3 -1,0.5 -1.4,0.9 -0.5,0.4 -2,0.9 -2.1,1.5 -0.3,1 3.1,5.5 3.5,5.6 0.3,0 0.6,0.1 0.8,0 1,-0.4 1.7,-1.2 2.6,-1.3 1.3,-0.2 2.3,-0.8 3.3,-1.4 1.5,-0.8 2.8,-2 4.3,-2.6 2.3,-0.8 4.5,-2.1 7,-1.7 1.4,0.2 2.8,0 4,0.9 l 3.3,3 1.9,2.5 c 0.6,0.7 1.2,1.3 1.3,2.4 0.3,2 1.2,3.9 2.1,5.7 0.6,1 1,5.4 0.9,6.1 0,1.4 -0.3,2.9 -0.4,4.3 l 0.2,9.2 c -0.2,1 -0.6,2 -0.6,3.1 0,1.4 0.3,2.7 0.5,4 v 0.5 c -0.5,1.2 -0.5,5.3 -0.3,5.9 0.2,0.7 0.4,1.6 0.2,2.3 -0.3,1.5 0.3,2.9 -0.2,4.3 -0.3,0.8 0,1.8 0,2.7 v 5.7 c 0,0.3 0,0.7 -0.2,1 -0.6,1.4 0,5.8 -0.2,6.6 -0.2,1 -0.1,2 0,3 v 2.3 l 0.1,0.7 c 0,1.6 -0.5,3.3 0.1,4.9 l -0.1,0.6 -0.2,1.3 c 0,0.6 0.2,1.2 0.1,1.8 -0.2,1.4 0.2,2.8 -0.4,4 v 0.7 l 0.1,0.9 -0.4,3.5 -0.3,5.6 v 5.8 l -0.3,2.4 -0.3,7.8 c 0,1.7 0.2,3.4 0.1,5.1 0,0.9 -0.2,1.8 -0.4,2.7 l 0.4,1 c 0.4,2 -0.4,4.2 0.2,6.2 v 0.3 l -0.3,5.4 c 0,2.5 0.4,5 0,7.5 v 3.1 c 0,2 -0.2,4 0,6 0.3,1.3 0.1,2.5 0.3,3.8 0.1,1 -0.7,2 -0.1,3 l -0.3,0.7 c -0.8,0.3 -1.6,0.7 -2.5,0.7 -0.8,0.1 -1.7,0 -2.4,-0.3 -1.1,-0.5 -2,-0.5 -3.2,0 -0.7,0.2 -1.4,0.3 -2,0.7 -0.4,0.2 -0.7,0.4 -1,0.4 -0.9,0 -5.1,3.1 -6.2,4 -0.5,0.3 -0.1,1.5 -1.2,1.8 v 0.2 l -1,2.1 -1.2,3.4 -0.5,2.8 c -0.4,1.5 -1,3 -1.1,4.5 0,1.3 -0.3,2.6 -0.7,3.6 -0.7,1.5 -0.3,3 -0.7,4.4 -0.3,1.5 -0.3,3 -0.5,4.6 v 2 c 0.4,2 0.1,3.3 -1.2,4 1.1,0.7 1.4,1.3 1.1,2.2 l 1,1.5 0.4,2.2 c 0.5,1.4 0.8,2.8 1.4,4 1,2 2,3.9 3.2,5.8 0.5,0.7 1.1,1.2 1.7,1.8 l 2.6,2.6 2.2,1.5 0.9,0.5 0.5,0.4 c 0.7,0 4.3,0.8 5.4,0.7 1.5,0 2.9,-0.5 4.1,-1.5 0.4,-0.3 1,-0.4 1.5,-0.4 1,-0.1 1.3,0.2 1.3,1 v 2 c 0,0.7 0,1.3 0.2,1.8 0.2,0.5 0.4,0.9 0.7,1.2 l 0.8,0.4 c 1.2,-1 2.5,-0.6 4,-0.6 0.5,0 1.7,0 2,-0.4 0.3,-0.9 0.6,-2.8 0.4,-3.6 -0.6,-1.5 0.5,-3 -0.2,-4.5 l 0.1,-0.5 c 0.1,-0.3 0.3,-0.6 0.3,-1 v -5.2 c 0.8,-0.7 0.5,-1.3 0.2,-2 -0.2,-0.4 -0.1,-0.7 -0.1,-1 l -0.2,-1.5 v -4.5 c 0,-1.5 -0.8,-2.8 -0.3,-4.4 0.3,-1 -0.2,-2.5 -0.3,-3.8 l -0.6,-3.8 0.2,-1 v -1.3 l -0.2,-4 0.4,-0.6 c 0.2,-0.1 -0.6,-1.5 -0.5,-2.3 0,-1 0.2,-1.8 0.4,-2.8 0.3,-1.3 0,-2.6 -0.4,-4 l -0.2,-0.8 0.4,-2.6 c 0,-0.6 0.2,-1.2 0,-1.7 -0.3,-0.7 -0.5,-1.2 -0.3,-2 0.3,-1.2 0,-2.5 0,-3.8 v -2 c 0,-0.8 0.3,-1.8 0,-2.6 -0.5,-2 -0.4,-3.8 0,-5.8 v -0.6 l 0.2,-5.3 v -2.8 l 0.1,-3.6 v -3.5 c 0,-1.5 0.8,-2.9 0.1,-4.4 v -0.1 l 0.3,-5.1 c 0,-0.7 0.2,-2.4 0.1,-3 v -3.6 c 0,-2 0.3,-8 0.1,-8.2 -0.6,-1.6 0.3,-3.3 0,-5 -0.5,-2.2 0,-4.5 -0.2,-6.8 l 0.1,-5 0.2,-5.4 c 0,-0.6 0.2,-1.3 0,-2 -0.2,-1.1 0.3,-2.2 0,-3.5 -0.3,-1.6 0,-3.4 0,-5.1 0,-0.8 0.3,-1.6 0.3,-2.3 v -3.6 c 0.4,-2 0.2,-3.8 0,-5.7 0,-1.3 0.8,-2.6 0,-3.8 v -0.3 c 0,-0.8 0.4,-1.7 0.3,-2.4 a 10,10 0 0 1 0,-2.8 c 0.2,-2 0.1,-4.2 0.2,-6.3 l -0.2,-3.2 0.1,-1.7 c -0.1,-1.7 -0.4,-3.3 -0.4,-5 l 0.2,-2.6 -0.1,-4 -0.1,-3.3 v -3.7 l 0.2,-2.9 v -0.3 l -0.1,-3.5 -0.1,-2.6 -0.5,-3 c 0,-1 0,-2.2 -0.2,-3.2 -0.2,-0.7 -0.1,-1 0.4,-1.4 m 75.5,31.3 v 0.4 c -1,1 -0.8,2.1 -0.4,3.3 v 0.7 l -0.4,1.7 c -0.2,0.8 0.3,1.7 0.2,2.3 -0.4,1.4 -0.2,2.7 -0.2,4 0,0.4 0.2,0.7 0.4,1.1 -0.6,0.7 -0.6,0.9 0.2,1.5 -1,1.8 -1,3.7 0.2,4.2 -0.7,0.5 -0.8,0.9 -0.6,1.7 v 1 c -0.3,1 -0.2,1.3 0.9,1.2 0,0.2 0,0.4 -0.2,0.5 -0.2,0.4 -0.6,0.8 -0.7,1.2 v 2 c 0,0.3 -0.3,0.8 -0.5,0.8 -0.9,0 -1.6,0.6 -2.6,0.2 -0.5,-0.2 -1.1,0 -1.7,0 -0.8,0 -1.6,0 -2.3,-0.2 -0.3,0 -0.4,-0.8 -0.6,-1.2 l -0.3,-0.7 -0.9,2.1 -0.6,-1 -0.3,1 -1.1,-0.2 c -0.8,0 -1.7,0.3 -2.4,0.1 -2.3,-0.3 -4.6,0.2 -6.9,0.3 l -3.1,0.2 c -0.8,0 -1.7,0.4 -2.3,-0.7 0,1 -0.4,1.2 -1.2,1 -0.5,-0.1 -1.1,-0.3 -1.7,-0.3 l -3.2,0.2 h -4.1 l -4.6,0.2 -2.9,0.4 c -0.6,0.1 -1,0.7 -1,1.4 0.1,1.2 0.2,2.4 0,3.5 -0.2,0.8 0.1,1.3 0.4,2 l 0.3,0.5 c 0,0.6 0.4,0.8 1,0.6 h 1 c 1,0.2 1.8,0.5 2.8,0.6 l 1.8,-0.2 c 2,0.3 3.8,0.4 5.8,0.3 1.4,0 3,-0.5 4.2,0.7 l -0.3,-0.7 h 0.8 l 3,-0.2 5,-0.6 4.4,-0.2 c 0.8,0 1.6,-0.3 2.5,-0.2 l 5,0.3 1.4,-0.2 h 3.2 c 1.6,-0.1 2.1,0.3 2.2,1.8 l 0.2,5 v 4.4 l 0.1,1.3 v 5.6 c 0.2,1.5 0.6,3 0.2,4.7 -0.2,0.7 0,1.6 0.1,2.5 v 0.6 l -0.2,1.8 0.2,4.5 -0.2,2 c 0,0.8 0.1,1.6 -0.5,2.2 -0.1,0.2 0,0.6 0,0.8 l 0.4,0.4 0.5,3.3 c 0.3,2.4 -0.2,4.8 0.5,7.2 v 4.3 c 0,1.3 0.3,2.7 -0.3,3.8 0.2,0.4 0.5,0.7 0.5,1 l 0.2,4.7 c 0,0.6 -0.3,1.3 -0.2,1.9 0.2,1.3 0.5,2.7 0,4 l 0.3,0.7 c 0.2,1 1,2.2 0.1,3.3 -0.5,0.7 -0.4,1.4 -0.3,2.2 0.2,1 0.2,1.9 0.2,2.9 l -0.2,1.5 v 2.1 c 0,1.3 -0.2,2.5 -0.4,3.7 v 0.4 c 0.7,1 0.4,2.2 0.3,3.3 l -0.2,2.8 v 4.4 c 0,0.3 0.3,0.7 0.2,1 -0.8,1.3 -0.4,2.7 -0.4,4 v 6.5 c 0,1.8 -0.4,3.5 0,5.2 0.1,0.3 0,0.5 0,0.8 l -0.1,0.7 0.3,3.1 0.1,4.6 0.4,3.2 -0.1,1.6 v 4.6 l 0.2,3.1 c 0,0.6 0.2,1.1 0.1,1.7 l -0.3,2.5 0.2,2 0.2,3.1 1,0.1 c 2.2,0.6 4,-0.1 5.5,-1.7 0.4,-0.4 0.6,-0.8 0.6,-1.3 v -2.2 l 0.5,-2.9 c 0.2,-1 -0.9,-2.3 0.2,-3.3 l -0.1,-0.4 v -3.2 c 0,-0.9 -0.4,-1.7 0.4,-2.5 v -1.4 c 0,-1.2 0,-2.4 -0.2,-3.6 v -2.3 c 0,-0.5 0,-1.2 0.3,-1.6 0.4,-0.6 0.3,-1 0,-1.7 v -0.7 c 0.3,-1.3 0.3,-2.5 0.3,-3.8 0.1,-1.7 -0.5,-3.5 0,-5.2 l 0.2,-0.3 0.3,0.5 0.3,-1 c -1.3,-0.7 -1.7,-1.9 -1,-3.2 0.2,-0.4 0.2,-0.9 0.2,-1.4 l -0.2,-1 -0.4,-2.5 c -0.1,-1 -0.5,-2.2 0.4,-3 -0.2,-0.5 -0.5,-0.8 -0.5,-1.2 -0.2,-1 -0.2,-2 -0.3,-3.1 l -0.5,-5.3 0.1,-3.5 v -2.9 c 0,-1 0.3,-2 0.1,-2.8 -0.2,-0.9 -0.1,-1.6 0,-2.5 0.2,-1.7 0.3,-3.3 0.3,-5 0,-0.6 0,-1.2 -0.2,-1.7 -0.3,-0.8 -0.2,-1.8 0.4,-2.5 0,-0.2 -0.3,-0.5 -0.2,-0.7 0.3,-1 -0.6,-2 0.1,-3 v -0.3 a 14,14 0 0 1 0.2,-5.1 v -1 l -0.2,-2.7 c 0.2,-2.1 0.5,-4.3 0,-6.4 v -0.5 l 0.2,-2.3 c 0,-0.8 -0.2,-1.6 -0.1,-2.3 0.2,-1.3 0,-2.5 -0.3,-3.7 v -1.7 c -0.4,-0.8 0.3,-1.8 -0.4,-2.6 0.3,-1.6 0.6,-3.2 -0.2,-4.7 -0.6,-1.3 0.3,-2.7 -0.4,-4 v -1.5 c 0,-2 0,-3.8 -0.2,-5.7 0,-1.4 0,-2.8 -0.3,-4.2 -0.4,-2 0,-3.6 1.6,-4.8 -0.4,-1.5 -0.4,-1.5 -1.2,-1.3 0.1,0.3 0.4,0.6 0.4,1 0,0.2 -0.2,0.4 -0.4,0.6 0,0 -0.4,0 -0.4,-0.2 l -0.1,-3.4 c 0,-0.3 0,-0.6 0.2,-0.9 l 0.3,-1.2 h 1.7 l 5.2,-0.2 4.2,-0.2 c 0.6,0 1.4,0 1.6,0.9 l 0.4,2.3 0.2,5.3 v 0.6 l -0.1,1 0.1,2.5 v 2.7 c 0,1.2 0.2,2.4 0.1,3.6 0,2.5 -0.4,5 -0.5,7.5 v 3.5 c 0,1.2 -0.2,2.4 -0.4,3.6 l 0.2,1 0.3,1.8 -0.3,2.4 c 0,1.8 0,3.7 -0.3,5.5 -0.2,2.2 0.2,4.4 -0.1,6.7 -0.3,1.4 -0.1,3 0,4.5 0,0.9 0.3,1.8 0,2.6 -0.6,2 0.8,4 0.1,6 -0.2,0.6 -0.2,1.2 -0.2,1.8 0,1.4 0.6,2.7 0.2,4.2 -0.3,1.2 0,2.5 0,3.7 0,1.2 -0.6,2.4 -0.2,3.6 l -0.1,1 c -0.3,0.7 -0.4,1.4 0,2 0.2,0.4 0.1,0.8 0.1,1.1 l -0.2,2.4 0.2,4.2 c 0,1.4 0,2.9 0.2,4.3 l 0.4,4.9 c 0.1,1 0,2.1 0,3.2 l 0.3,4.7 0.1,2.4 0.1,1.9 v 0.7 c 0.1,1.5 0.4,3 0.4,4.5 0,1.7 -0.4,3.4 -0.5,5 v 21.1 c 0,1.7 0.5,2 1.9,2.4 0.3,0 0.5,0.3 0.7,0.4 l 0.5,0.4 3,-1 c 1.2,-0.3 1.7,-1.3 1.5,-2.4 v -1.4 l 0.6,-2.4 c 0,-1 -0.3,-1.8 0.3,-2.6 v -0.4 c 0.2,-1.9 -0.2,-3.7 0,-5.5 0.3,-1.7 0.2,-3.4 0.2,-5 0,-1.6 -0.2,-3.1 0.2,-4.7 v -0.4 c -0.1,-1.3 -0.3,-2.5 -0.3,-3.8 v -4 c 0,-1.7 -0.5,-3.5 -0.2,-5.3 0.2,-1 0,-2 -0.1,-3 l -0.8,-6.4 c -0.1,-0.8 -0.2,-1.4 0.5,-1.8 l -0.3,-1 c 0,-1.5 0.7,-3 0,-4.6 v -0.4 c 0.1,-0.8 0.3,-1.6 -0.3,-2.3 v -0.7 l 0.2,-1.3 v -2.6 l -0.2,-2.7 c 0,-1.5 -0.8,-3 0,-4.5 0,-0.1 0.1,-0.3 0,-0.4 -0.4,-0.8 -0.1,-1.7 -0.2,-2.5 0,-1.1 0,-2.2 0.2,-3.3 0.2,-1.2 0,-2.5 0.1,-3.7 0.1,-1.6 -0.6,-3.1 -0.2,-4.7 0.2,-0.8 0,-1.7 0,-2.5 v -3.8 c 0,-1.1 -0.6,-2.3 0.2,-3.5 v -0.4 l 0.2,-1.3 0.2,-0.8 0.1,-3.5 c 0.1,-0.8 0.4,-1.6 0.4,-2.4 l -0.2,-5.8 v -6.2 c 0,-1.2 -0.3,-2.4 0,-3.5 0.3,-1.5 0.3,-3 0.2,-4.4 -0.1,-2 -0.6,-4 -0.3,-5.8 0.2,-1.5 0,-3 0,-4.4 v -2.7 c 0,-0.6 0.3,-1.4 0.1,-2 -0.5,-1.6 0,-3.2 -0.1,-4.8 0,-1 0.6,-1.5 1.5,-1.4 1.6,0 3.2,0 4.8,0.2 1.3,0.1 2.5,0.4 3.8,0.6 h 0.8 l 1.4,-0.1 h 8 l 3.6,0.1 3,-0.2 c 1.2,0 1.7,-0.6 1.7,-1.8 0.1,-0.8 0.4,-1.6 0.4,-2.4 0.1,-0.8 0.3,-1.7 0,-2.5 -0.2,-0.7 -1,-1.2 -1.5,-1.8 l -0.5,-0.2 c -1.2,0 -2.5,-0.5 -3.8,0 H 172 l -6,-0.6 h -5 c -1.1,0 -2.2,-0.2 -3.4,-0.1 -2,0 -4,0.3 -6,0.5 -1.7,0.1 -2.3,-0.5 -2,-2.3 0.1,-1 0.3,-2 0.2,-3 0,-1.7 0.3,-3.4 0.5,-5 v -0.5 c -0.1,-1.6 -0.4,-3.3 -0.3,-4.9 0,-2.8 0.2,-5.6 0.4,-8.5 0,-1.8 0.3,-3.6 0.2,-5.4 -0.3,-2 -0.4,-4 -0.4,-6 0,-1 0.3,-1.6 1.1,-2 -2.4,-0.7 -5.1,0 -7.1,-1.7 l -0.7,0.8 c -0.3,0.2 -0.8,0.2 -1,0.4 -0.3,0.4 -0.6,0.9 -0.7,1.4 l 0.4,0.6 c -0.6,0.3 -0.8,1 -0.6,1.8 l 0.2,0.6 -0.5,1.5 c 1.1,0.1 1.1,0.1 0,1.9 0.8,0.8 0.8,1 0.1,2 v 1 l 0.6,0.7 c -1,0 -1,0.5 -1,1.2 0.2,1.8 0.2,3.6 0.2,5.4 1,0.5 1,1.2 0,2 -0.6,0.4 -0.6,1 0,1.4 0.5,0.2 0.6,1.6 0.3,2 -1,0.8 -1,0.8 -0.2,1.9 l -0.1,0.6 c -1,0.2 -0.6,0.8 -0.5,1.4 0.9,-0.2 0.9,-0.2 0.9,0.7 -0.7,-0.2 -1.1,0.1 -1,0.7 0,1.2 0.2,2.3 0.3,3.4 l -0.1,1.4 c -0.2,0.7 -0.5,1.4 -0.4,2 0.5,1.7 0,2.3 -1.6,2.3 l -8,-0.2 h -3.5 c -0.3,-1.5 0.2,-3 0,-4.5 -0.4,-1.4 0,-3 0,-4.5 v -4.5 l 0.1,-4.6 c 0,-1.5 0.3,-3 0.4,-4.7 0.5,0 1.1,0 1.7,-0.2 0.2,0 0.3,-0.3 0.5,-0.5 l -0.6,-0.3 c -0.1,0 -0.3,0 -0.5,0.2 -0.6,0.2 -1,0 -1.1,-0.6 l 0.1,-2.9 c 0.1,-0.6 0.2,-1 -0.2,-1.6 -0.1,-0.1 -0.3,-0.5 -0.2,-0.6 0.8,-1 0.2,-2 0.5,-3 0,-0.4 0.2,-1 0.5,-1.2 0.4,-0.4 1,-0.4 1.5,0.1 0.5,0.6 1,0.7 1.7,0.6 0.7,-0.1 1.5,0 2,-0.8 -0.5,-0.5 -0.8,-0.3 -1.2,0 -0.5,0.5 -0.9,0.3 -1,-0.4 l 0.5,-0.3 -0.6,-1.3 c -0.2,-0.3 -0.2,-0.7 -0.3,-1 l 0.7,-1.2 -0.2,-0.3 c -0.3,0.1 -0.9,0.1 -1,0.4 -0.5,1 -1.5,1 -2.3,1.7 l 0.4,0.8 1.7,-0.2 c 0.1,1 0,1 -1.2,0.8 -0.4,0 -1.1,0.3 -1.2,-0.4 -0.1,-0.5 0.1,-1 0.2,-1.5 v -0.6 c 0,-1.3 -0.2,-2.5 -0.3,-3.7 l 0.2,-0.4 1.6,-1 0.4,1.2 c 0,0.2 0.3,0.5 0.5,0.5 0.5,0.1 1.5,-1 1.5,-1.4 l -2.3,-0.3 1.5,-0.9 v -0.3 l -1,-0.2 c -0.7,0 -1.5,0.1 -2.2,0.3 -0.8,0 -0.8,-0.3 -0.7,-0.9 l 0.1,-1 c 0,-1 -0.2,-2 0,-3 0,-1.6 0,-3 -0.5,-4.5 v -0.8 c 0.3,-1.4 0.4,-2.9 0,-4.3 l -0.1,-1 0.3,-5.7 -0.3,-1.2 c 0,-0.8 -0.5,-1.7 -0.2,-2.2 0.7,-1.3 0.1,-2.4 0.3,-3.6 0.1,-0.7 -0.2,-1.4 -0.3,-2 v -0.5 c 0,-0.9 0.2,-1.7 0.1,-2.6 0,-0.8 -0.7,-1 -1.6,-0.8 l -2.6,0.4 h -2.5 c -0.2,0 -0.6,0.2 -0.6,0.4 a 41.6,41.6 0 0 0 -0.5,5.8 l 0.1,2.6 0.5,4.4 v 0.1 c -0.7,1.3 0,2.6 0,3.9 0,1.5 0,3 -0.2,4.6 a 7.8,7.8 0 0 0 0,3.9 c 0.7,1.9 0,3.7 0.3,5.6 0,0.7 -0.3,1.5 -0.4,2.3 v 3.3 c 0,0.5 -0.3,1 -0.1,1.4 0.4,0.8 0.2,1.5 0.1,2.3 v 1.5 c 0.1,1.1 0.3,2.2 -0.7,3.1 l 1,0.6 -0.5,1.8 -0.4,1.2 1.2,0.7 m -21.2,-63.3 -0.7,0.6 v 0.2 h -1 l -0.7,0.8 -0.2,-0.1 c 0,-0.4 -0.2,-0.8 0,-1 0.1,-0.3 0.6,-0.5 0.9,-0.7 -0.7,-0.6 -1,-0.5 -1.3,0.3 -0.2,0.4 -0.4,1 -0.6,1 -1,0 -1.1,0.6 -1.3,1.3 l -0.5,0.8 0.4,0.2 1.4,-2 0.1,1.1 c 0.7,0 1.6,0.4 2,0 0.6,-0.3 0.8,0 1.2,0.1 0.2,0.1 0.4,0.4 0.6,0.4 0.7,0 0.8,0.6 0.8,1 l -1.4,0.6 v 0.2 l 2.4,0.2 c 0.2,-0.6 0.2,-0.6 -0.4,-1 a 1,1 0 0 1 -0.3,-0.6 c 0,0 0.3,-0.3 0.5,-0.3 h 0.5 v -0.2 l -1,-0.5 1.3,-2 2,0.4 a 0.9,0.9 0 0 0 -0.5,-0.5 l -0.7,-0.3 a 252.4,252.4 0 0 1 0.8,-1 c -0.3,0.2 -0.5,0.3 -0.8,0.3 h -0.6 l -0.4,0.5 -1.2,-0.5 2,-0.8 v -0.3 l -1,-0.7 c 0,0 0,-0.2 0.2,-0.3 l 0.3,-0.3 -0.7,-0.6 c -0.3,-0.3 -1,0 -0.9,0.4 0,0.6 0.3,1.2 0.4,1.8 -0.5,0.3 -0.5,0.3 -0.3,0.8 l -1,-0.1 z m 12,8.7 -0.8,-0.1 c -0.2,0.8 -0.9,0.8 -1.4,0.7 -0.7,-0.2 -0.3,-0.7 -0.3,-1 0.2,-0.6 -0.2,-1 -0.7,-1 -0.4,0 -0.8,0.3 -1.2,0.5 v 0.2 c -0.4,0 -0.7,-1 -1.3,-0.3 l 0.6,1.4 c 0.3,1 0.5,1.2 1.5,1 0.5,0 1,0 1.4,0.2 0.2,0 0.4,0.4 0.4,0.5 -0.1,0.2 -0.4,0.5 -0.6,0.4 l -1,-0.2 -0.2,0.2 c 0.5,0.2 0.9,0.5 1.3,0.5 0.7,0 1.3,-0.4 2,-0.6 l -1.1,-0.8 1.6,-0.8 -0.2,-0.8 1.2,-1 c -0.9,-0.8 -1.3,-0.2 -1.8,0.1 l 0.6,1 m 55.3,55.1 -0.4,0.6 c 0.2,0 0.4,0.3 0.6,0.2 0.3,0 0.9,-0.2 1,-0.4 0,-0.6 -0.6,-0.4 -1,-0.4 H 166 c 0,-0.2 0,-0.4 0.2,-0.6 0.5,-0.5 0.5,-0.8 -0.2,-1 -0.3,-0.1 -0.6,-0.5 -0.7,-0.8 -0.3,-0.6 -1,-0.9 -1.4,-0.4 -0.4,1 -0.9,0.6 -1.4,0.2 -0.6,-0.4 -1.2,-0.7 -1.8,-0.3 l 0.2,1.2 c 0.3,0 0.8,-0.3 1,-0.1 0.7,0.6 1.3,0.3 2.2,-0.3 l -0.7,2.6 2.6,-0.5 m 13.7,17.3 h 0.4 c 0.3,0.6 0.6,1.1 1.4,0.9 l 1.7,-0.4 h 0.6 c 0,0.1 0,0.4 -0.2,0.5 -0.4,0.5 -0.6,1 0.2,1.2 0.2,0 0.3,0.2 0.5,0.4 1,-0.7 1,-0.7 0.3,-1.5 -0.4,-0.5 -0.6,-1 0,-1.6 l -1.1,-0.2 h -3.1 l -0.6,-0.3 -0.7,-0.5 0.3,0.8 0.3,0.7 -0.8,-0.2 c -0.2,0 -0.5,0.1 -0.7,0.3 v 0.4 c 0.3,0 0.6,0.2 0.8,0 0.3,0 0.5,-0.3 0.7,-0.5 m -7.1,-0.8 c -0.6,0.2 -0.4,0.4 -0.1,0.8 0.2,0.2 0.2,0.6 0.3,1 l -1,0.2 h -0.6 c 0.3,0.3 0.5,0.5 0.8,0.5 1,0.2 1.9,0.5 2.9,0.6 0.6,0 0.7,-0.5 0.3,-0.8 -0.5,-0.4 -1.1,-0.5 -1.7,-0.8 l -0.2,-0.1 0.5,-0.7 -1.3,-0.7 2.2,-0.5 c -0.1,-1 0,-2.2 -1.5,-2.3 0,0.2 0.2,0.4 0.4,0.5 0.4,0.1 0.6,0.3 0.5,0.7 v 0.6 l -1.5,1 m -75.2,-13 -0.3,-1 c -0.3,0.3 -0.6,0.4 -0.7,0.7 -0.1,0 0,0.5 0.2,0.5 l 0.8,-0.2 c 0,0.4 0,0.7 -0.2,1.3 l 0.5,0.6 0.9,-1 c 0.5,0.5 0.6,1.4 1.6,1 l 0.5,-1 -1.1,-0.2 v -1.4 l -2.2,0.7 m 49.4,-16.9 -1,-0.7 1.1,-2 h -1.2 c -0.6,-0.3 -0.8,0.2 -1,0.6 l 0.1,1 0.5,1.7 v 0.2 l 0.7,-0.5 1.1,0.9 -0.3,-1.2 c 0.9,0 1,0 0.7,-1.3 -1,0 -1,0 -0.7,1.3 m 35.5,49.1 0.3,-0.9 0.5,0.6 0.3,-0.2 -1,-1.2 -0.7,0.8 0.7,1 c 0.1,1 0.7,1.9 1.7,2.4 l 0.5,-0.5 2.8,0.1 c -0.4,-0.8 -0.9,-1 -1.5,-0.7 -0.8,0.2 -1.4,0 -2,-0.6 l -1.6,-0.8 M 164,-9.6 c -1,-0.1 -1.9,-0.1 -2.1,1.2 0.2,0 0.6,0 1,-0.2 0.4,-0.2 0.7,-0.6 1,-1 l 0.4,1.4 c 0.4,-0.4 0.5,-0.7 0.6,-1 0.1,-0.2 0.3,-0.4 0.2,-0.6 0,-0.2 -0.3,-0.3 -0.6,-0.4 -0.1,0.7 -0.1,0.7 -0.5,0.7 M 97.5,-188 l 2,1 v -0.8 c -0.7,0.2 -1.2,-1 -2,-0.2 l -0.4,-0.7 0.1,-0.9 -1.5,1.3 1.8,0.3 m 98.2,6.2 0.6,0.7 -1,0.6 0.1,1.8 h 0.2 l 0.1,-0.9 c 0.7,0.8 0.5,2 -0.3,2.5 0.4,0.5 1.5,0.8 1,1.8 -0.1,0.1 -0.6,0 -1,0.2 l -0.3,0.5 0.9,1.9 -1.2,-0.7 0.1,0.7 c 0.5,0.4 0.5,1.1 0.7,1.6 0.5,0.7 0.3,1.1 0,1.5 l 0.8,0.7 -0.4,0.8 -0.8,-0.7 -0.2,0.2 0.8,1.7 c -0.6,0.8 -0.7,1.5 0,2.1 -0.3,0.7 -0.5,1.3 0.3,1.9 0.2,0.2 0.2,0.7 0.2,1.1 l -0.4,0.2 c -0.1,0.8 -0.6,1.9 -0.3,2.3 0.8,1 -0.3,1.6 0,2.4 h 0.5 c 0.5,0 0.7,0.1 0.3,0.6 -0.3,0.5 -0.2,1 -0.1,1.5 v 3.6 c 0,0.3 -0.2,0.7 0,0.9 0.5,0.7 0.1,1.2 -0.4,1.6 -0.8,1 -0.8,1.2 0,2.1 0.5,0.4 0.8,0.9 0,1.4 -0.4,0.3 -1,0.9 0.1,1.3 0.2,0.1 0.3,0.7 0.4,1.2 l -1,0.2 0.4,1.8 c 0,0 -0.4,0.2 -0.4,0.4 l 0.4,0.7 c 0.7,0.7 0.6,1 0,1.7 -0.3,0.3 -0.4,1 -0.2,1.3 0.7,0.8 0.3,1.7 0.4,2.5 l -0.5,0.3 0.5,0.6 -0.8,0.7 c 0.8,0.7 0.5,1.5 0,2.3 -0.2,0.6 -0.2,1.2 0.3,1.8 v 1 c 0,0.8 -0.3,1.6 0.2,2.4 0.2,0.4 0,0.9 0,1.3 0,0.6 -0.3,1.1 -0.1,1.6 0.3,1 0.7,2 0.2,3 -0.2,0.3 0,0.7 0,1.1 l -0.2,1 -0.2,0.2 0.2,2.4 c 0.1,1.3 0.3,2.5 -0.1,3.9 -0.2,0.7 0.2,1.6 0.2,2.4 l -0.2,3.7 c 0,0.4 -0.2,0.8 -0.1,1.1 0.3,1.1 0,2.2 -0.2,3.3 -0.1,0.9 0.1,1.8 0.2,2.7 l -0.1,1.2 -0.2,0.5 0.1,5.2 c 0,1.1 -0.3,2.3 -0.1,3.4 0.1,1.4 -0.2,2.7 -0.3,4.1 v 6.8 l -0.2,4 v 3 l 0.2,4.5 c 0,1.2 0.3,2.4 -0.2,3.5 v 0.2 c 0.6,0.8 0.4,1.7 0.4,2.6 -0.2,1.4 0,2.7 0,4 l 0.2,4.6 0.2,0.7 0.2,1.2 c -0.3,2.3 -0.2,4.6 -0.1,7 0,1.1 -0.3,2.2 -0.4,3.4 v 0.2 c 0.5,1 -0.2,1.9 -0.3,2.8 l -0.1,1.7 -0.2,1.3 c 1,0.2 0.5,1 0.5,1.6 v 1.6 c 0.2,1.2 0.2,2.5 0.3,3.8 v 1.3 c -0.5,1 -0.1,2 -0.3,3 v 3.9 l 0.1,0.7 c 0.2,1 0.7,2 0.5,2.7 -0.3,0.8 -0.1,1.5 -0.2,2.3 v 3 c 0,1.5 -0.8,2 -2.1,1.4 -0.2,0 -0.3,-0.2 -0.5,-0.3 0,1 0.2,1 3,1 -0.3,1.3 -0.2,2.5 0.3,3.8 0.1,0.2 0,0.5 0,0.8 l 0.2,2.2 v 9.4 c -0.8,0.2 -1.4,0.6 -2,0.6 -1.2,0.2 -2.4,0.8 -3.6,0.6 -1,-0.2 -1.9,-0.2 -2.8,0.3 -0.2,0 -0.7,0 -0.9,-0.3 -0.4,-0.3 -0.6,-0.4 -1,0 -0.5,0.6 -1.1,0 -2,-0.4 h -0.5 c -1.6,0.5 -3.3,-0.2 -4.9,-0.3 L 176.2,11 c -0.6,0 -1.3,-0.4 -1.8,0.3 h -0.5 C 172.7,10.9 171,11 170.2,10.8 l -2.3,-0.2 h -0.4 c -1.2,-0.1 -2.4,0.7 -3.5,0.5 h -2 c -2.2,0 -4.4,-0.2 -6.6,0 -1.9,0.2 -4,-0.1 -5.6,1.2 -0.2,0 -0.6,0.2 -0.8,0 -1,-0.7 -2.2,-0.3 -3.4,-0.3 -1.3,0 -2.6,-1.6 -4,-1.3 -0.3,0 -0.6,0.1 -0.8,0 -1,-0.4 -2,0.1 -2.8,0.6 -0.5,0.3 -1,0.4 -1.6,0.5 L 133.8,12.1 132,12 c -1,0 -2.1,0.1 -3,-0.4 -1,1 -2.3,0.3 -3.4,0.6 -0.5,0.1 -1,-0.2 -1.6,-0.3 -1.9,-0.1 -3.7,-0.3 -5.5,0 -1.2,0.1 -2.5,-0.2 -3.7,-0.2 h -9.4 c -1,0.1 -2.2,0.4 -3.3,0.4 -0.5,0 -1,-0.3 -1.3,-0.3 l -4.7,0.5 c -1.1,0.1 -2.2,0.4 -3.4,-0.1 -0.3,-0.1 -0.8,0.1 -1.2,0.2 -0.5,0.2 -1,0.5 -1.5,0.5 -1.7,0 -3.4,0.3 -5.1,-0.4 -0.7,-0.3 -1.8,-0.1 -2.6,0.2 -1.2,0.5 -2.4,0 -3.6,-0.1 l -1.3,0.2 -1.5,0.1 h -0.6 c -2,0.9 -4.1,0 -6.1,0 h -1.3 l -1,0.1 c -0.8,0 -1.6,-0.2 -2.4,0 -1.7,0.5 -3.4,0.4 -5,-0.2 -0.2,-0.1 -0.6,-0.2 -0.7,-0.1 -0.7,0.5 -1.5,0.2 -2.2,0.1 h -0.8 l -3.5,0.5 -6.2,0.5 c -1.1,0 -2.3,-0.3 -3.4,-0.5 h -1 c -1.2,0.6 -2.3,0.2 -3.5,0 H 38 C 36.5,13.8 35,13 33.5,13.1 h -0.7 l -3,-0.1 c -2.2,0 -4.2,0 -6.3,0.2 -0.4,0 -0.7,0.2 -1,0.3 -0.7,0.4 -1.3,0.4 -2,0.1 -1,-0.3 -1.9,-0.3 -2.8,-0.3 -1,0.1 -1.8,0.5 -2.7,0.6 -0.8,0.1 -1.5,0 -2.2,-0.1 H 11 c -0.7,-0.1 -1.4,0 -2,-0.2 -1,-0.5 -2,0 -3.1,-0.1 L 4.3,13.3 H 0.1 c -1.8,-0.2 -3.6,-0.4 -5.3,-0.8 -0.7,-0.1 -1.4,-0.4 -2,0.2 H -8 c -0.7,-0.5 -1.4,-0.1 -1.8,0.4 -1.2,1.5 -2.7,0.8 -4.1,0.6 L -17,13.3 h -3.4 c -1.2,0.1 -2.5,0.1 -3.7,0.3 -1.7,0.1 -2.5,-1 -2,-2.7 0.3,-1 0.6,-1.8 -0.2,-2.7 -0.3,-0.3 -0.1,-1.3 0.1,-1.8 0.4,-0.9 0.1,-1.6 -0.3,-2.3 -0.4,-0.7 -0.4,-1.2 0,-2 0.2,-0.2 0.2,-0.7 0.2,-1.1 V 0.4 c 0.5,-1.4 0.3,-2.7 0.1,-4.1 v -0.9 c 0,-0.5 0,-1 -0.4,-1.4 -0.3,-0.4 0,-1.3 0,-1.9 v -1.5 c 0,-0.3 -0.3,-0.6 -0.2,-0.7 0.9,-1.4 -0.4,-3 0.2,-4.4 v -0.8 c -0.2,-2.3 -0.6,-4.6 -0.5,-7 0,-1.5 -0.3,-3 0.3,-4.6 0.1,-0.5 -0.4,-1.2 -0.5,-1.8 0,-0.4 -0.2,-1 0,-1.1 0.6,-1 0,-1.9 0.1,-2.8 l 0.4,-3.4 c 0,-0.7 0.3,-1.3 -0.2,-2 -0.2,-0.2 0,-0.8 0,-1.2 v -1.2 c 0,-1.4 -0.2,-2.7 0.2,-4 l -0.2,-1.3 v -0.2 l 0.2,-3 -0.2,-1 c -0.1,-0.4 -0.4,-1 -0.2,-1.1 0.8,-1 0.3,-2 0,-2.9 0,-0.6 -0.5,-1.2 0,-2 0,0 0,-0.3 -0.2,-0.5 -0.5,-1 -0.7,-2 0,-3 0.3,-0.3 0.3,-0.8 0.2,-1.1 0,-0.7 -0.3,-1.3 -0.4,-2 0,-0.5 0.3,-1.2 0.2,-1.8 l -0.7,-3.5 c -0.1,-0.3 -0.2,-0.7 0,-0.8 1,-0.8 0.4,-2 0.4,-3 0,-1.2 -0.4,-2.4 -0.6,-3.6 l 0.3,-1.2 c 0,-0.4 0.2,-0.8 0,-1 -0.5,-0.9 -0.4,-1.8 -0.2,-2.7 0,-0.7 0.5,-1.4 0.5,-2 0,-0.6 -0.2,-1.2 -0.5,-1.7 -0.4,-0.6 -0.5,-1.1 -0.2,-1.8 0.2,-0.3 0.2,-0.7 0.2,-1.1 v -2.9 l -0.2,-0.9 v -1.3 a 5,5 0 0 0 0.5,-2.6 c -0.2,-1.3 0,-2.5 0,-3.8 0.2,-2.3 -0.4,-4.6 -0.5,-7 0,-0.7 0.3,-1.3 0.3,-2 l -0.1,-2.4 v -1.8 c -0.1,-0.4 0,-0.8 -0.2,-1.2 -0.2,-0.5 -0.3,-1 0.1,-1.5 v -8.1 c 0,-0.6 0.3,-1.3 0.4,-2 v -1 c -0.4,-1.2 -0.1,-2.3 0,-3.5 0.2,-0.8 0,-1.7 0,-2.5 -0.3,-1.6 0.2,-3.2 0.4,-4.8 v -1 l -0.2,-0.9 c 0,-0.7 0,-1.3 0.2,-2 0.1,-1.4 0,-2.8 -0.2,-4.2 -0.2,-1.3 0,-2.7 -0.1,-4 0,-1.4 -0.3,-2.9 -0.5,-4.3 0,-0.5 -0.2,-1 0,-1.4 0.3,-1.1 -0.3,-2.1 -0.2,-3.2 0.1,-1 0.2,-2 0.1,-3 0,-1.6 0.3,-3.4 -0.3,-5 v -0.4 c 0.9,-1 0.1,-2 0,-3 v -0.3 c 0.9,-1.2 -0.6,-2.6 0.3,-3.8 0.2,-0.3 0,-1 -0.1,-1.6 v -1 l -0.3,-1.3 c 0,-0.3 -0.2,-0.6 -0.1,-0.9 0.5,-1.5 -0.3,-3 -0.2,-4.4 0,-0.8 -0.3,-1.6 -0.4,-2.4 l -0.4,-3.7 c 0,-0.1 -0.2,-0.3 -0.1,-0.4 0.8,-1.4 -0.5,-2.6 -0.3,-3.9 0.1,-1 0.6,-2 0.8,-2.7 -0.1,-1 -0.4,-1.8 -0.3,-2.7 0,-2 0,-4 0.5,-6 0.2,-0.9 -0.1,-1.9 -0.2,-2.9 0,-1 -0.1,-2.1 0,-3.2 0,-2 0.2,-4.1 0.5,-6.2 0.1,-1 -0.1,-2 -0.3,-2.8 l 0.1,-0.7 0.2,-1.7 0.2,-0.8 0.9,-5.9 0.2,-4 v -8.1 l 0.2,-2 -0.1,-4.4 -0.1,-2.3 v -4.5 c 0,-1.1 -0.4,-2.3 -0.5,-3.4 v -1.7 c 0,-1.5 0.3,-3.2 -0.1,-4.6 -0.4,-1 0,-1.6 0.2,-2.5 l -0.3,-3 c 0,-1.5 -0.8,-2.8 -0.4,-4.3 0.2,-1.1 -0.2,-2.3 -0.3,-3.5 0,-0.4 2,-0.4 2.5,-0.2 0.5,0.3 7.6,-0.6 9.6,-0.3 0.3,0 4.4,-1 6,0 1.3,-0.2 7.8,0.8 8.3,0.8 a 32.2,32.2 0 0 1 3.5,0.4 l 0.6,0.3 c 1.7,-0.8 3.5,0 5.2,-0.3 1.4,-0.2 3,0.2 4.4,0.3 h 3.3 a 68,68 0 0 0 3.5,-0.5 c 1.4,-0.2 2.7,0.4 4,-0.2 1,-0.4 2.2,-0.2 3.3,-0.3 l 1,0.1 c 0.7,0.3 1.3,0.4 2,-0.1 H 29 c 0.8,0.7 1.5,0.1 2.3,0 l 1.2,-0.2 h 0.8 l 4,-0.3 h 0.8 c 0.4,0.1 1,0.3 1.3,0 0.7,-0.2 1.2,-0.1 2,0.2 0.6,0.2 1.3,0.8 2.2,0.2 0.3,-0.2 0.9,0.2 1.4,0.2 l 4.6,-0.2 2.4,0.1 1.7,0.4 c 1.3,0.1 2.5,-0.6 3.8,-0.6 1.7,0 3.3,-0.5 5,-0.5 l 7.1,-0.2 c 1,0 2,-0.3 3,-0.4 l 2.8,-0.2 4.7,-0.2 c 1,0 2,1.2 3.1,1 1,-0.2 2.2,0.3 3.3,0.5 h 1.7 l 3.4,0.2 c 1.5,0.2 3,-0.6 4.6,-0.5 1.5,0.2 3,-0.4 4.4,-0.3 1.2,0.1 2.4,0.4 3.6,0.4 l 3.6,0.3 c 0.4,0 0.8,-0.3 1.3,-0.3 h 3 l 0.7,0.2 c 0.5,-0.2 1,0.6 1.5,0.3 -0.2,-1.2 1,-1 1.6,-1.4 0.4,-0.3 1,-0.4 1.4,-0.6 0.6,-0.3 1.1,-0.3 1.6,0.1 0.6,0.5 1.2,0.8 1.6,1.3 0.6,0.7 1.4,0.7 2.2,0.7 l 8.1,-0.5 5.2,0.2 0.9,-0.1 c 0.6,-0.5 1.1,-0.4 1.9,-0.2 0.8,0.2 1.7,0.1 2.6,0.1 h 4.3 l 4,-0.2 5.3,-0.1 6.2,-0.3 7.2,-0.8 10,0.6 c 1.8,0 14.5,-0.7 15.4,-0.9 0.7,0 1,0.2 0.8,0.9 -0.3,1.5 0.6,2 0.2,3.6 v 7.5 c 0.3,1.9 -1.2,3.8 -1,5.6 l 0.1,1.1 v 3.2 c 0.2,0.8 -0.3,1.9 0.8,2.5 v 0.6 a 5.6,5.6 0 0 0 -0.3,3.5 v 0.7 c 0,0.8 0,1.5 0.7,2 0.8,0.6 -0.2,0.7 -0.5,1 0.2,1.2 -0.5,2.4 -0.3,3.6 0.1,0.8 0,1.4 -0.6,1.7 l 0.4,3 c 0,0.5 0,1 0.2,1.5 0.3,0.8 0.4,1.6 -0.5,2.2 l -0.4,0.7 1,0.4 -0.7,2.1 c 0.7,0.2 1.1,0.8 1,2 -0.2,0.8 -0.1,1.6 -0.1,2.5 0,0.2 0,0.5 -0.2,0.7 -0.7,0.6 -0.3,1.1 0,1.8 0.4,0.7 0.7,1.4 -0.2,2 -0.3,0.3 -0.2,1.1 -0.3,1.7 l 0.7,0.3 -0.5,0.5 0.8,2 c 0.5,1.1 0.3,1.4 -0.5,2.2 -0.4,0.4 -0.3,1.2 -0.2,1.9 0,0.4 0.3,0.8 0.3,1.3 1,0.7 1.3,1.7 1,3 v 2 c 0,0.3 -0.1,0.7 -0.3,1 -1,1.2 -0.9,2.2 0.2,3.3 l 0.1,0.3 c -0.5,0.5 -0.6,2.5 -0.1,3.1 0.9,1.3 0.8,2.5 0,3.8 -0.3,0.4 -0.4,1 0,1.5 0.4,0.4 0.6,0.8 0.7,1.3 0,0.1 0,0.5 -0.2,0.6 -0.9,1 -0.9,1 -0.6,2.1 l -0.2,1.6 c 0,0.9 -0.1,1.8 0.7,2.5 0.2,0.1 0.4,0.7 -0.3,0.8 l -0.2,0.7 c 0,0.8 0.2,1.5 0.3,2.3"
       style="fill:#231f20"
       transform="matrix(4.16667,0,0,4.16667,126,1158.8)"
       id="path4539" /><path
       d="m 0,-1 c -0.3,0.4 -0.5,0.8 -0.8,1 l -1.5,0.5 c -0.5,0.1 -1,0 -1.6,0 -1,0 -1.6,-0.3 -1.6,-0.9 0,-0.5 1.3,-1.2 2,-1.1 L 0,-1"
       style="fill:#231f20"
       transform="matrix(4.16667,0,0,4.16667,348,1230.5)"
       id="path4541" /><path
       d="M 0,1.8 C -0.1,0.5 1.5,-0.4 2.3,0.2 2.7,0.4 2.9,0.8 3.3,1.2 3.5,0.4 4,0.5 4.6,0.7 L 7.2,1.2 C 6.8,2.2 6,2.2 5.4,2.1 4.4,1.9 3.3,2.2 2.4,1.4 H 1.7 c -0.6,0 -1.1,0.2 -1.8,0.4"
       style="fill:#231f20"
       transform="matrix(4.16667,0,0,4.16667,872.4,1220.3)"
       id="path4543" /><path
       d="m 0,-0.6 3.2,-0.8 0.6,0.8 C 2.8,-0.3 2.1,0.7 1,-0.1 0.8,-0.2 0.2,0 0,0.3 -0.5,0.8 -1,0.8 -1.5,0 L 0,-0.6"
       style="fill:#231f20"
       transform="matrix(4.16667,0,0,4.16667,841,1231.4)"
       id="path4545" /><path
       d="M 0,1 1.4,0.4 2,0 c 0.4,-0.2 1,-0.4 1.4,-0.4 0.2,0 0.5,0.3 0.6,0.6 L 3.7,0.8 C 3.2,1 2.6,1.2 2.1,1.2 L 0.1,1.1 0,1"
       style="fill:#231f20"
       transform="matrix(4.16667,0,0,4.16667,135.8,1231.8)"
       id="path4547" /><path
       d="m -1.4,-1.6 c -0.7,0.6 -0.8,1.7 -0.5,3 l 0.5,-0.6 h 0.7 l -0.7,-2.4"
       style="fill:#231f20"
       transform="matrix(0.02908861,-4.1665685,-4.1665685,-0.02908861,161.37625,1230.0077)"
       id="path4549" /><path
       d="M 0,0.4 0.5,-0.3 1.7,0.1 V 0.3 L 0.1,0.7 0,0.4"
       style="fill:#231f20"
       transform="matrix(4.16667,0,0,4.16667,824.9,1231.2)"
       id="path4551" /><path
       d="M 0.6,-0.6 0,0.4 0.5,0.5 0.9,-0.4 0.5,-0.6"
       style="fill:#231f20"
       transform="matrix(-0.31241161,4.1549414,4.1549414,0.31241161,865.60916,1223.1383)"
       id="path4553" /><path
       d="M -0.6,-0.7 -1.2,0.4 -0.6,0.7 0,-0.4 -0.5,-0.7"
       style="fill:#231f20"
       transform="matrix(0.65181079,-4.1153714,-4.1153714,-0.65181079,660.81901,261.21924)"
       id="path4555" /><path
       d="m 0,11.9 c -0.1,-1 -0.5,-2 -0.4,-3 0.2,-2 1.2,-3.8 0.9,-6 C 0.3,2 0.9,1 1,0 L 1.3,-2 C 1.4,-2.9 1.8,-3.8 1.7,-4.6 1.5,-6 2,-6.9 2.4,-8 c 0.2,-0.5 0,-1.2 0.2,-1.7 0.3,-1 0.6,-2 1.1,-3 0.5,-0.8 1.2,-1.4 1.8,-2 a 19,19 0 0 1 1.8,-1.7 c 0.6,-0.4 1.2,-0.9 1.9,-1 0.6,-0.3 1.2,0 1.4,0.7 0.8,-0.6 2.3,-0.2 2.8,0.6 l 0.7,0.6 c 1.2,0.3 1.9,0.8 1.7,2.2 l 0.3,4 0.3,4.3 c 0,0.7 0.4,1.5 0.1,2 -0.5,1 -0.2,1.9 -0.3,2.8 v 2 c 0,0.5 0.2,1 0,1.4 -0.4,1.7 -0.3,3.4 -0.1,5.1 l -0.1,1.2 -0.2,6.2 0.3,1.9 c 0.1,1.1 0.4,2.3 0.1,3.5 v 0.5 c 0.2,1.3 0.3,2.7 0.3,4 0,1.2 -0.5,1.5 -1.7,1.7 -0.9,0.1 -1.7,0.4 -2.5,0.6 H 11.5 L 10.9,28 c -2,1.5 -3.8,1 -5.4,-0.4 -1.2,-1 -2.2,-2 -3,-3.2 C 1.9,23.5 1.6,22.4 1.8,21.2 1.9,20.3 1.6,19.5 1.4,18.6 1.3,17.7 1.2,16.8 0.9,15.9 0.4,14.9 0.7,13.6 -0.1,12.6 L 0.2,11.8 H 0"
       style="fill:#231f20"
       transform="matrix(4.16667,0,0,4.16667,208.3,918.1)"
       id="path4557" /><path
       d="m 0,-74.9 c -0.9,1 -0.8,1.1 0.1,1.5 0.4,0.1 0.7,0.4 1,0.6 0.3,0.3 0.6,0.6 1,0.6 0.7,0.1 1.3,0.6 1.9,0.9 0.9,0.4 1.3,1.1 2,1.8 0.9,1 1.9,2 2.6,3.3 0.7,1.1 1,2.5 1.6,3.8 l 0.8,1.7 c 0.3,0.7 0.6,1.5 0.7,2.2 0.5,2.2 1.1,4.4 1.2,6.6 0,2.4 1.2,4.4 1.6,6.6 l 0.3,2.6 c 0.1,1.7 0.4,3.5 0.4,5.2 0,1.5 -0.3,2.9 -0.4,4.3 0,0.3 -0.2,0.7 0,0.9 0.4,0.8 0.2,1.6 0,2.4 l -0.5,2.9 -1.2,3 -0.2,0.6 a 12,12 0 0 1 -1.8,6.7 l -0.2,0.5 c -0.1,1.4 -0.1,2.9 -0.4,4.2 -0.1,1 -0.6,2 -1,3 l -1,2 -2.4,3.2 -0.3,0.3 c -0.1,1.6 -1.5,2.2 -2.6,2.8 -1,0.6 -2.5,0.7 -3.9,1 0,0 -0.4,-0.4 -0.4,-0.7 l -0.1,-1 -0.3,-4.7 -0.5,-5.2 v -0.6 c 0.3,-1 0.3,-2 0,-3 -0.2,-0.2 -0.3,-0.5 -0.2,-0.7 0.4,-1.2 0.1,-2.3 -0.3,-3.4 v -0.7 A 8,8 0 0 0 -2.6,-24 v -0.7 c 0,-0.5 0.2,-1.1 0,-1.4 -0.5,-0.6 -0.2,-1.2 -0.2,-1.8 l -0.2,-3 v -3.4 c 0,-0.5 -0.2,-1 0,-1.5 0.6,-1.6 0,-3.2 -0.3,-4.7 -0.3,-1.3 0,-2.4 0.1,-3.6 0.2,-1.2 0.5,-2.4 0.5,-3.6 -0.2,-2.6 0,-5.2 0.3,-7.8 l -0.2,-3.3 V -64 l 0.3,-4 v -6 c 0,-0.7 0.2,-1.2 1,-0.8 0.3,0.1 0.7,0 1.3,-0.1"
       style="fill:#231f20"
       transform="matrix(4.16667,0,0,4.16667,149.6,560.7)"
       id="path4559" /><path
       d="m 0,-6.5 c -0.2,0.4 -0.4,0.7 -0.4,1 L -0.1,-5 0.6,-5.8 0,-6.5 m -1,-1.3 c -0.3,0.3 -0.6,0.5 -0.6,0.7 l 0.4,0.6 1,-0.5 -0.7,-0.8 m 2.3,-2.9 0.2,3 -0.2,2.7 0.2,1.7 0.2,1.6 c 0,1 0,2 -0.2,2.9 -0.5,1.5 0,3.1 -1,4.5 -0.2,0.3 0,0.9 0,1.3 l -0.5,1.4 -2,3.5 -0.3,0.6 -2.7,2.2 -0.4,0.6 c -0.4,1 -1,1.3 -2.2,1.2 -1.1,0 -2.3,0 -3.5,-0.2 -0.3,0 -0.6,-0.3 -0.9,-0.5 l -2.9,-1.4 a 3.2,3.2 0 0 1 -1.7,-2 c -0.5,-1.7 0,-3.4 0.1,-5 0.2,-1.5 0,-3 0.1,-4.4 0,-0.7 0.2,-1.3 0.3,-2 -0.8,-1.3 0.4,-2.7 -0.2,-4 -0.1,0 -0.1,-0.2 0,-0.4 0.3,-1.3 0.3,-2.6 0.8,-4 0.4,-1.2 0.7,-2.6 -0.3,-4 -0.3,-0.4 -0.2,-1.2 -0.2,-1.9 v -3.8 l 1.9,-1.2 c 0.3,-0.3 0.6,-0.7 0.7,-1.1 0.2,-0.6 0,-1.4 0.9,-1.4 0,0 0.2,0 0.2,-0.2 0.5,-1.7 2.1,-1.5 3.4,-1.8 0.9,-0.3 1.8,-0.2 2.8,-0.3 1.4,0 2.5,0.7 3.2,2 0.1,0.3 0.3,0.5 0.6,0.6 0.7,0.4 1,1 1.3,1.9 0.4,1 0.6,2.2 1.4,3.2 1,1.4 0.9,3.1 0.8,4.7"
       style="fill:#231f20"
       transform="matrix(4.16667,0,0,4.16667,533.3,654.4)"
       id="path4561" /><path
       d="m 0,-4.6 c 1.4,0.4 2.3,0.8 2.7,0.7 0.5,0 1,0.3 1.3,0.5 0.4,0.3 0.6,0.8 0.7,1.3 L 4.1,-1.5 C 2.7,-1.1 1.4,-0.4 0,0 -0.7,0.2 -1.3,0.6 -1,1.6 v 2.2 c 0,0.4 0,1 0.3,1.3 0.4,0.7 0.4,1.7 -0.1,2.1 -0.7,0.6 -1.6,0.5 -2.3,0 l -3,-2.4 C -6.4,4.5 -6.7,4.6 -7.1,5 L -8.5,6.5 -9.2,6.9 -10,7.4 c -0.6,0.3 -1.3,0.7 -2,0.8 -0.7,0 -1.2,-0.4 -1,-1.3 0,-1.2 0.1,-2.4 0.4,-3.6 0.2,-1 -0.1,-1.7 -1.1,-2.3 l -1.5,-0.7 -2,-0.4 c -1.2,-0.2 -0.8,-1.2 -1.1,-1.9 0,-0.1 0.4,-0.6 0.7,-0.7 l 3.7,-1.6 c 0.3,-0.2 0.5,-0.7 0.4,-1 0,-2.1 -0.3,-4.2 -0.4,-6.4 0,-0.3 0.5,-0.8 1,-1.1 0,-0.1 0.7,0.2 0.8,0.4 1.2,2 3,3 5,4 1.5,0.7 2.3,0.3 2.8,-1.5 0.3,-0.7 1.7,-1.7 1.9,-2 0.5,-0.5 1.1,-0.6 1.5,0 0.3,0.7 0.5,1.5 0.4,2.2 l -0.4,3.4 c -0.4,1.3 0.2,1.8 0.8,1.7"
       style="fill:#231f20"
       transform="matrix(4.16667,0,0,4.16667,829.1,181.7)"
       id="path4563" /><path
       d="M 0,-2.2 -0.2,0 H 0 L 1,-1 0,-2.3"
       style="fill:#231f20"
       transform="matrix(-3.9349047,1.3702788,1.3702788,3.9349047,645.47737,74.62173)"
       id="path4565" /><path
       d="m -0.6,-0.8 -0.7,1.4 0.7,0.2 0.3,-1.5 -0.3,-0.1"
       style="fill:#231f20"
       transform="matrix(0.77361152,-4.0942233,-4.0942233,-0.77361152,615.84143,65.602565)"
       id="path4567" /><path
       d="M 0,0.7 -0.7,0.8 V 2.1 L -2.3,1.7 C -2.7,1.2 -1.6,0.5 -2.4,0 L -4,-0.8 c 0.6,-0.3 1.3,-0.6 2,0.1 0.6,0.5 1.4,0.8 2,1.1 v 0.3"
       style="fill:#231f20"
       transform="matrix(4.16667,0,0,4.16667,45.1,1058.6)"
       id="path4569" /><path
       d="M 0.3,-0.5 0.1,0.7 h 0.2 l 1,-0.7 -1,-0.5"
       style="fill:#231f20"
       transform="matrix(1.9625511,3.6755315,3.6755315,-1.9625511,587.06473,82.693601)"
       id="path4571" /><path
       d="M 0,-0.7 H 1.9 C 1.6,0 0.6,0 0,-0.6"
       style="fill:#231f20"
       transform="matrix(4.16667,0,0,4.16667,537,65)"
       id="path4573" /><path
       d="m 0,-0.2 -0.9,0.4 -0.6,0.2 c 0,-0.2 -0.2,-0.4 -0.1,-0.5 0.1,-0.2 0.3,-0.4 0.5,-0.4 0.4,0 0.8,0 1.1,0.2 v 0.1"
       style="fill:#231f20"
       transform="matrix(4.16667,0,0,4.16667,574.5,99.7)"
       id="path4575" /></g></svg>
