<?xml version="1.0" encoding="UTF-8" standalone="no"?>
<!-- Created with Inkscape (http://www.inkscape.org/) -->

<svg
   width="7.9053841mm"
   height="8.1709452mm"
   viewBox="0 0 7.9053841 8.1709452"
   version="1.1"
   id="svg2282"
   inkscape:version="1.2.2 (732a01da63, 2022-12-09, custom)"
   sodipodi:docname="paletti_icon_inverted.svg"
   xmlns:inkscape="http://www.inkscape.org/namespaces/inkscape"
   xmlns:sodipodi="http://sodipodi.sourceforge.net/DTD/sodipodi-0.dtd"
   xmlns="http://www.w3.org/2000/svg"
   xmlns:svg="http://www.w3.org/2000/svg">
  <sodipodi:namedview
     id="namedview2284"
     pagecolor="#ffffff"
     bordercolor="#000000"
     borderopacity="0.25"
     inkscape:showpageshadow="2"
     inkscape:pageopacity="0.0"
     inkscape:pagecheckerboard="0"
     inkscape:deskcolor="#d1d1d1"
     inkscape:document-units="mm"
     showgrid="false"
     inkscape:zoom="0.72515432"
     inkscape:cx="104.11577"
     inkscape:cy="178.58268"
     inkscape:window-width="1850"
     inkscape:window-height="1016"
     inkscape:window-x="0"
     inkscape:window-y="0"
     inkscape:window-maximized="1"
     inkscape:current-layer="layer1" />
  <defs
     id="defs2279" />
  <g
     inkscape:label="Ebene 1"
     inkscape:groupmode="layer"
     id="layer1"
     transform="translate(-77.777042,-101.36048)">
    <path
       d="m 83.896975,101.99416 c 0.100471,-0.067 0.164817,-0.10936 0.246133,-0.1658 0.01153,0.33514 0.237772,0.51505 0.570865,0.49036 0.02335,0.067 0.06018,0.13053 0.0683,0.19755 0.01252,0.10584 0.101459,0.21167 -0.01524,0.32809 -0.03955,0.0388 -0.02233,0.15522 -0.0054,0.2293 0.09874,0.43745 0.353236,0.80434 0.569665,1.18534 0.09038,0.16227 0.140018,0.34572 0.203377,0.51858 0.03687,0.10231 0.05062,0.21519 0.0985,0.31044 0.123825,0.24695 -0.0302,0.49389 0.01302,0.74084 0.0096,0.0529 -0.03267,0.11641 -0.01817,0.1658 0.05994,0.20109 0.01672,0.381 -0.0538,0.5715 -0.08008,0.21873 -0.09726,0.45861 -0.162842,0.68439 -0.09116,0.31045 -0.217664,0.61031 -0.299191,0.92428 -0.04865,0.18697 -0.185737,0.254 -0.322051,0.23636 -0.208068,-0.0247 -0.31443,0.10231 -0.457376,0.19756 -0.34096,0.23283 -0.695184,0.4445 -1.067082,0.67733 -0.0035,0.0176 -0.01746,0.0847 -0.03147,0.15522 -0.05059,-0.0318 -0.100224,-0.0882 -0.1518,-0.0882 -0.178083,-0.007 -0.381494,-0.0494 -0.530578,0.0212 -0.293793,0.13406 -0.588081,0.17287 -0.899548,0.1517 -0.249837,-0.0176 -0.498934,-0.067 -0.743832,-0.0988 -0.310233,-0.0423 -0.614116,-0.16933 -0.940823,-0.17639 -0.09137,0 -0.154023,-0.0529 -0.21149,-0.15875 -0.102941,-0.19403 -0.274885,-0.35278 -0.418077,-0.52564 -0.02311,-0.0282 -0.06265,-0.0529 -0.06657,-0.0847 -0.02113,-0.16228 -0.141993,-0.1905 -0.272415,-0.23989 -0.08795,-0.0353 -0.321063,-0.0141 -0.163125,-0.23284 -0.355953,-0.15875 -0.495476,-0.44802 -0.57531,-0.77963 -0.0054,-0.0247 -0.0052,-0.0529 -0.01866,-0.0741 -0.523945,-0.74436 -0.577497,-1.54869 -0.298203,-2.39183 0.09652,-0.29281 0.182492,-0.58914 0.301907,-0.87489 0.09701,-0.22931 0.208527,-0.46214 0.362797,-0.65617 0.213713,-0.26811 0.480977,-0.49036 0.710424,-0.74789 0.138289,-0.15522 0.240242,-0.34219 0.373627,-0.50094 0.04985,-0.06 0.13656,-0.0988 0.214171,-0.11994 0.141746,-0.0423 0.292806,-0.0529 0.432823,-0.0988 0.391584,-0.127 0.778228,-0.26811 1.169035,-0.39511 0.05013,-0.0176 0.11423,-0.007 0.168522,0.007 0.137548,0.0318 0.276825,0.10936 0.408517,0.0988 0.331611,-0.0317 0.616303,0.0776 0.909108,0.20108 0.124566,0.0564 0.279294,0.0388 0.4203,0.0529 0.04152,0.004 0.09433,-0.0141 0.123578,0.007 0.131656,0.0882 0.256928,0.18344 0.358387,0.25752 z m -0.442207,3.00567 c -0.150601,0.0282 -0.290866,-0.0988 -0.18916,-0.41275 0.01573,-0.0459 0.05627,-0.59619 0.08354,-0.8255 0.02039,-0.16933 -0.02286,-0.36689 -0.0973,-0.52564 -0.08177,-0.17286 -0.245886,-0.15522 -0.366748,0 -0.0388,0.0494 -0.395005,0.28928 -0.449756,0.46567 -0.135361,0.43744 -0.326461,0.5468 -0.711412,0.36336 -0.474804,-0.22931 -0.932956,-0.47978 -1.209534,-0.96661 -0.03563,-0.06 -0.188665,-0.13053 -0.224755,-0.10584 -0.09655,0.067 -0.227471,0.18698 -0.224543,0.2787 0.01746,0.52211 0.07641,1.04069 0.106363,1.55928 0.0047,0.0811 -0.04322,0.21166 -0.105622,0.24341 -0.292558,0.14464 -0.601592,0.25753 -0.898066,0.39511 -0.0786,0.0353 -0.201683,0.14817 -0.189653,0.17639 0.07197,0.16228 -0.01619,0.42686 0.276613,0.46214 0.162348,0.0176 0.325966,0.0529 0.48073,0.10231 0.131657,0.0423 0.252024,0.11994 0.376802,0.18344 0.248602,0.127 0.314925,0.30339 0.265289,0.55739 -0.05722,0.29281 -0.07295,0.5962 -0.11423,0.89253 -0.0302,0.21872 0.107104,0.32455 0.275132,0.31044 0.170003,-0.0212 0.331858,-0.13052 0.494241,-0.20814 0.06509,-0.0318 0.118146,-0.0847 0.181787,-0.12347 0.05553,-0.0318 0.130422,-0.0388 0.175154,-0.0811 0.127,-0.11641 0.253259,-0.23989 0.359868,-0.37747 0.07835,-0.1023 0.15106,-0.10936 0.239748,-0.0388 0.245886,0.18697 0.490291,0.381 0.73152,0.57502 0.169016,0.13759 0.40065,0.14464 0.557107,0.007 0.121849,-0.10583 0.116946,-0.35631 0.01796,-0.52564 -0.05087,-0.0882 -0.0678,-0.20461 -0.07225,-0.30692 -0.0103,-0.22577 0.03563,-0.33514 -0.01277,-0.55033 -0.05771,-0.25047 0.08527,-0.32456 0.253753,-0.37747 0.326954,-0.0988 0.663998,-0.28928 0.99314,-0.38453 0.06488,-0.0176 0.16951,-0.11289 0.160655,-0.13758 -0.0393,-0.12348 -0.09063,-0.26106 -0.183727,-0.33514 -0.06166,-0.0459 -0.203165,-0.13053 -0.305576,-0.10936 -0.104669,0.0176 -0.318382,-0.0847 -0.674299,-0.17992 z"
       style="fill:#231f20;fill-opacity:1;fill-rule:evenodd;stroke:none;stroke-width:0.352778"
       id="path1262" />
  </g>
</svg>
