<svg viewBox="0 0 946 1239" xmlns="http://www.w3.org/2000/svg" xml:space="preserve" style="fill-rule:evenodd;clip-rule:evenodd;stroke-linejoin:round;stroke-miterlimit:2"><path d="m0-263.6.6-1.1-1.3.2.7.9m116.5-6.1 1.4-.8c-1.2-.3-1.3-.3-1.4.8m57 60.2-.3-.2-.7 1 .4.3.6-1M99-254l1.4-.2c-.5-.4-1-1-1.4.2M-23-92.7l.8 1.5.4-.9-1.2-.6m46.4-136-1.2.2-.2.3.8.6.6-1.1m143-34.9.4.4.7-.7-.3-.4-.7.7M-13.2-55.4h-1.2l1.4 1-.2-1m127.2-154 .2-.3-1.4-.8c.2.6.4 1.2 1.2 1m58.2-62.3.2.3c.4 0 1 .4 1.1-.8l-1.3.5m-85.7 73 .1.4 1.6-.3v-.4l-1.7.2m22.3 5 .2-.2c-.2-.2-.4-.4-.6-.4l-.8.3v.3h1.2M-16.4-84.4v-.5c-.5 0-.9.2-1.3.3v.4l1.3-.2M161.4-191c-.7 0-.7.6 0 2v-2M-19.1-91l-.2.3c.2.7 1.1 0 1.5.7l.1-.4-1.4-.6m202.3-158.3.2-.2-1.3-.8c0 1 .5 1.2 1.1 1m-196 106.7v-.3h-1.8v.5l1.8-.2m123.6-67.7.3.4.7-.6-.4-.6-.6.8m63.7 3.6v.5l1 .2.3-.6h-1.3m-57.3 7.2-.2-.2c-1.3.5-1.3.5-1.3 1.2l1.5-1m-4-6.3.2-.4-.7-.7c-.1.3-.4.6-.3.7l.8.4M163.4-2.9l.3-.1-.5-1-1 .2c.6.4 1 .7 1.2 1m-82-265h1v-1h-.3l-.7 1m34.5 89h-.6c0 .3 0 .7-.2 1.1h.6l.2-1m27.7-46 .3.4.9-.4-.4-.6-.8.6m-5.5-2v.4l.8.4h.3l-.2-1-.9.2M-9.1-42.2c-.2-.5-.2-.9-.4-1.1-.1-.2-.5-.2-.7-.2v.5l1.1.8m186.3-217.4 1.5.6c-.7-1-1-1.2-1.5-.6M8-49.4c1 .7 1.4.7 1.8 0H7.9m154.6-150.8v-.3c-.3 0-.6-.2-1-.1l-.3.7.2.2 1.1-.5m-178.6 21c-1-.4-1.6 0-1.5.8l1.5-.9m127.4-24.3v.3l1.5-.4v-.3c-.7-.4-1.1 0-1.5.4M-11.5-133c1.5.6 1.5.6 1.8-.1h-1.8m192-73.7v.2l.6.4.7.3.2-.3a2 2 0 0 0-.6-.5l-.8-.1M85.4-251v.3c1 .4 1.1.3 1.5-.3h-1.5m100.8 22.1-.5-.6-1.3.3v.3h1.8m-9.4 36.6-.3.3 1.4.9.3-.4-1.4-.8M-21.7-101l-1 1 1 .6v-1.6m177.1-80 1 1.5.3-1-1.3-.4M52.4-157l-.6-1.3h-.3l-.1 1.2 1 .1m122.3-112.4-.2-.2-1 .7.9.5.3-1M153-9l.2.1.5-1-.7-.4-.8 1 1-.4-.2.7m14.5-172.8c-.2-.5-.3-1-.6-1.3l-1 .3 1.6 1m.3-78.2-.3.2c.3.2.5.6.8.7.1.1.5-.1 1-.3l-1.6-.6M2.5-250.5l-1.2 1.6c1.4-.5 1.6-.8 1.2-1.6m102.8 20.1.1-.2-.8-.8.2.4-.9.7-.2-.1h1.6m78.8 11.8c-.4 1-.2 2 .6 2.2l-.6-2.2m-85 2.9.2-.3c-.2-.2-.5-.5-.7-.5-.3 0-.6.3-.9.5l.1.3h1.3Zm61 1-1.1-.6c-.2 0-.5 0-.7.2v.3l.5.2h1.3M-18.8-82l.5-.7c0-.3-.3-.5-.4-.7-.2.2-.5.3-.5.5l.3 1m3.2-58-1 .5.5 1.3.5-1.7m131 136.2c.2-.4.5-.6.4-.7l-.6-.8-.4.4c0 .3.3.6.5 1m60-269.6-.1-.2-1.1.7v.6l.6-.2.5-.9M140.1-12.9l-1.4-1.3-.2.2c.4.4.3 1.6 1.6 1m-148-122.5.8-.6-.6-1.1c-.7.4-.2 1-.3 1.7M165-8l1.6.8c.1-1-.4-1.2-1.7-.8M-24-32.6l-.1-.3h-1v1.3l1-1m6.2-92.6-1.4-1.1c-.3 1-.2 1 1.4 1.1m205.6-33.5c1 .7 1.4.5 1.6-.6l-1.6.6m-17.2-39.6v-.3c-1-.5-1.2-.4-1.8.6l1.8-.3M-13.3-.7c1-1 1.5.8 2.5.2-1.5-.9-2-1-2.5-.2M180.5-189l2.3.5c-1-1-1.4-1.1-2.3-.5m-89.1-71.1-.1-.6v-.1l.9-.1v-.3h-2v.3l1.2.8m95.8-9.8-1.7.2 1.3 1 .4-1.2M-16.9-97.8l.7 1 1-1.4-1.7.4m127.1-171.7.1-.1c-.3-.2-.5-.6-.8-.6-.3 0-.5.3-.8.5v.2h1.5m-5.3 12.9.3.6.3-.2-.4-1.2-1.4.2v.2l1.2.4m51.8 61.9.5-1.3h-1s-.3.4-.2.5c0 .3.4.5.7.8m29.2-11.7-.1-.2c-.4 0-.9 0-1 .3-.2.3 0 .7 0 1l.3.2.8-1.3m-41.8-7.3c-.8-.7-1.6-.5-2.6.3l2.6-.3M96.8-254c-.1 1.7.2 2 1.2 1.6l-.9-.3.3-1-.6-.3M-19-98.3c.8.5 1.2.3 1.4-.2l-.4-.8-1 1M163-186.1c-.7 0-1.2.1-1.6 0-.8-.4-.8 0-.9.4h1.5l.1.8.9-1.2m-9.2 70.6.2.1.9-1-.2-.7-.6.5-.3 1.1m-5.5-109.1c-1.3 0-2.1.5-2.3 1.4l2.3-1.4M78.4-205c.2 0 .6 0 .7-.2l.7-1.1-.6-.3-.8 1.6m-103 82.5c.4 1 1 .2 1.4.3l.4-.4-.1-.2-1.8.3m208.4-124-.4.6v.1l1.2-.7v-.2l-1.8-.3-.1.3 1 .2M-24.2-12.9c0 .6-.2 1-.3 1.5l1.4-.5v-.3l-1-.7m207.8-174.5c.7 0 1.3.7 2-.3l-2-.4v.7M2.4-255.7l-.4 1.2v.4h.6c.2-.1.5-.4.4-.5 0-.4-.3-.7-.6-1.1m123.3 0 .7-2.3c-1 .1-.7 1-1.2 1.4l.5.9m62.1-19.3-1.5-.8c0 .2-.3.4-.3.7l.3.3 1.5-.2M135-204.7c-1.2-.5-1.3-.5-2.7.8l2.7-.8m48.5 13.6 2.9.2c-1.1-1-1.5-1-2.9-.2M-22.4-98.3l.1.4c.7-.5 1.8-.2 2.3-1.4l-2.4 1m206.5-123-2-.3v.2c.4.4 1 .7 1.5 1l.5-1M-24-69.3l.4.2.7-1c-.3-.1-.7-.3-.8-.2l-.4 1m2.2 63c-1-.7-1.3-.7-2 .2.3.1.4.3.5.4l1.5-.6m184.9-206c.5.5.8 1 1.2 1 .4.1.8-.3 1.3-.5l-2.5-.5M-22.3-90.4l-1.3 1.5c1.4 0 1.5-.2 1.3-1.5m200.5-181.8-1-1.4-.6 1.6 1.6-.2m5.6 43.4-.1-.5-1.9.3-.3.4.2.3 2-.5m3.7 45.2c0 1.2 1.1 2.4 1.9 2.2l-1.9-2.2m-53-11.3 1-1.8-.2-.2-1.4.7.6 1.3M-17.5-23.5l-.2.5 1.2.7.4-.7-1.4-.5m167.2-244.4c-.5-1.2-1.3-1.3-2.2-.5l2.2.5m-54.1 69.2c-1.9 0-1.9 0-1.9.8 1.2 0 1.6-.1 1.9-.8M-18.5-.7l-.1.5 2.3.6.2-.5-2.4-.6m1.6-142v-1l.6.3.2-.2c-.2-.2-.3-.4-.5-.4-.6 0-1.2.2-1.9.4l1.6.9m152.7-39.6.4-.2-.3-1.8-1 1.3 1 .7M-11.7-77.8l1 .7.6-1h-.8v-.6l-.2-.1-.6 1M-22.2-9c.3-1.2.3-1.2-1.6-1 0 1.4.7.1 1 .2l.6.8m134-218.2c-.8-.8-1.2-.3-1.6.2l.6 1.1c.4-.5.6-1 1-1.3m-.5 19.6-1.7 1c1.3.9 1.5.8 1.7-1M122-5.4l-.6-1.3h-.5l-.2 1.4h1.3m8.5-256.8c1-.6-.3-2.2 1.3-2.3-.5 0-1.2.1-1.3.5-.3.5 0 1.1 0 1.8M111-177.9l-1 .5-.2 1 .4.2.6-.8.5-.1-.3-.8m2.2-5.2v-2.4c-1 .6-1 .7 0 2.4m-24.2-77-.1-.4-1.9-.1.7 1.3 1.3-.8m12.1 12 .3-.2-.5-1.3v-.5h-.1l-.8 1 1.1 1m69.7-8.7-1.3-1.4-.7-.4c.9 1.8 1.2 2 2 1.8M1.5-235.6c-.7-.6-1.4-.2-2.1 0 .5.9.9.9 2.1 0m-18.7 103.4.3-.1.3-1.1-1.4-.3-.2.3 1 1.2m-7.3-37.2c-.4.7-.3 1.2.3 1.4.3 0 .7-.2 1.1-.4v-.3l-1.4-.7M166-212.8c.3-.2.3-.6-.1-1-.6-.6-1.2-.3-1.9 0l2 1m-75-1c-1-.7-1.8-.3-2.3 1l2.4-1m92.3 47-.9-.4c-.2-.1-.5-.3-.6-.2-.8.7.8.8.3 1.4h.6l.6-.7m-69-33 .1.2.7-.7c-.3-.4-.6-.9-1-1.2l-1 .3.1.3c1-.1 1.4.1 1 1.1m-19.7 20.1c-1 0-1.1-.5-1-1l-1.6-.2c1.3 1.5 2 1.9 2.6 1.2m19.6-19.2c.1 1.3-1.3.7-1.5 1.4.7.6.9 0 1.1-.4l.1.3 1.2-.4-.9-1M169-186h2.4l-.7-.8c-.5-.5-1.8.3-1.7.8M6.3-22.7l-.3.3.2 2 .7-.4.2-.1c-.8-.6-.8-.6-.3-1.2l.6.3.1-.3-1.2-.6m123.5-138-.3-.2c-.6 0-1.2 0-1.3.8 0 .2.4.5.6.7l1-1.3M89.6-261.5l.2-.2c-1.6-1.2.3-1.2.6-1.8-1.1 0-1.6.8-2.4 1.5l1.6.5m6 68.7 1 1.5 1-1.7-2 .2M125.2-8.7l-.4.2.7 1.7-.4.2 1.5.5-1.4-2.6m51.4-196c.2 0 .8-.1.8-.3.1-.4 0-.9-.2-1.4l-1.1.4.5 1.4m-2.4 14.5-.3.4 1 1.4c.2-.3.6-.9.5-1l-1.2-.8m.9 5 .4-1.1-.4-1-.6-.3-.2.4c0 .2 0 .4.2.5l.5.3c-1.1.5-.1.8 0 1.1m-98-10.2-1.6-.4-.7.4c0 .2.2.5.3.5h1.7l.4-.5m-98 136.5c-.9 0-1.8-.9-2.3.4.8.5 1.6.8 2.2-.4m131.5-207.9c.2-1.6-.2-2.1-1.2-1.8.5.5-.2 1.8 1.2 1.8m38 55 1.1.6.3-1v-1.2l-1.4 1.6M120.8 2.3c-.3-.6-.5-1.2-.9-1.7 0-.1-.5 0-.8 0 0 1 .3 1.7 1.7 1.7m-8.2-197.2v-.2l-2 .4-.7.2v.5c.3 0 .7.3 1 .2l1.7-1M-21.2-94.3l-.6.2-.8-1.1-.3.6c0 .1.3.5.6.5l1.1-.2m9-44.7-.2-.3-2.8 1.2v.3c.4 0 .9 0 1-.2.5-.6 1.1-.4 1.7-.1l.3-.9m172.6-43.8-.2 3.1.5.3v-2.4l1-.3-1.3-.7M81-206c.8.2.8.2 1.3-.9 0-.2.1-.5 0-.8 0 0-.5-.2-.6 0-.2 0-.3.4-.4.6 0 .4-.2.7-.3 1.1M117.1-7l-.1-1.5c0-.2-.2-.4-.4-.6-.1.2-.4.3-.4.5L116-7l1-.2M78.3-207.5c-.2-.3-.3-.8-.6-1.1-.2-.2-.6-.2-1-.2 0 .2-.2.6 0 .7.4.4.7 1 1.6.6m84.9 196c1 .8.5 1.1 0 1.6l2.8-1.3-2.8-.2m8-173.4c1 0 1-.1 1.5-1.5 1.1.3 1.1.3 1.5-.2-1.3-.6-2.6.2-3 1.7m-55.2-83-.5-.7c0-.2-.2-.3-.3-.5l-.5.4-.6 1.4.2.2 1.7-.8m6.3 274-.3-.2-.8.8h-.6V7l.7.4h-.1c0 .4.2.8.4 1.1h.3l.4-2.3m-146.5-16-.4 1.6c0 .2.3.5.4.5l1.9-.3v-.4c-.3 0-.6-.2-.8-.1-.6.2-.9 0-1-.6l-.1-.7m193 11.5v2.8l.8-.3c.2-.2.4-1.4.5-1.7 0-.2 0-.6-.2-.6-.3-.2-.7-.2-1.2-.2m-15.8-269.8c.3.2.5.5.8.6l1.1.2c.5-.1.6-.5.1-.8-.6-.4-1.3-.9-2 0M-24-103.7c-.8-.2-.8.5-1 1-.2.2-.2.6 0 .7l.8.2.3-.7v-1.2m203.8-44.6c-.8-1.8-.8-1.8-2-1.2.7 1.3.8 1.3 2 1.2m-19-64.6 1.5 1 .6-2.2-2.2 1.2m-87.5 11.7 1 .5c.4-.2.6-.4.9-.4h1.6v-.4c-1.1.2-2.3-.8-3.5.3m14.2-66.3.6 1c.7-1.1.8-1.1 2.2-.3-.3-.5-.6-1.3-1-1.3-.5-.1-1.1.4-1.8.6m9.1 70c-.8-.7-2.4 0-2.8 1l.1.4h.5l2.2-1.4m44.4-27c-.3.4-.8 1 0 1.3.6.2 1.4 0 1.9 0-.2-.3-.2-.8-.5-1-.3-.2-.8-.2-1.3-.3h-.1m34.3 41.6-1 .4.2.2c.5-.5 2 .2 1.6-1.5l1.1.5h.3l-.7-1.5h-.3l-1.2 2M134.6-260l-.3-.7c-.4-.4-1-.6-1-1-.2-.2.4-.6.6-1-1.2.3-1.4.6-1.2 1.4.1.8 1 1.4 1.9 1.3m24.2-7.3v.4c.5-.1 1.3 0 1.5-.3.6-1 1.6-1 2.4-1.5-1.7-.6-2.6 1.1-4 1.4m-63.5-1.9 1.1-1.3c-1.7-.5-1.7-.5-2.1.2.7.6 1.1 1.7 2.3 1.6l.1-.2-1.4-.3m-1 74.3-.1 1.5c.5 0 1.2.4 1.6.1.5-.2.6-1 .9-1.5h-.2c-.2.2-.5.5-.6.8l-1.6-.9m-.2-28.6c0-.7-.3-1.2 0-1.6.1-.4.6-.7 1-1v-.2l-2 .7.4 1.3h-1.2v.3l1.8.5m37.5 28.9h1c.3 0 .6.2 1 .4-.9-1.8-1.4-2-2.4-1.5l.4 1m53.1 17.8c-.1-1-.4-1.4-1.3-1-.6.2-1.3.2-1.9.3l-.2.3.3.3h3.1m-15.5-41c1 0 1.1-.5 1-1.2-.1-.6-.8-1.2-1.4-1-.3.1-.4.6-.6 1l1 .1v1.1M-16.5-117.2c.6.9.7.9 1.4.2 1.2.2 1.2 1.2 1.5 2.1v-3.1l-1 .8v-.2l-1.9.2M132.2-212c-.4 1.8-.4 1.8 1 2.5v-2.1l-.1-.1-.9-.3m10.4-6.6 1.4.3c.5 0 .8 0 .6-.5v-1l-1.1-.2-.2 1-.8-.8v-.5l-.4.1.5 1.6m-62.5 23.5 1.3-2.3c-.8.6-1.8-.7-2.2.7l.9 1.6m31.6-74 .3-1-1.3.6 1.4.9 1.1 2.2c.8-1-1-1.7.3-2.5l-.2-.1h-1.6m29 53.8.4-.8c-.5-1 0-1.5.8-1.9-.3-.6-1-.8-1.4-.4-.4.6-.4 2.3.1 3.1m-28.6 5.5c-1.2 0-1.2 1.8-2.5 1.1v.9l.1.4.4-.1c.4-1 1-.6 1.7-.3l.3-2m48.5 33.4c.6-.6 1.2-1.1.7-2l-1.4.5-.5-1.2h-.3v1.7c.8 0 .8 0 1.5 1m-8.1-91-.5-.1h-.9v1.9c-.2.6.1.8.7.7l.7-2.5m35.6-4.4-1.2-.8c0 1-.6 1.2-1.6.9-.2.9.7 1.4 2.5 1.2l-.5-.5h-.6v-.2l1.4-.6m-186.3 18-.2.2.5 1.7c0 .5.2.7.7.5l.8-.1v-1l-1.8-1.4m98.7 41.8-.7-1c-.2-.6 0-1.2-.2-1.7 0-.2-.3-.4-.5-.6-.1.2-.4.4-.4.7 0 .6 0 1.1.2 1.7.1.8.8 1.1 1.6 1m-122.2 78.2c.1-.2.5-.7.4-.8-.4-.4-.8-.8-1.3-1-.4 0-1 0-1 .7-.1.6.6 1 2 1m-1.7 8.5 1.2-1-.5-1c-.5.5-.7 1.5-1.7 1.1l-.6.9-.7 1 1 .1c.4-.5.5-1 .7-1.6l.6.5m121.5-76v.2l.6.2c-.9.4-.7 1-.5 1.6 0 .1.5.3.6.2l2-1.3-.6-.2-.8.1.2-1-1.5.3M-12-139.8c.3.5.6 1 .7 1.6.3 1 .7.7 1 .4l.1-2.2c-.6.2-1.4-1.2-1.8.2M185.5-215h-.8c-.2.9-.1 1.6 1 1.7l.2.5c-.6-.2-1.1-.4-1.7-.4l-.4.6c.1.1.3.4.5.4l1.5-.2c.3 0 .5-.3.8-.5l-.6-.7c-.5-.3-.8-.7-.5-1.4M.3-7 .5-8l.7.4.2-.9c-.9-.7-1.8-.8-2.7-.2 0 1.4.2 1.5 1.6 1.8m166-255.9-.1.3c2.2 2.5 2.2 2.5 2.8 1.7l-.7-.6.1-.3 1 .4.6-.2c-.1-.2-.1-.5-.3-.6l-1.4-.3-.6 1-.2-.1v-1l-1.3-.3m2.7 78-1.1 1.4h.9v.5l1.7.3v-.2l-.6-.3v-.1l2.2.2-.3-.5c-.3-.6-.3-1.2-1.3-.6s-1.6.3-1.5-.7m-75-70.8c-.6 1-2.3.5-2.8 1.9.5.3.9.8 1.5.2h.3l1-.2c-.1-.6 1.1-1.2 0-2M-24.5-70.2l.2-.4c-1.2-1 0-1.7 0-2.6l.1-.3-.3-.6h-1.2c0 .2-.1.5 0 .8.3 1 .4 2-.3 3l1.5.1m140.3 76-1.5-1.3-.6.7 1 .6h-1.5l1 1.8 1-1.1c.1-.2.4 0 .6 0 .3 0 .6-.1.8-.3.3-.3-.1-1.4-.6-1.3l-.2 1M-14.8-124.8c.5 1 .8 1 1.3.5l1.2-1.3-1-.4.8-.6-.1-.2-1.8.2.6 1.4-.9-.5c-.4 0-.8.1-1 .3-.4.5 0 .8 1 .6m128.5-130.7h1.1c.9 0 1.8.5 2.6-.1.1-.1.5.1.7.1h.6l-1-1.2c-1.2 1-1.9 1-2.7.5l.7-1-1 .2v-.3l-1.2-.8-.1.2.5 1-.8.5.6.9m-1.4 74.5-.2-.2.7-.6-.3-1-1.3.8-.2-.8-3-.2.3 1.3h.3l.3-.6c1.8-.3 1.8 1.6 3 2.2l2-1-.2-.3-1.4.4m-135 44.8 2.6.8c.4.5.9.6 1.6-.2l.1.3h.2c0-.5 0-1-.2-1.7l-1.1.9-1-1.5c-.4-.2-.9 0-1.3-.1-1 0-1.1.1-.8 1v.5m156.7-76.4c.3-.8.3-.8 1.2-1 .7-.2 1-.9 1-1.5 0-.5-.4-1-1.2-1l-.7-.4-1.2.7c-.5.3-.5.6 0 1 .7.3 1 0 1.3-.7l.7 1.1c-1.8 0-2.3.9-1.7 2.4 0 .2.5.5.8.6.2 0 .4-.4.8-.6l-1-.6m-152 89.7v.2l-1.3.6c-.4 0-.8 0-.7.6 0 .4 0 1 .8 1 .6-.1 1.1 0 1.7.1.5.1.8 0 .9-.7l-1-.2c.4-.3.5-.7.8-.8 1-.4 1.3-1 .8-2-.3.1-.5 0-.9.2-.5.5-.3.6 0 1h-1.1m133-143.9-.3 1.4c0 .3.1.8.3.8.9 0 1.8.6 2.8 0 .5-.4.8-.6.7-1.3 0-.7-.2-1.2-1-1.3-.3.5-.3.5-2.6.4m61.5 55.8-1-.2c-.4 0-.9.2-1 .5-.4.6.2 1.8.9 2.2l2.1 1.3c.8-1.2 2-1.5 3.2-2l2-.6v-.2l-1.4-.7c-.6.4-1 1-1.5 1.4-1 .5-2.3 1-3.5.4-.5-.3-1-.7-1.2-1.2-.1-.6.7-.5 1.1-.7l.3-.2m-14.1 56v-.3l-.2-.2-.4-1.3c.4 0 .8 0 1.1.3.8.4 1.6 1 2.3 1.5h.6v-.5c-.5-.4-1-.8-1.5-1-.7-.3-1-.6-1.1-1.3l-.3-.9c-1.3 1-1.4-.5-2-1-.7.6-.6 1.2-.2 1.8.1.2.4.7.3.8-1 1 .4 1.3.6 2h.8m-62.9-27.3-.8 1.2h1c.3-1.1 1-1.3 1.9-.7.8.7 1.8.3 2-.8v-2l-1-.1-.6-.2-.1.6v1.2l-.9-.8-1-.5-.6-.6-.2.2.3.7c-.8 1-.8 1.3 0 1.8m12.4-11.9-.3.2c.7.5.8 1 .1 1.3-.4.2-1 .4-1.4-.2-.1-.2-.5-.2-.7-.2l-.3.2.6.6h.6l.7.2v.2c-.5.3-1.1.5-1.6.6v1.1c.4 0 1.4.7 1-.7l.3-.3c.1 0 .3 0 .3.2l.7 1.7-3.2-.2.4.5c.8.1 1.7.2 2.6.1.7 0 1.5.3 1.8 1 0 .3.4.5.6.7.2-.8-.7-1.5.2-1.9.6-.3 1.3-.1 2-.2l-.6-.6c-.7.8-1.2.2-1.7-.1-.5-.3-1.4 0-1.2-1l-.2-.1-.5-1 .7-.5 1.6-.9v-.1l-1.5.2-1-.8M-19.2-85l.3-.2c-.2-.4-.2-.9-.5-1.2-.3-.6-.7-.4-1.2-.2-.5.3-.8 0-.9-.5 0-.7-.5-1-1.2-1l-1 .4-.4-1-.2.3-1-.4c-.7.7-.8 1.5-.2 2.4v.7c-.2.7.3 1.3 1 1.1.8-.2 1.6-.4 2.2-.8 1.2-.8 2.1-.7 3 .4M109-259.4l.1-.3c.3-.9.5-1 1.3-.4.1.2.4.1.5.1l.2-1.1c-.3 0-.8.3-1 .2-.8-.6-1.6-.3-2.4.3-.2-.4-.4-.8-.3-1 0-.4.5-.6.8-1L104-261c.4.9.1 1.6-.4 2.2-.3.3-.2.8-.2 1.2h.5c0-.3.2-.6.4-1l.6-.6v1.4c.1.2.7.3 1 .2.3-.2.4-.6.6-1 .2-.6.6-.7 1-.5a428.8 428.8 0 0 1 .6 1.7l.3 1 1-.6c.4.2.9.7 1.3.6.5 0 1-.6 1.4-1 .4-.4.7-.9.3-1.2l-2-.3-.2 1-1.3-1.4m-131.4 238L-23-20l3 .6v-.6l2.1.4c.4-.5.4-.5-.5-1l-1.7.2 1.2-.9-.6-.6 1-1.2c-.4-.3-1.3-1.8-1.1-2.7H-21c-.8.2-1.5.2-2-1V-26l-1.6-.5a6603.5 6603.5 0 0 0-.2 2c-.1.4-.4.8-.4 1.2v1l.3.7 2.5.2m.1-108.4 1.3-.2v1c.1.5 1.1 2 1.7 2 .4 0 .7-.5 1-.8.2 0 .2-.2.4-.4.3 1.5.5 1.6 1.6 1.3l.4 1 .4-1.4c-1.4-.6.3-1.2.2-2l.7-.4.2.2-.2.8c1 .5 1.2-.7 2-.8l-.7-1.2c.4-.3 1.2-.5.3-1l-.4.4-.2-2-.3-.2c-.2.2-.5.4-.6.7-.2.3-.2 1-.5 1-.8.3-.7 1-.8 1.6-.2.4-.2.9-.2 1.4-.9-.3-2.1.3-2.2-1.3l-1 .8-.2-2.4-.2-1.1c-.3 0-.6.2-.8.3-.5.1-.9.5-1.3 0h-.6c-.4.5-.7.5-1 0-.1-.2-.5-.1-.7-.1 0 .2 0 .5.2.6.3.3.7.3 1.1.5l.3.3-.8.2v.6l1.4-.2v.2c0 .2-.2.3-.5.6m204.8-135.8c-.6 1.2.4 1.3.9 1.8-1 0-1.2.5-1.3 1.7l1 .5-1 .3c.1.7.6 1 1.1.8.6-.2 1.2-.3 1.2-1.1l.2-1.2 1.2.3 1-1-1.2-.4c-.3-.1-.5-.2-.6-.4l-.4-1.7c0-.3.4-.6.5-.9l.7.5 1 1.2-.7.2v.2l1.4.2.3-1.2v-.5h-.5l-.8.3-.1-2c-.4.2-.7.4-1 .4h-2.8l.3-.9-1.7-.4c.2-.7-.2-.8-.8-.7h-.7c-.2 0-.4-.2-.5-.3 0-.1.1-.4.3-.5l1.5-.8 1.9-1.9-.3-.7c-.5 1-1 1.6-2 1.3l-.6.3c-.3.8-.7 1.2-1.5 1.3-.6.1-1.5 0-1.6 1-1.8-.4-1.4 1-1.6 1.8l-.6-.2c-.1.3-.2.7-.4.9-.6.4-.5 1-.2 1.4.1.1.7-.1 1.1-.2h.7l.3.5-.6.4-.6.1-.2.3.8.4-1.6 1.6 1.4 1 .5-1h.2c0 .4 0 .8-.2 1.1-.2.4 0 1.5.5 1.6.3 0 .5-.5.8-.8l.1-.3-.8-.1v-.3l1-.3-.5-.7.2-.2c.3 0 .5-.2.7-.4l-.1-.3-.7.2h-.5l.1-.8-.8-.6 2.1.3c-1.4-.9-1.4-.9-.6-1.9l-2-.4v-.3l1.1-.5c.2 0 .5 0 .5-.2v-.7c0-.2 0-.5-.2-.7l.8.1c.7.8 1.5.7 2.4.7.4 0 .7 0 1 .2.3 0 .5.4.6.6l.5 1.5c.2.4.8.5.8 0 .1-.7.7-.6 1.2-1v2.4l-1.7-.9m-58.3 7.2c.2-.4.3-.8.6-1 .3-.2.8-.2 1.2-.3l-.8-1.8.3-.2 2.8 1.2.1-.5-.7-.4v-.3l.8-.2c.3 0 .5.2 1 .4-.6-1-.6-1.5 0-2l.6-.4.1-.6-.4-.2-.6-.2.3-.7.7-1c-1-.7-1.6-.5-2 .3l-.6.3v-.6l.2-.4c-.4-.7-1.8-.8-2.2-.4l1.2 1.5-.6-.1c-.5-.5-.9-1-1.5 0h-1l-.5-.2.2.9h-.6c-.2-.1-.3-.4-.3-.7v-.8c-1 .3-1.4 1-1 1.6l.7 1-1.1.5s-.1 0 0 0l-1.3-1.4-.2.2c.5.6.1 1.6 1.1 2v.6l-2.3-.4a1220 1220 0 0 0 1.2-1.1c-.3 0-.5-.1-.8 0-.5 0-1.1.3-1.7.5l-.8.2-1 .1-.1-.2-.5.6c.7 1 .6 1.2-.6 1.4-.3 0-.7.4-.8.6-.2.3-.2.7-.2 1.2h1c.5 0 1-.3 1.3.4 0 .2.4.3.5.4.1-.1.3-.3.3-.5l-.4-.7v-1c1 .4 1.7.9 2.5 1.1.8.3 1.6 1 2.7.4l-1.7-.4.8-.9-1.3.1.2-.5 2.7-.3v.3l-1 .6 2.7 2.2-.3.9c-.3-.3-.3-.5-.4-.8l-.4-.4s-.3 0-.4.2l.1.4 1 1.2c.6.7 1.6 1.2 1.3 2.5l.5-.7-1.2-2c1-.8 1-.8.6-1.5m46.4 7-1.4-1h-.5c-.6 0-1.2 0-1.7-.2-1.2-.6-2.4-1-3.7-.9-.6 0-1.1-.3-1.7-.4h-.7l-4.7 1.6-1.8.4c-.3 0-.7.3-.9.5l-1.5 2-2.9 3c-.6.9-1 1.8-1.5 2.8-.5 1.1-.8 2.3-1.2 3.5-1.1 3.4-1 6.7 1.2 9.8v.2c.4 1.4 1 2.6 2.4 3.2-.6 1 .3.8.7 1 .5.2 1 .3 1.1 1l.3.3c.6.7 1.3 1.3 1.7 2.1.2.5.5.7.8.7 1.4 0 2.6.5 3.9.7l3 .4c1.3 0 2.5 0 3.7-.6.6-.3 1.4-.1 2.1-.1l.6.3.2-.6 4.3-2.7c.6-.4 1-1 1.9-.8.5 0 1-.2 1.3-1 .3-1.3.8-2.5 1.2-3.8.3-.9.3-1.9.7-2.7.3-.8.4-1.6.2-2.4v-.7c-.1-1 .5-2 0-3l-.4-1.2-.8-2.1c-1-1.6-2-3-2.3-4.9-.1-.3-.2-.7 0-.9.5-.5 0-.9 0-1.3l-.2-.8c-1.4 0-2.3-.7-2.4-2l-1 .6m-2.5 230c.3-.7.7-1.2.8-1.7.3-1.5 1-3 .6-4.5v-.5l.3-2.7c0-1.9-.2-3.8-.3-5.6l-.1-2.7c-.1-.5-.2-.9.2-1.3.2-.3.2-.7.2-1.1l-.2-1.2c0-.3.1-.5 0-.8l-.1-2.2.1-3.4c0-1-.3-2.2 0-3.2.6-1.5-.7-3 .1-4.5v-.4l-.6-3v-6.3c0-.8-.3-1.5-.3-2.3l.2-2.4-.1-2.4v-.7c.5-.6.3-1.3.2-2l-.1-3c0-.7.2-1.3.3-1.9l-.1-.7-.2-1 .1-2.7.5-6v-.4c-.7-1-.2-2.2-.2-3.3-.1-1.2 0-2.4.1-3.6v-1.6c0-1.4-.3-2.7-.3-4.1 0-1.2.3-2.3.4-3.5v-1c-.2-1.3-.6-2.6 0-3.8l.1-.8-.2-5.8-.1-5.3v-.4c.5-.3.4-.7.3-1.2l-.1-1.4.2-4.9c0-1.2-.3-2.3-.3-3.5l.2-5.9c0-1.8-.8-2.7-2.7-2.6a5 5 0 0 1-.8 0l-4.9-.6v4.5l-.2 3.3v6c0 1.7 0 3.4-.2 5.2-.3 2.2.3 4.3 0 6.5-.2 1.8 0 3.6-.3 5.4-.2 1 0 2.2 0 3.3l.1 3v4.3c0 1.6-.4 3.2 0 4.9.2 1.2-.1 2.5-.2 3.8 0 .4-.2.8-.1 1.2.2 1 .9 2 .2 3v4.5l.8 4.9-.1.8-.4 2.5.1.6c.6.7.3 1.3 0 1.6.2.8.5 1.4.5 2 0 .9-.3 1.8-.4 2.6v1.2l.3 2.2c0 1.6.4 3.2-.3 4.7v.2l.2 2.6-.4 6.6c0 .7.4 1.7 0 2.1-.6 1 0 2-.2 2.9l.2 1.2c-.5 2.4-.5 4.7-.4 7l.3 2.5c0 1.6 0 3.2.2 4.7.2 1.7 0 3.4.1 5.1v5.8c0 .3.2.7.3.7l3.4.2c1 0 2.2-1 3.3.2M97.7-97.9l2.9-3 2.3-2.3c.3-.4.4-1.2.8-1.5 1.6-1.2 1.7-3.3 2.6-4.9.3-.5 0-1.3.7-1.6l.1-.4a3 3 0 0 1 1-2.6c.2-.1.2-.4.3-.6l.4-3.5c.1-1 .5-1.8.7-2.7v-.5c0-1.4-.5-2.7.2-4v-.6l-.4-4.6c0-.2-.2-.6 0-.8.5-.9 0-1.6-.4-2.3l-.2-1.2c-.1-.6-.1-1.3-.4-1.8a71.2 71.2 0 0 0-3.2-6.3l-2.9-4c-.5-.6-1-1.4-1.6-1.8l-3.8-2c-.6-.2-1.3-.4-1.7-.8-.8-.7-1.8-.7-2.6-.6-1.7.3-3.4-.3-5.1.5-1.3.6-2.8.8-4.2 1.1-2 .4-3.7 1.3-5 2.9-.3.3-.8.5-1.2.7 0 .6-.3 1.2-.6 1.8l-.7 1-2.3 5.4c-.3.7-.7 1.4-.1 2.2.2.2.2.6.1 1l-.1 2.7-.2 3c0 1.2 0 2.4-.2 3.5l-.2 2.7c0 .7-.2 1.4 0 2.1.1 1.4.2 2.7-.6 4 .7.5.7 1.2.7 2v4.7c0 1.9.2 3.7.3 5.6v7.6l.2 4.5.2 4c0 .5.2 1 .1 1.4 0 1-.3 2.1-.4 3.2l.1 3.5c0 1 .5 2 .2 3-.5 2 0 4 0 6-.2 2 .3 4 .3 6 0 1.2.7 2.4.2 3.6v.2l.2 2.4v1.8l.8 3c.2.9.2 1.7.5 2.6.5 1.5 1 3 1 4.7l.2.5.4.6 1.5 3 1.9 2.8c.8 1 1.4 2.2 2.7 2.7.4.2.9.6 1.4.7.7.2 1.6 0 2 1h.5c1 .3 2 .4 3 .8 1.2.6 1.6.6 2.8-.4.4-.2 1-.2 1.4-.3h.7l2.9-1c1.3-.4 2.8-.7 3.8-2 0-.2.4-.2.7-.3 1-.5 2.3-.7 2.9-1.5 1-1.5 2.8-2.1 4-3.5.8-1.1.7-1.8-.6-2.4-.6-.3-1.2-.8-1.7-1.2l-2.5-2.2c-.2-.2-.6-.4-.8-.3-.7.3-1.6.5-2.2 1-1.1.8-2 2-3.4 2.4-.2 0-.4.3-.6.4-.3.3-.7.9-1.2 1-1.7.1-3.5.4-5.2.3-1.1 0-2.2-.6-3.3-1-.6-.3-1.3-.6-1-1.5l-.2-.4-2.3-5.7c-.3-1-.5-2.1-.5-3.2 0-.5 0-1-.2-1.5-.4-1-1.4-1.7-1-3 .1-.5 0-1-.1-1.6l-.7-2.7-.2-1.1.1-2.5c0-1.1-.8-2.2.2-3.2v-.3l-.3-3.3v-3.6l-.2-3 .2-2.9c0-.6-.5-1.3-.3-1.7.7-1.8 0-3.5.2-5.2 0-.8 0-1.7.2-2.5 0-.3.3-.6.4-.6 1-.1 2-.3 3-.2 1.3 0 2.6.1 3.8.3 1.5.2 3.3.7 4.7-.6 0 0 .2-.1.4 0 .9.1 1.4-.5 1.9-1 .6-.9.8-1 1.8-.1m-34-34.9c-.8-.7-.9-1.1-.5-2l.1-.5v-4.7l.1-4c0-1.4.3-2.7.3-4.1 0-1.4-.4-2.8-.1-4.3v-3.6l.1-2.6-.1-2.8c-.3-1.4-.2-3-.3-4.4v-.3l.3-1.6v-2.1l-.2-1.5-.1-.4c.6-1 .2-2.1.2-3.2l-.1-1.5c0-.6-.4-1.4-.2-1.9.4-.6.1-1 0-1.4l-.2-.7-.3-7.2c0-1-.4-2 0-3 .3-1 .1-2 .2-3 0-2.6.3-5.2.4-7.8 0-1.4.6-2.8.1-4.2 0-.3-.2-.6-.1-1 .4-2.2-.4-4.5 0-6.9.3-1.1 0-2.4 0-3.6v-2.7l.3-5.6c0-.5.3-1 .2-1.6l-.6-3.6v-.3l.1-1v-1.5c.2-.9-.7-1.8 0-2.7l-.1-.3v-.8c.3-.8.4-1.6-.2-2.4-.1-.2 0-.5 0-.8v-4.7c0-1.3-1-2.4-.3-3.6l-.1-.2-.4-.8c-.2-.6.8-1.3.4-1.8-.5-.6-3.6-.4-4 .2-.5.8-2.1-.5-2.9-.4-.4.1.3 2.2 0 2.6v.4c-.7.8-.5 1.7-.4 2.6v1c-.4.9-.8 1.8-.2 2.7V-239.3c-.6 1.1.5 2.5-.5 3.5v.2c1 1.6-.3 3.4.6 5 .1.3-.2.8-.2 1.1l-.2 4.2v.1c.6 1.1.5 2.3.3 3.4-.1 1.2-.6 2.4 0 3.5v1l-.2.7.2 3.3v5.6c.1 1.2.5 2.5.2 3.6-.4 1.6 0 3.2-.1 4.8l-.1.5c-.6.6-.6 1.1-.3 1.8v.8c0 2.2-1 4.3-.6 6.6-.7 1.4-.2 2.9-.1 4.3v.2l-.5 4v.4c.4.7-.3 1.5.3 2.2v.3l-.2 1.7c0 1 .2 1.8.3 2.7v3.4c0 1 .3 2 .2 2.9 0 .9-.2 1.8.3 2.6v10.9c0 .6-.2 1.2 0 1.7.3 1.2.3 2.5.1 3.7v1.1l.1 3.3-.2 2.8c.2 2.1-.4 4.2 0 6.3.3 1.3.1 2.6.1 3.9v6l.1 9c0 1-.2 2.1-.1 3.1 0 1.4.3 2.7.4 4v3.4l.2 2.7.2 1.4.1 2.6c0 .8.5 1.7.3 2.4-.4 1.5.3 2.8.2 4.2l.2 3.7c0 1.4-.1 2.8.1 4.2.3 1.4.7 2.8.2 4.1-.3 1-.4 2-.1 3.1a6 6 0 0 1 0 1.7c-.2 1.8-.6 3.5.2 5.3.1.2 0 .5 0 .8-.2 1-.5 2.1-.5 3.2 0 2.7-.5 5.3-.3 8 .2 1.7-.3 3.3.1 5 .2.5.1 1 0 1.6 0 1-.2 2.2-.4 3.3l.1.6c.2 1.1.6 2.3.4 3.3-.2 1.5.2 2.8.2 4.2 0 2 .7 4 1 6.1 0 .9-.3 1.8 0 2.6.3 1.4 0 2.7-.3 4v.9c.5 1 .4 2 .2 3.1-.3 2 1.3 3.2 2.5 3.3l7 .3c1.6.1 3.2.7 4.8.1h.2l8.6-.1 3.4-.1h3l3.9-.2h.2c.8.4 1.6.4 2.5.2h1l5.5.2h3.5c.7.1 1.5.2 2.3 0 .8-.2 1.8-.4 2.1-1 .5-.8.5-1.9.7-2.9l.5-3.2c.1-1-.3-1.5-1.3-1.6-.7 0-1.4 0-2.1-.2-.7-.3-1.5 0-2.2 0-.1 0-.3.2-.5.1-1.5-.4-3 .3-4.6-.3-.8-.3-1.9 0-2.8 0h-7.8c-1.3-.1-2.4-.3-3.6.3-.2.1-.6.2-.8 0-1-.7-2 0-3-.2-1.5-.3-3-.1-4.5-.2h-1l-3.4.2-.4-.2-.8-.2h-3.5c-.2 0-.6-.3-.7-.6-.2-1.4-.3-2.9-.6-4.3 0-.7-.4-1.3-.4-2 0-2.1 0-4.3-.4-6.4 0-.8.2-1.7 0-2.5l.2-1.6c0-1-.5-2.2 0-3.3v-.5c-.1-.8-.3-1.7-.2-2.5l.3-2.7-.2-.4c-.2-.6 0-1.7.6-2.1-.6-.4-1-1.9-.8-2.6l.2-.7c-.1-1-.4-2-.3-3 .1-1.7.5-3.5.7-5.2 0-.3.2-.6 0-.7-.6-1-.2-2-.2-3v-3l.1-1.5c.2-.8.2-1.5-.2-2.3l.1-.6.2-.7c-.2-2.2-.5-4.4-.4-6.6.1-2.1-.5-4.3 0-6.4v-.5c-.6-1.2 0-2.5-.2-3.8l-.3-3v-1.3l.3-1.4h.7c-.9-.6-.8-1.5-.7-2.3.1-1 .3-2 0-2.8-.3-1-.3-2-.1-3v-.5c-.2-1-.8-2-.1-3v-.2l-.3-5v-3.7l-.1-.4-.2-1.2v-3l-.2-2.3.3-.9m-70.8-81.8c1 .3 1.1 1 1.1 1.9V-201.8c0 1 0 2 .3 3s-.2 2.2 0 3.3l-.3 5.1.2 3.8v7.2l.1.6.2 3.8v1.6l-.1 1.6.2 1v4.2c0 1 .1 1.9.3 2.8v3.3l-.2 1 .2 2.7.4 6.1.4 3.4-.1.7c-.2 1.1-.5 2.2-.5 3.3-.1 1 .2 2 0 2.8-.3 1.1-.2 2.2-.2 3.3 0 .8.3 1.7 0 2.4-.2.9 0 1.6 0 2.4l-.1 2.9.1 1.7c0 .5-1.2 4.7-.6 6.3v.3l-.2 1.7c0 1.2.3 2.4.2 3.6 0 1.7-.4 3.5-.6 5.2v1.7l.3 2.2v4.6a38.5 38.5 0 0 1-.3 9l.4 3.8v2c0 .7 0 1.4.3 2 .2.5.4 1 0 1.5a1 1 0 0 0-.1.6c.3 2-.2 4 .2 6.1.3 1.2.3 6.3.3 6.5 0 1 .2 2-.2 3s-.1 2-.3 3.1v1.4c.7.8-.1 5.2-.1 5.6v2.6c0 .7.3 1.4.2 2.2 0 1.4-.2 2.8-.4 4.2l.4 3.4v3c-.1.6-.4 1.4-.3 2 0 1.4.2 2.7-.3 4v.5c.6 1.3-.2 2.5 0 3.8 0 .8-.2 1.7 0 2.5.1.7.2 1.3.1 2A15 15 0 0 0-6-23c.2 1-.2 3 .4 3.6 1.2.9 3.4.4 4.8 1 .2.2 2.4.1 2.5 0 .7-.8-.4-1.6.2-2.4v-.4c0-.8-.2-1.7.1-2.4.7-1.4-.2-2.8.2-4.2l.1-1 .2-1 .3-6.4c0-1.6.1-3.2-.1-4.8l.1-.5.3-.6c-.4-1.6.3-3.2-.1-4.8v-2.3l-.2-2c0-.5.4-1.2.2-1.6-.5-1.3-.5-5.3-.4-5.6.2-1 .3-1.9 0-2.8a4 4 0 0 1 0-2.4c.5-1.5-.6-3 .2-4.6 0 0 0-.3-.2-.5-.3-.9-.4-1.7.1-2.5.4-.6.4-1.4.2-2.2-.1-.6.2-2.8 0-3.3 0-.4 0-1 .2-1.5.2-1-.6-2.1 0-3.3.2-.6-.1-1.4-.1-2.2l-.1-5.8-.1-7.7-.1-3V-105.6l.1-3v-.6c-.5-.9-.3-1.7.1-2.6l.3-1.2c-.3-2.3-.1-4.6.3-7v-1.3c-.2-1-.7-1.8 0-2.7l.1-.5c-.3-1.6.2-3.2-.2-4.9-.3-1 0-2.2 0-3.4.1-.5.2-1.2.6-1.6.4-.5 1.1-1.3 1.7-1.2 1.3.2 2.3-.4 3.2-1.2 0-.2.5-.3.6-.2.8.7 1.4 0 2-.2 1-.4 1.8-1 2.7-1.1 1.3-.1 1.9-1 2.6-1.7l2.5-2.4.5-1c.1-.8.3-1.5 1-2 .4-.2.7-.7 1-1.2l.9-2.4c.3-.8 1-1.5 1.2-2.3l1.8-5.4.3-1c.1-1.4-.1-2.8.6-4.2.5-.9 1.7-4.4 1.3-5.3l.3-.7c0-.3.3-.6.3-.8-.5-1.4.3-2.7-.2-4.1-.5-1.4.4-2.8.1-4.3-.3-1.5 0-3.2-.1-4.7l-.2-.5v-1.7l-.1-2v-.6l-.2-3.4v-2.5l-.2-1.4c0-.9.2-1.8 0-2.6-.3-1.4-.8-2.7-1.2-4-.5-2-.8-4-1.8-6-.2-.4-1.1-4-2-5.1-.8-.8-1-1.9-1.6-2.8l-1.2-2a16.2 16.2 0 0 0-7.4-6.5c-1.6-.6-2.8-1.8-4.6-2.1-1-.2-2-.5-3.1-.4-.7.1-1.4 0-2.1-.1l-4.6-.9c-1.3-.2-2.4.7-2.9 2-.2.6-.1 1.2-.3 1.7-.7 1.7-.2 3.5-1 5v2c.2.8 0 1.1-1 1.1m51.6-16.6-.4-2.7c-.2-1-.7-1.9-1.4-2.8-.7-1-1.2-2.3-2-3.4-1.3-1.7-3-3.3-4-5.3l-.2-.2-4.3-3c-1-.6-1.7-1.4-3-1.4-.5 0-1.1.1-1.5-.1-.8-.7-1.7-.5-2.5-.7l-.6-.1c-1.2-.2-2.3-.7-3.4-.5-2 .3-3.9 1-5.8 1.5l-2.1.7c-.7.2-1.5.2-2.1.6-1.4 1-3 1.6-3.9 3.2 0 .2-.2.2-.3.3l-1 .7c-.5.3-1 .5-1.4.9-.5.4-2 .9-2.1 1.5-.3 1 3.1 5.5 3.5 5.6.3 0 .6.1.8 0 1-.4 1.7-1.2 2.6-1.3 1.3-.2 2.3-.8 3.3-1.4 1.5-.8 2.8-2 4.3-2.6 2.3-.8 4.5-2.1 7-1.7 1.4.2 2.8 0 4 .9l3.3 3 1.9 2.5c.6.7 1.2 1.3 1.3 2.4.3 2 1.2 3.9 2.1 5.7.6 1 1 5.4.9 6.1 0 1.4-.3 2.9-.4 4.3l.2 9.2c-.2 1-.6 2-.6 3.1 0 1.4.3 2.7.5 4v.5c-.5 1.2-.5 5.3-.3 5.9.2.7.4 1.6.2 2.3-.3 1.5.3 2.9-.2 4.3-.3.8 0 1.8 0 2.7v5.7c0 .3 0 .7-.2 1-.6 1.4 0 5.8-.2 6.6-.2 1-.1 2 0 3v2.3l.1.7c0 1.6-.5 3.3.1 4.9l-.1.6-.2 1.3c0 .6.2 1.2.1 1.8-.2 1.4.2 2.8-.4 4v.7l.1.9-.4 3.5-.3 5.6v5.8l-.3 2.4-.3 7.8c0 1.7.2 3.4.1 5.1 0 .9-.2 1.8-.4 2.7l.4 1c.4 2-.4 4.2.2 6.2v.3l-.3 5.4c0 2.5.4 5 0 7.5v3.1c0 2-.2 4 0 6 .3 1.3.1 2.5.3 3.8.1 1-.7 2-.1 3l-.3.7c-.8.3-1.6.7-2.5.7-.8.1-1.7 0-2.4-.3-1.1-.5-2-.5-3.2 0-.7.2-1.4.3-2 .7-.4.2-.7.4-1 .4-.9 0-5.1 3.1-6.2 4-.5.3-.1 1.5-1.2 1.8v.2l-1 2.1-1.2 3.4-.5 2.8c-.4 1.5-1 3-1.1 4.5 0 1.3-.3 2.6-.7 3.6-.7 1.5-.3 3-.7 4.4-.3 1.5-.3 3-.5 4.6v2c.4 2 .1 3.3-1.2 4 1.1.7 1.4 1.3 1.1 2.2l1 1.5.4 2.2c.5 1.4.8 2.8 1.4 4 1 2 2 3.9 3.2 5.8.5.7 1.1 1.2 1.7 1.8l2.6 2.6 2.2 1.5.9.5.5.4c.7 0 4.3.8 5.4.7 1.5 0 2.9-.5 4.1-1.5.4-.3 1-.4 1.5-.4 1-.1 1.3.2 1.3 1v2c0 .7 0 1.3.2 1.8s.4.9.7 1.2l.8.4c1.2-1 2.5-.6 4-.6.5 0 1.7 0 2-.4.3-.9.6-2.8.4-3.6-.6-1.5.5-3-.2-4.5l.1-.5c.1-.3.3-.6.3-1v-5.2c.8-.7.5-1.3.2-2-.2-.4-.1-.7-.1-1l-.2-1.5v-4.5c0-1.5-.8-2.8-.3-4.4.3-1-.2-2.5-.3-3.8l-.6-3.8.2-1v-1.3l-.2-4 .4-.6c.2-.1-.6-1.5-.5-2.3 0-1 .2-1.8.4-2.8.3-1.3 0-2.6-.4-4l-.2-.8.4-2.6c0-.6.2-1.2 0-1.7-.3-.7-.5-1.2-.3-2 .3-1.2 0-2.5 0-3.8v-2c0-.8.3-1.8 0-2.6-.5-2-.4-3.8 0-5.8v-.6l.2-5.3v-2.8l.1-3.6v-3.5c0-1.5.8-2.9.1-4.4v-.1l.3-5.1c0-.7.2-2.4.1-3v-3.6c0-2 .3-8 .1-8.2-.6-1.6.3-3.3 0-5-.5-2.2 0-4.5-.2-6.8l.1-5 .2-5.4c0-.6.2-1.3 0-2-.2-1.1.3-2.2 0-3.5-.3-1.6 0-3.4 0-5.1 0-.8.3-1.6.3-2.3v-3.6c.4-2 .2-3.8 0-5.7 0-1.3.8-2.6 0-3.8v-.3c0-.8.4-1.7.3-2.4a10 10 0 0 1 0-2.8c.2-2 .1-4.2.2-6.3L45-194l.1-1.7c-.1-1.7-.4-3.3-.4-5l.2-2.6-.1-4-.1-3.3v-3.7l.2-2.9v-.3l-.1-3.5-.1-2.6-.5-3c0-1 0-2.2-.2-3.2-.2-.7-.1-1 .4-1.4m75.5 31.3v.4c-1 1-.8 2.1-.4 3.3v.7l-.4 1.7c-.2.8.3 1.7.2 2.3-.4 1.4-.2 2.7-.2 4 0 .4.2.7.4 1.1-.6.7-.6.9.2 1.5-1 1.8-1 3.7.2 4.2-.7.5-.8.9-.6 1.7v1c-.3 1-.2 1.3.9 1.2 0 .2 0 .4-.2.5-.2.4-.6.8-.7 1.2v2c0 .3-.3.8-.5.8-.9 0-1.6.6-2.6.2-.5-.2-1.1 0-1.7 0-.8 0-1.6 0-2.3-.2-.3 0-.4-.8-.6-1.2l-.3-.7-.9 2.1-.6-1-.3 1-1.1-.2c-.8 0-1.7.3-2.4.1-2.3-.3-4.6.2-6.9.3l-3.1.2c-.8 0-1.7.4-2.3-.7 0 1-.4 1.2-1.2 1-.5-.1-1.1-.3-1.7-.3l-3.2.2h-4.1l-4.6.2-2.9.4c-.6.1-1 .7-1 1.4.1 1.2.2 2.4 0 3.5-.2.8.1 1.3.4 2l.3.5c0 .6.4.8 1 .6h1c1 .2 1.8.5 2.8.6l1.8-.2c2 .3 3.8.4 5.8.3 1.4 0 3-.5 4.2.7l-.3-.7h.8l3-.2 5-.6 4.4-.2c.8 0 1.6-.3 2.5-.2l5 .3 1.4-.2h3.2c1.6-.1 2.1.3 2.2 1.8l.2 5v4.4l.1 1.3v5.6c.2 1.5.6 3 .2 4.7-.2.7 0 1.6.1 2.5v.6l-.2 1.8.2 4.5-.2 2c0 .8.1 1.6-.5 2.2-.1.2 0 .6 0 .8l.4.4.5 3.3c.3 2.4-.2 4.8.5 7.2v4.3c0 1.3.3 2.7-.3 3.8.2.4.5.7.5 1l.2 4.7c0 .6-.3 1.3-.2 1.9.2 1.3.5 2.7 0 4l.3.7c.2 1 1 2.2.1 3.3-.5.7-.4 1.4-.3 2.2.2 1 .2 1.9.2 2.9l-.2 1.5v2.1c0 1.3-.2 2.5-.4 3.7v.4c.7 1 .4 2.2.3 3.3l-.2 2.8v4.4c0 .3.3.7.2 1-.8 1.3-.4 2.7-.4 4v6.5c0 1.8-.4 3.5 0 5.2.1.3 0 .5 0 .8l-.1.7.3 3.1.1 4.6.4 3.2-.1 1.6v4.6l.2 3.1c0 .6.2 1.1.1 1.7l-.3 2.5.2 2 .2 3.1 1 .1c2.2.6 4-.1 5.5-1.7.4-.4.6-.8.6-1.3v-2.2l.5-2.9c.2-1-.9-2.3.2-3.3l-.1-.4v-3.2c0-.9-.4-1.7.4-2.5v-1.4c0-1.2 0-2.4-.2-3.6v-2.3c0-.5 0-1.2.3-1.6.4-.6.3-1 0-1.7v-.7c.3-1.3.3-2.5.3-3.8.1-1.7-.5-3.5 0-5.2l.2-.3.3.5.3-1c-1.3-.7-1.7-1.9-1-3.2.2-.4.2-.9.2-1.4l-.2-1-.4-2.5c-.1-1-.5-2.2.4-3-.2-.5-.5-.8-.5-1.2-.2-1-.2-2-.3-3.1l-.5-5.3.1-3.5v-2.9c0-1 .3-2 .1-2.8-.2-.9-.1-1.6 0-2.5.2-1.7.3-3.3.3-5 0-.6 0-1.2-.2-1.7-.3-.8-.2-1.8.4-2.5 0-.2-.3-.5-.2-.7.3-1-.6-2 .1-3v-.3a14 14 0 0 1 .2-5.1v-1l-.2-2.7c.2-2.1.5-4.3 0-6.4v-.5l.2-2.3c0-.8-.2-1.6-.1-2.3.2-1.3 0-2.5-.3-3.7v-1.7c-.4-.8.3-1.8-.4-2.6.3-1.6.6-3.2-.2-4.7-.6-1.3.3-2.7-.4-4v-1.5c0-2 0-3.8-.2-5.7 0-1.4 0-2.8-.3-4.2-.4-2 0-3.6 1.6-4.8-.4-1.5-.4-1.5-1.2-1.3.1.3.4.6.4 1 0 .2-.2.4-.4.6 0 0-.4 0-.4-.2l-.1-3.4c0-.3 0-.6.2-.9l.3-1.2h1.7l5.2-.2 4.2-.2c.6 0 1.4 0 1.6.9l.4 2.3.2 5.3v.6l-.1 1 .1 2.5v2.7c0 1.2.2 2.4.1 3.6 0 2.5-.4 5-.5 7.5v3.5c0 1.2-.2 2.4-.4 3.6l.2 1 .3 1.8-.3 2.4c0 1.8 0 3.7-.3 5.5-.2 2.2.2 4.4-.1 6.7-.3 1.4-.1 3 0 4.5 0 .9.3 1.8 0 2.6-.6 2 .8 4 .1 6-.2.6-.2 1.2-.2 1.8 0 1.4.6 2.7.2 4.2-.3 1.2 0 2.5 0 3.7 0 1.2-.6 2.4-.2 3.6l-.1 1c-.3.7-.4 1.4 0 2 .2.4.1.8.1 1.1l-.2 2.4.2 4.2c0 1.4 0 2.9.2 4.3l.4 4.9c.1 1 0 2.1 0 3.2l.3 4.7.1 2.4.1 1.9v.7c.1 1.5.4 3 .4 4.5 0 1.7-.4 3.4-.5 5v21.1c0 1.7.5 2 1.9 2.4.3 0 .5.3.7.4l.5.4 3-1c1.2-.3 1.7-1.3 1.5-2.4v-1.4l.6-2.4c0-1-.3-1.8.3-2.6v-.4c.2-1.9-.2-3.7 0-5.5.3-1.7.2-3.4.2-5s-.2-3.1.2-4.7v-.4c-.1-1.3-.3-2.5-.3-3.8v-4c0-1.7-.5-3.5-.2-5.3.2-1 0-2-.1-3l-.8-6.4c-.1-.8-.2-1.4.5-1.8l-.3-1c0-1.5.7-3 0-4.6v-.4c.1-.8.3-1.6-.3-2.3v-.7l.2-1.3v-2.6l-.2-2.7c0-1.5-.8-3 0-4.5 0-.1.1-.3 0-.4-.4-.8-.1-1.7-.2-2.5 0-1.1 0-2.2.2-3.3.2-1.2 0-2.5.1-3.7.1-1.6-.6-3.1-.2-4.7.2-.8 0-1.7 0-2.5v-3.8c0-1.1-.6-2.3.2-3.5v-.4l.2-1.3.2-.8.1-3.5c.1-.8.4-1.6.4-2.4l-.2-5.8v-6.2c0-1.2-.3-2.4 0-3.5.3-1.5.3-3 .2-4.4-.1-2-.6-4-.3-5.8.2-1.5 0-3 0-4.4v-2.7c0-.6.3-1.4.1-2-.5-1.6 0-3.2-.1-4.8 0-1 .6-1.5 1.5-1.4 1.6 0 3.2 0 4.8.2 1.3.1 2.5.4 3.8.6h.8l1.4-.1h8l3.6.1 3-.2c1.2 0 1.7-.6 1.7-1.8.1-.8.4-1.6.4-2.4.1-.8.3-1.7 0-2.5-.2-.7-1-1.2-1.5-1.8l-.5-.2c-1.2 0-2.5-.5-3.8 0h-.4l-6-.6h-5c-1.1 0-2.2-.2-3.4-.1-2 0-4 .3-6 .5-1.7.1-2.3-.5-2-2.3.1-1 .3-2 .2-3 0-1.7.3-3.4.5-5v-.5c-.1-1.6-.4-3.3-.3-4.9 0-2.8.2-5.6.4-8.5 0-1.8.3-3.6.2-5.4-.3-2-.4-4-.4-6 0-1 .3-1.6 1.1-2-2.4-.7-5.1 0-7.1-1.7l-.7.8c-.3.2-.8.2-1 .4-.3.4-.6.9-.7 1.4l.4.6c-.6.3-.8 1-.6 1.8l.2.6-.5 1.5c1.1.1 1.1.1 0 1.9.8.8.8 1 .1 2v1l.6.7c-1 0-1 .5-1 1.2.2 1.8.2 3.6.2 5.4 1 .5 1 1.2 0 2-.6.4-.6 1 0 1.4.5.2.6 1.6.3 2-1 .8-1 .8-.2 1.9l-.1.6c-1 .2-.6.8-.5 1.4.9-.2.9-.2.9.7-.7-.2-1.1.1-1 .7 0 1.2.2 2.3.3 3.4l-.1 1.4c-.2.7-.5 1.4-.4 2 .5 1.7 0 2.3-1.6 2.3l-8-.2h-3.5c-.3-1.5.2-3 0-4.5-.4-1.4 0-3 0-4.5v-4.5l.1-4.6c0-1.5.3-3 .4-4.7.5 0 1.1 0 1.7-.2.2 0 .3-.3.5-.5l-.6-.3c-.1 0-.3 0-.5.2-.6.2-1 0-1.1-.6l.1-2.9c.1-.6.2-1-.2-1.6-.1-.1-.3-.5-.2-.6.8-1 .2-2 .5-3 0-.4.2-1 .5-1.2.4-.4 1-.4 1.5.1.5.6 1 .7 1.7.6.7-.1 1.5 0 2-.8-.5-.5-.8-.3-1.2 0-.5.5-.9.3-1-.4l.5-.3-.6-1.3c-.2-.3-.2-.7-.3-1l.7-1.2-.2-.3c-.3.1-.9.1-1 .4-.5 1-1.5 1-2.3 1.7l.4.8 1.7-.2c.1 1 0 1-1.2.8-.4 0-1.1.3-1.2-.4-.1-.5.1-1 .2-1.5v-.6c0-1.3-.2-2.5-.3-3.7l.2-.4 1.6-1 .4 1.2c0 .2.3.5.5.5.5.1 1.5-1 1.5-1.4l-2.3-.3 1.5-.9v-.3l-1-.2c-.7 0-1.5.1-2.2.3-.8 0-.8-.3-.7-.9l.1-1c0-1-.2-2 0-3 0-1.6 0-3-.5-4.5v-.8c.3-1.4.4-2.9 0-4.3l-.1-1 .3-5.7-.3-1.2c0-.8-.5-1.7-.2-2.2.7-1.3.1-2.4.3-3.6.1-.7-.2-1.4-.3-2v-.5c0-.9.2-1.7.1-2.6 0-.8-.7-1-1.6-.8l-2.6.4h-2.5c-.2 0-.6.2-.6.4a41.6 41.6 0 0 0-.5 5.8l.1 2.6.5 4.4v.1c-.7 1.3 0 2.6 0 3.9 0 1.5 0 3-.2 4.6a7.8 7.8 0 0 0 0 3.9c.7 1.9 0 3.7.3 5.6 0 .7-.3 1.5-.4 2.3v3.3c0 .5-.3 1-.1 1.4.4.8.2 1.5.1 2.3v1.5c.1 1.1.3 2.2-.7 3.1l1 .6-.5 1.8-.4 1.2 1.2.7m-21.2-63.3-.7.6v.2h-1l-.7.8-.2-.1c0-.4-.2-.8 0-1 .1-.3.6-.5.9-.7-.7-.6-1-.5-1.3.3-.2.4-.4 1-.6 1-1 0-1.1.6-1.3 1.3l-.5.8.4.2 1.4-2 .1 1.1c.7 0 1.6.4 2 0 .6-.3.8 0 1.2.1.2.1.4.4.6.4.7 0 .8.6.8 1l-1.4.6v.2l2.4.2c.2-.6.2-.6-.4-1a1 1 0 0 1-.3-.6s.3-.3.5-.3h.5v-.2l-1-.5 1.3-2 2 .4a.9.9 0 0 0-.5-.5l-.7-.3a252.4 252.4 0 0 1 .8-1c-.3.2-.5.3-.8.3h-.6l-.4.5-1.2-.5 2-.8v-.3l-1-.7s0-.2.2-.3l.3-.3-.7-.6c-.3-.3-1 0-.9.4 0 .6.3 1.2.4 1.8-.5.3-.5.3-.3.8L99-264l-.3.8Zm12 8.7-.8-.1c-.2.8-.9.8-1.4.7-.7-.2-.3-.7-.3-1 .2-.6-.2-1-.7-1-.4 0-.8.3-1.2.5v.2c-.4 0-.7-1-1.3-.3l.6 1.4c.3 1 .5 1.2 1.5 1 .5 0 1 0 1.4.2.2 0 .4.4.4.5-.1.2-.4.5-.6.4l-1-.2-.2.2c.5.2.9.5 1.3.5.7 0 1.3-.4 2-.6l-1.1-.8 1.6-.8-.2-.8 1.2-1c-.9-.8-1.3-.2-1.8.1l.6 1m55.3 55.1-.4.6c.2 0 .4.3.6.2.3 0 .9-.2 1-.4 0-.6-.6-.4-1-.4h-.2c0-.2 0-.4.2-.6.5-.5.5-.8-.2-1-.3-.1-.6-.5-.7-.8-.3-.6-1-.9-1.4-.4-.4 1-.9.6-1.4.2-.6-.4-1.2-.7-1.8-.3l.2 1.2c.3 0 .8-.3 1-.1.7.6 1.3.3 2.2-.3l-.7 2.6 2.6-.5m13.7 17.3h.4c.3.6.6 1.1 1.4.9l1.7-.4h.6c0 .1 0 .4-.2.5-.4.5-.6 1 .2 1.2.2 0 .3.2.5.4 1-.7 1-.7.3-1.5-.4-.5-.6-1 0-1.6l-1.1-.2h-3.1l-.6-.3-.7-.5.3.8.3.7-.8-.2c-.2 0-.5.1-.7.3v.4c.3 0 .6.2.8 0 .3 0 .5-.3.7-.5m-7.1-.8c-.6.2-.4.4-.1.8.2.2.2.6.3 1l-1 .2h-.6c.3.3.5.5.8.5 1 .2 1.9.5 2.9.6.6 0 .7-.5.3-.8-.5-.4-1.1-.5-1.7-.8l-.2-.1.5-.7-1.3-.7 2.2-.5c-.1-1 0-2.2-1.5-2.3 0 .2.2.4.4.5.4.1.6.3.5.7v.6l-1.5 1m-75.2-13-.3-1c-.3.3-.6.4-.7.7-.1 0 0 .5.2.5l.8-.2c0 .4 0 .7-.2 1.3l.5.6.9-1c.5.5.6 1.4 1.6 1l.5-1-1.1-.2v-1.4l-2.2.7m49.4-16.9-1-.7 1.1-2h-1.2c-.6-.3-.8.2-1 .6l.1 1 .5 1.7v.2l.7-.5 1.1.9-.3-1.2c.9 0 1 0 .7-1.3-1 0-1 0-.7 1.3m35.5 49.1.3-.9.5.6.3-.2-1-1.2-.7.8.7 1c.1 1 .7 1.9 1.7 2.4l.5-.5 2.8.1c-.4-.8-.9-1-1.5-.7-.8.2-1.4 0-2-.6l-1.6-.8M164-9.6c-1-.1-1.9-.1-2.1 1.2.2 0 .6 0 1-.2s.7-.6 1-1l.4 1.4c.4-.4.5-.7.6-1 .1-.2.3-.4.2-.6 0-.2-.3-.3-.6-.4-.1.7-.1.7-.5.7M97.5-188l2 1v-.8c-.7.2-1.2-1-2-.2l-.4-.7.1-.9-1.5 1.3 1.8.3m98.2 6.2.6.7-1 .6.1 1.8h.2l.1-.9c.7.8.5 2-.3 2.5.4.5 1.5.8 1 1.8-.1.1-.6 0-1 .2l-.3.5.9 1.9-1.2-.7.1.7c.5.4.5 1.1.7 1.6.5.7.3 1.1 0 1.5l.8.7-.4.8-.8-.7-.2.2.8 1.7c-.6.8-.7 1.5 0 2.1-.3.7-.5 1.3.3 1.9.2.2.2.7.2 1.1l-.4.2c-.1.8-.6 1.9-.3 2.3.8 1-.3 1.6 0 2.4h.5c.5 0 .7.1.3.6-.3.5-.2 1-.1 1.5v3.6c0 .3-.2.7 0 .9.5.7.1 1.2-.4 1.6-.8 1-.8 1.2 0 2.1.5.4.8.9 0 1.4-.4.3-1 .9.1 1.3.2.1.3.7.4 1.2l-1 .2.4 1.8s-.4.2-.4.4l.4.7c.7.7.6 1 0 1.7-.3.3-.4 1-.2 1.3.7.8.3 1.7.4 2.5l-.5.3.5.6-.8.7c.8.7.5 1.5 0 2.3-.2.6-.2 1.2.3 1.8v1c0 .8-.3 1.6.2 2.4.2.4 0 .9 0 1.3 0 .6-.3 1.1-.1 1.6.3 1 .7 2 .2 3-.2.3 0 .7 0 1.1l-.2 1-.2.2.2 2.4c.1 1.3.3 2.5-.1 3.9-.2.7.2 1.6.2 2.4l-.2 3.7c0 .4-.2.8-.1 1.1.3 1.1 0 2.2-.2 3.3-.1.9.1 1.8.2 2.7l-.1 1.2-.2.5.1 5.2c0 1.1-.3 2.3-.1 3.4.1 1.4-.2 2.7-.3 4.1v6.8l-.2 4v3l.2 4.5c0 1.2.3 2.4-.2 3.5v.2c.6.8.4 1.7.4 2.6-.2 1.4 0 2.7 0 4l.2 4.6.2.7.2 1.2c-.3 2.3-.2 4.6-.1 7 0 1.1-.3 2.2-.4 3.4v.2c.5 1-.2 1.9-.3 2.8l-.1 1.7-.2 1.3c1 .2.5 1 .5 1.6v1.6c.2 1.2.2 2.5.3 3.8v1.3c-.5 1-.1 2-.3 3V-16.2l.1.7c.2 1 .7 2 .5 2.7-.3.8-.1 1.5-.2 2.3v3c0 1.5-.8 2-2.1 1.4-.2 0-.3-.2-.5-.3 0 1 .2 1 3 1-.3 1.3-.2 2.5.3 3.8.1.2 0 .5 0 .8l.2 2.2v9.4c-.8.2-1.4.6-2 .6-1.2.2-2.4.8-3.6.6-1-.2-1.9-.2-2.8.3-.2 0-.7 0-.9-.3-.4-.3-.6-.4-1 0-.5.6-1.1 0-2-.4h-.5c-1.6.5-3.3-.2-4.9-.3l-2.4-.3c-.6 0-1.3-.4-1.8.3h-.5c-1.2-.4-2.9-.3-3.7-.5l-2.3-.2h-.4c-1.2-.1-2.4.7-3.5.5h-2c-2.2 0-4.4-.2-6.6 0-1.9.2-4-.1-5.6 1.2-.2 0-.6.2-.8 0-1-.7-2.2-.3-3.4-.3-1.3 0-2.6-1.6-4-1.3-.3 0-.6.1-.8 0-1-.4-2 .1-2.8.6-.5.3-1 .4-1.6.5l-2.6.3-1.8-.1c-1 0-2.1.1-3-.4-1 1-2.3.3-3.4.6-.5.1-1-.2-1.6-.3-1.9-.1-3.7-.3-5.5 0-1.2.1-2.5-.2-3.7-.2h-9.4c-1 .1-2.2.4-3.3.4-.5 0-1-.3-1.3-.3l-4.7.5c-1.1.1-2.2.4-3.4-.1-.3-.1-.8.1-1.2.2-.5.2-1 .5-1.5.5-1.7 0-3.4.3-5.1-.4-.7-.3-1.8-.1-2.6.2-1.2.5-2.4 0-3.6-.1l-1.3.2-1.5.1h-.6c-2 .9-4.1 0-6.1 0h-1.3l-1 .1c-.8 0-1.6-.2-2.4 0-1.7.5-3.4.4-5-.2-.2-.1-.6-.2-.7-.1-.7.5-1.5.2-2.2.1h-.8l-3.5.5-6.2.5c-1.1 0-2.3-.3-3.4-.5h-1c-1.2.6-2.3.2-3.5 0H38c-1.5.5-3-.3-4.5-.2h-.7l-3-.1c-2.2 0-4.2 0-6.3.2-.4 0-.7.2-1 .3-.7.4-1.3.4-2 .1-1-.3-1.9-.3-2.8-.3-1 .1-1.8.5-2.7.6-.8.1-1.5 0-2.2-.1H11c-.7-.1-1.4 0-2-.2-1-.5-2 0-3.1-.1l-1.6-.2H.1c-1.8-.2-3.6-.4-5.3-.8-.7-.1-1.4-.4-2 .2H-8c-.7-.5-1.4-.1-1.8.4-1.2 1.5-2.7.8-4.1.6l-3.1-.4h-3.4c-1.2.1-2.5.1-3.7.3-1.7.1-2.5-1-2-2.7.3-1 .6-1.8-.2-2.7-.3-.3-.1-1.3.1-1.8.4-.9.1-1.6-.3-2.3-.4-.7-.4-1.2 0-2 .2-.2.2-.7.2-1.1V.4c.5-1.4.3-2.7.1-4.1v-.9c0-.5 0-1-.4-1.4-.3-.4 0-1.3 0-1.9v-1.5c0-.3-.3-.6-.2-.7.9-1.4-.4-3 .2-4.4v-.8c-.2-2.3-.6-4.6-.5-7 0-1.5-.3-3 .3-4.6.1-.5-.4-1.2-.5-1.8 0-.4-.2-1 0-1.1.6-1 0-1.9.1-2.8l.4-3.4c0-.7.3-1.3-.2-2-.2-.2 0-.8 0-1.2v-1.2c0-1.4-.2-2.7.2-4l-.2-1.3v-.2l.2-3-.2-1c-.1-.4-.4-1-.2-1.1.8-1 .3-2 0-2.9 0-.6-.5-1.2 0-2 0 0 0-.3-.2-.5-.5-1-.7-2 0-3 .3-.3.3-.8.2-1.1 0-.7-.3-1.3-.4-2 0-.5.3-1.2.2-1.8l-.7-3.5c-.1-.3-.2-.7 0-.8 1-.8.4-2 .4-3 0-1.2-.4-2.4-.6-3.6l.3-1.2c0-.4.2-.8 0-1-.5-.9-.4-1.8-.2-2.7 0-.7.5-1.4.5-2 0-.6-.2-1.2-.5-1.7-.4-.6-.5-1.1-.2-1.8.2-.3.2-.7.2-1.1v-2.9l-.2-.9v-1.3a5 5 0 0 0 .5-2.6c-.2-1.3 0-2.5 0-3.8.2-2.3-.4-4.6-.5-7 0-.7.3-1.3.3-2l-.1-2.4v-1.8c-.1-.4 0-.8-.2-1.2-.2-.5-.3-1 .1-1.5v-8.1c0-.6.3-1.3.4-2v-1c-.4-1.2-.1-2.3 0-3.5.2-.8 0-1.7 0-2.5-.3-1.6.2-3.2.4-4.8v-1l-.2-.9c0-.7 0-1.3.2-2 .1-1.4 0-2.8-.2-4.2-.2-1.3 0-2.7-.1-4 0-1.4-.3-2.9-.5-4.3 0-.5-.2-1 0-1.4.3-1.1-.3-2.1-.2-3.2.1-1 .2-2 .1-3 0-1.6.3-3.4-.3-5v-.4c.9-1 .1-2 0-3v-.3c.9-1.2-.6-2.6.3-3.8.2-.3 0-1-.1-1.6v-1l-.3-1.3c0-.3-.2-.6-.1-.9.5-1.5-.3-3-.2-4.4 0-.8-.3-1.6-.4-2.4l-.4-3.7c0-.1-.2-.3-.1-.4.8-1.4-.5-2.6-.3-3.9.1-1 .6-2 .8-2.7-.1-1-.4-1.8-.3-2.7 0-2 0-4 .5-6 .2-.9-.1-1.9-.2-2.9 0-1-.1-2.1 0-3.2 0-2 .2-4.1.5-6.2.1-1-.1-2-.3-2.8l.1-.7.2-1.7.2-.8.9-5.9.2-4v-8.1l.2-2-.1-4.4-.1-2.3v-4.5c0-1.1-.4-2.3-.5-3.4v-1.7c0-1.5.3-3.2-.1-4.6-.4-1 0-1.6.2-2.5l-.3-3c0-1.5-.8-2.8-.4-4.3.2-1.1-.2-2.3-.3-3.5 0-.4 2-.4 2.5-.2.5.3 7.6-.6 9.6-.3.3 0 4.4-1 6 0 1.3-.2 7.8.8 8.3.8a32.2 32.2 0 0 1 3.5.4l.6.3c1.7-.8 3.5 0 5.2-.3 1.4-.2 3 .2 4.4.3h3.3a68 68 0 0 0 3.5-.5c1.4-.2 2.7.4 4-.2 1-.4 2.2-.2 3.3-.3l1 .1c.7.3 1.3.4 2-.1h.9c.8.7 1.5.1 2.3 0l1.2-.2h.8l4-.3h.8c.4.1 1 .3 1.3 0 .7-.2 1.2-.1 2 .2.6.2 1.3.8 2.2.2.3-.2.9.2 1.4.2l4.6-.2 2.4.1 1.7.4c1.3.1 2.5-.6 3.8-.6 1.7 0 3.3-.5 5-.5l7.1-.2c1 0 2-.3 3-.4l2.8-.2 4.7-.2c1 0 2 1.2 3.1 1 1-.2 2.2.3 3.3.5h1.7l3.4.2c1.5.2 3-.6 4.6-.5 1.5.2 3-.4 4.4-.3 1.2.1 2.4.4 3.6.4l3.6.3c.4 0 .8-.3 1.3-.3h3l.7.2c.5-.2 1 .6 1.5.3-.2-1.2 1-1 1.6-1.4.4-.3 1-.4 1.4-.6.6-.3 1.1-.3 1.6.1.6.5 1.2.8 1.6 1.3.6.7 1.4.7 2.2.7l8.1-.5 5.2.2.9-.1c.6-.5 1.1-.4 1.9-.2.8.2 1.7.1 2.6.1h4.3l4-.2 5.3-.1 6.2-.3 7.2-.8 10 .6c1.8 0 14.5-.7 15.4-.9.7 0 1 .2.8.9-.3 1.5.6 2 .2 3.6v7.5c.3 1.9-1.2 3.8-1 5.6l.1 1.1v3.2c.2.8-.3 1.9.8 2.5v.6a5.6 5.6 0 0 0-.3 3.5v.7c0 .8 0 1.5.7 2 .8.6-.2.7-.5 1 .2 1.2-.5 2.4-.3 3.6.1.8 0 1.4-.6 1.7l.4 3c0 .5 0 1 .2 1.5.3.8.4 1.6-.5 2.2l-.4.7 1 .4-.7 2.1c.7.2 1.1.8 1 2-.2.8-.1 1.6-.1 2.5 0 .2 0 .5-.2.7-.7.6-.3 1.1 0 1.8.4.7.7 1.4-.2 2-.3.3-.2 1.1-.3 1.7l.7.3-.5.5.8 2c.5 1.1.3 1.4-.5 2.2-.4.4-.3 1.2-.2 1.9 0 .4.3.8.3 1.3 1 .7 1.3 1.7 1 3v2c0 .3-.1.7-.3 1-1 1.2-.9 2.2.2 3.3l.1.3c-.5.5-.6 2.5-.1 3.1.9 1.3.8 2.5 0 3.8-.3.4-.4 1 0 1.5.4.4.6.8.7 1.3 0 .1 0 .5-.2.6-.9 1-.9 1-.6 2.1l-.2 1.6c0 .9-.1 1.8.7 2.5.2.1.4.7-.3.8l-.2.7c0 .8.2 1.5.3 2.3" style="fill:#231f20" transform="translate(126 1158.8) scale(4.16667)"/><path d="M0-1c-.3.4-.5.8-.8 1l-1.5.5c-.5.1-1 0-1.6 0-1 0-1.6-.3-1.6-.9 0-.5 1.3-1.2 2-1.1L0-1" style="fill:#231f20" transform="translate(348 1230.5) scale(4.16667)"/><path d="M0 1.8C-.1.5 1.5-.4 2.3.2c.4.2.6.6 1 1C3.5.4 4 .5 4.6.7l2.6.5c-.4 1-1.2 1-1.8.9-1-.2-2.1.1-3-.7h-.7c-.6 0-1.1.2-1.8.4" style="fill:#231f20" transform="translate(872.4 1220.3) scale(4.16667)"/><path d="m0-.6 3.2-.8.6.8C2.8-.3 2.1.7 1-.1.8-.2.2 0 0 .3-.5.8-1 .8-1.5 0L0-.6" style="fill:#231f20" transform="translate(841 1231.4) scale(4.16667)"/><path d="M0 1 1.4.4 2 0c.4-.2 1-.4 1.4-.4.2 0 .5.3.6.6l-.3.6c-.5.2-1.1.4-1.6.4l-2-.1L0 1" style="fill:#231f20" transform="translate(135.8 1231.8) scale(4.16667)"/><path d="M-1.4-1.6c-.7.6-.8 1.7-.5 3l.5-.6h.7l-.7-2.4" style="fill:#231f20" transform="scale(4.16667 -4.16667) rotate(89.6 168 -128.1)"/><path d="m0 .4.5-.7 1.2.4v.2L.1.7 0 .4" style="fill:#231f20" transform="translate(824.9 1231.2) scale(4.16667)"/><path d="M.6-.6 0 .4l.5.1.4-.9-.4-.2" style="fill:#231f20" transform="scale(-4.16667 4.16667) rotate(85.7 -262.1 34.8)"/><path d="M-.6-.7-1.2.4l.6.3L0-.4l-.5-.3" style="fill:#231f20" transform="scale(4.16667 -4.16667) rotate(81 116 61.5)"/><path d="M0 11.9c-.1-1-.5-2-.4-3 .2-2 1.2-3.8.9-6C.3 2 .9 1 1 0L1.3-2c.1-.9.5-1.8.4-2.6C1.5-6 2-6.9 2.4-8c.2-.5 0-1.2.2-1.7.3-1 .6-2 1.1-3 .5-.8 1.2-1.4 1.8-2a19 19 0 0 1 1.8-1.7c.6-.4 1.2-.9 1.9-1 .6-.3 1.2 0 1.4.7.8-.6 2.3-.2 2.8.6l.7.6c1.2.3 1.9.8 1.7 2.2l.3 4 .3 4.3c0 .7.4 1.5.1 2-.5 1-.2 1.9-.3 2.8v2c0 .5.2 1 0 1.4-.4 1.7-.3 3.4-.1 5.1L16 9.5l-.2 6.2.3 1.9c.1 1.1.4 2.3.1 3.5v.5c.2 1.3.3 2.7.3 4 0 1.2-.5 1.5-1.7 1.7-.9.1-1.7.4-2.5.6h-.8l-.6.1c-2 1.5-3.8 1-5.4-.4-1.2-1-2.2-2-3-3.2-.6-.9-.9-2-.7-3.2.1-.9-.2-1.7-.4-2.6-.1-.9-.2-1.8-.5-2.7-.5-1-.2-2.3-1-3.3l.3-.8H0" style="fill:#231f20" transform="translate(208.3 918.1) scale(4.16667)"/><path d="M0-74.9c-.9 1-.8 1.1.1 1.5.4.1.7.4 1 .6.3.3.6.6 1 .6.7.1 1.3.6 1.9.9.9.4 1.3 1.1 2 1.8.9 1 1.9 2 2.6 3.3.7 1.1 1 2.5 1.6 3.8l.8 1.7c.3.7.6 1.5.7 2.2.5 2.2 1.1 4.4 1.2 6.6 0 2.4 1.2 4.4 1.6 6.6l.3 2.6c.1 1.7.4 3.5.4 5.2 0 1.5-.3 2.9-.4 4.3 0 .3-.2.7 0 .9.4.8.2 1.6 0 2.4l-.5 2.9-1.2 3-.2.6a12 12 0 0 1-1.8 6.7l-.2.5c-.1 1.4-.1 2.9-.4 4.2-.1 1-.6 2-1 3l-1 2-2.4 3.2-.3.3C5.7-1.9 4.3-1.3 3.2-.7 2.2-.1.7 0-.7.3c0 0-.4-.4-.4-.7l-.1-1-.3-4.7-.5-5.2v-.6c.3-1 .3-2 0-3-.2-.2-.3-.5-.2-.7.4-1.2.1-2.3-.3-3.4v-.7a8 8 0 0 0-.1-4.3v-.7c0-.5.2-1.1 0-1.4-.5-.6-.2-1.2-.2-1.8l-.2-3v-3.4c0-.5-.2-1 0-1.5.6-1.6 0-3.2-.3-4.7-.3-1.3 0-2.4.1-3.6.2-1.2.5-2.4.5-3.6-.2-2.6 0-5.2.3-7.8l-.2-3.3V-64l.3-4v-6c0-.7.2-1.2 1-.8.3.1.7 0 1.3-.1" style="fill:#231f20" transform="translate(149.6 560.7) scale(4.16667)"/><path d="M0-6.5c-.2.4-.4.7-.4 1l.3.5.7-.8-.6-.7m-1-1.3c-.3.3-.6.5-.6.7l.4.6 1-.5-.7-.8m2.3-2.9.2 3L1.4-5l.2 1.7.2 1.6c0 1 0 2-.2 2.9-.5 1.5 0 3.1-1 4.5-.2.3 0 .9 0 1.3L.1 8.4l-2 3.5-.3.6-2.7 2.2-.4.6c-.4 1-1 1.3-2.2 1.2-1.1 0-2.3 0-3.5-.2-.3 0-.6-.3-.9-.5l-2.9-1.4a3.2 3.2 0 0 1-1.7-2c-.5-1.7 0-3.4.1-5 .2-1.5 0-3 .1-4.4 0-.7.2-1.3.3-2-.8-1.3.4-2.7-.2-4-.1 0-.1-.2 0-.4.3-1.3.3-2.6.8-4 .4-1.2.7-2.6-.3-4-.3-.4-.2-1.2-.2-1.9v-3.8l1.9-1.2c.3-.3.6-.7.7-1.1.2-.6 0-1.4.9-1.4 0 0 .2 0 .2-.2.5-1.7 2.1-1.5 3.4-1.8.9-.3 1.8-.2 2.8-.3 1.4 0 2.5.7 3.2 2 .1.3.3.5.6.6.7.4 1 1 1.3 1.9.4 1 .6 2.2 1.4 3.2 1 1.4.9 3.1.8 4.7" style="fill:#231f20" transform="translate(533.3 654.4) scale(4.16667)"/><path d="M0-4.6c1.4.4 2.3.8 2.7.7.5 0 1 .3 1.3.5.4.3.6.8.7 1.3l-.6.6C2.7-1.1 1.4-.4 0 0c-.7.2-1.3.6-1 1.6v2.2c0 .4 0 1 .3 1.3.4.7.4 1.7-.1 2.1-.7.6-1.6.5-2.3 0l-3-2.4c-.3-.3-.6-.2-1 .2l-1.4 1.5-.7.4-.8.5c-.6.3-1.3.7-2 .8-.7 0-1.2-.4-1-1.3 0-1.2.1-2.4.4-3.6.2-1-.1-1.7-1.1-2.3l-1.5-.7-2-.4c-1.2-.2-.8-1.2-1.1-1.9 0-.1.4-.6.7-.7l3.7-1.6c.3-.2.5-.7.4-1 0-2.1-.3-4.2-.4-6.4 0-.3.5-.8 1-1.1 0-.1.7.2.8.4 1.2 2 3 3 5 4 1.5.7 2.3.3 2.8-1.5.3-.7 1.7-1.7 1.9-2 .5-.5 1.1-.6 1.5 0 .3.7.5 1.5.4 2.2l-.4 3.4c-.4 1.3.2 1.8.8 1.7" style="fill:#231f20" transform="translate(829.1 181.7) scale(4.16667)"/><path d="M0-2.2-.2 0 0 0l1-1-1-1.3" style="fill:#231f20" transform="scale(-4.16667 4.16667) rotate(19.2 -130.4 -449)"/><path d="M-.6-.8-1.3.6l.7.2.3-1.5-.3-.1" style="fill:#231f20" transform="scale(4.16667 -4.16667) rotate(79.3 83.4 81.3)"/><path d="m0 .7-.7.1v1.3l-1.6-.4c-.4-.5.7-1.2-.1-1.7L-4-.8c.6-.3 1.3-.6 2 .1.6.5 1.4.8 2 1.1L0 .7" style="fill:#231f20" transform="translate(45.1 1058.6) scale(4.16667)"/><path d="M.3-.5.1.7h.2l1-.7-1-.5" style="fill:#231f20" transform="scale(4.16667 -4.16667) rotate(-61.9 53.9 -127.4)"/><path d="M0-.7h1.9C1.6 0 .6 0 0-.6" style="fill:#231f20" transform="translate(537 65) scale(4.16667)"/><path d="m0-.2-.9.4-.6.2c0-.2-.2-.4-.1-.5.1-.2.3-.4.5-.4.4 0 .8 0 1.1.2v.1" style="fill:#231f20" transform="translate(574.5 99.7) scale(4.16667)"/></svg>